<mxfile host="app.diagrams.net" agent="Mozilla/5.0 (Macintosh; Intel Mac OS X 10_15_7) AppleWebKit/537.36 (KHTML, like Gecko) Chrome/141.0.0.0 Safari/537.36" version="28.2.8">
  <diagram name="Page-1" id="EhguKP_APyN_cr7Fa_mL">
    <mxGraphModel dx="5814" dy="4097" grid="1" gridSize="10" guides="1" tooltips="1" connect="1" arrows="1" fold="1" page="1" pageScale="1" pageWidth="1654" pageHeight="1169" math="0" shadow="0">
      <root>
        <mxCell id="0" />
        <mxCell id="1" parent="0" />
        <UserObject label="" plantUmlData="{&#xa;  &quot;data&quot;: &quot;@startuml School Management System\ntitle School Management System - Proposed Use Case Diagram\n\nleft to right direction\nskinparam linetype polyline\n\nactor \&quot;User\&quot; as U\nactor \&quot;User\&quot; as UR\nactor \&quot;Student\&quot; as S\nactor \&quot;Student\&quot; as SR\nactor \&quot;Teacher\&quot; as T\nactor \&quot;Teacher\&quot; as TR\nactor \&quot;Sectional Head\&quot; as SH\nactor \&quot;Sectional Head\&quot; as SHR\nactor \&quot;Principal\&quot; as P\nactor \&quot;Principal\&quot; as PR\nactor \&quot;Administrator\&quot; as A\n\nU &lt;|-- S\nU &lt;|-- T\nT &lt;|-- SH\nSH &lt;|-- P\nP &lt;|-- A\n\nrectangle \&quot;School Management System\&quot; {\n        U -- (Enter the Attendance Daily)\n        (Enter the Attendance Daily) ..&gt; (Verify Using Fingerprint) : &lt;&lt;include&gt;&gt;\n        (Verify Using Fingerprint) ..&gt; (Update User Log) : &lt;&lt;include&gt;&gt;\n\n        U -- (Login)\n        (Login) ..&gt; (Validate User) : &lt;&lt;include&gt;&gt;\n        (Validate User) ..&gt; (Update User Log) : &lt;&lt;include&gt;&gt;\n\n        U -- (View User Profile)\n        (View User Profile) &lt;.. (Update User Profile) : &lt;&lt;extends&gt;&gt;\n        (Update User Profile) ..&gt; (Update User Log) : &lt;&lt;include&gt;&gt;\n\n        U -- (Communication)\n        (Communication) &lt;.. (Send Messages) : &lt;&lt;extends&gt;&gt;\n        (Send Messages) ..&gt; (Update User Log) : &lt;&lt;include&gt;&gt;\n\n        U -- (Logout)\n        (Logout) ..&gt; (Confirm) : &lt;&lt;include&gt;&gt;\n        (Confirm) ..&gt; (Update User Log) : &lt;&lt;include&gt;&gt;\n\n        (Notify Users) -- UR\n\n        S -- (View Educational Information)\n        (View Educational Information) &lt;.. (Submit Assessments) : &lt;&lt;extends&gt;&gt;\n        (View Educational Information) &lt;.. (View Assessments) : &lt;&lt;extends&gt;&gt;\n\n        (Submit Assessments) ..&gt; (Update Educational Information) : &lt;&lt;include&gt;&gt;\n        (View Assessments) ..&gt; (View Submission Marks) : &lt;&lt;include&gt;&gt;\n\n        S -- (View Exams Information)\n        (View Exams Information) &lt;.. (View Exams) : &lt;&lt;extends&gt;&gt;\n        (View Exams Information) &lt;.. (View Exam Results) : &lt;&lt;extends&gt;&gt;\n        (View Exam Results) &lt;.. (Apply for Recorrections) : &lt;&lt;extends&gt;&gt;\n        (View Exam Results) &lt;.. (Calculate GPA) : &lt;&lt;extends&gt;&gt;\n\n        (Update Student Information ) -- SR\n        (Update Educational Information ) -- SR\n        (Update Exam Information ) -- SR\n\n        T -- (View Student Information )\n        (View Student Information ) &lt;.. (Create Student Information ) : &lt;&lt;extends&gt;&gt;\n        (View Student Information ) &lt;.. (Delete Student Information ) : &lt;&lt;extends&gt;&gt;\n        (View Student Information ) &lt;.. (Generate Student Attendance Reports) : &lt;&lt;extends&gt;&gt;\n        (View Student Information ) &lt;.. (Generate Student Performance Reports) : &lt;&lt;extends&gt;&gt;\n        (View Student Information ) &lt;.. (Generate Enrollment Reports) : &lt;&lt;extends&gt;&gt;\n\n        (Create Student Information ) ..&gt; (Update Student Information ) : &lt;&lt;include&gt;&gt;\n        (Delete Student Information ) ..&gt; (Update Student Information ) : &lt;&lt;include&gt;&gt;\n        (Generate Student Attendance Reports) ..&gt; (Update Student Information ) : &lt;&lt;include&gt;&gt;\n        (Generate Student Performance Reports) ..&gt; (Update Student Information ) : &lt;&lt;include&gt;&gt;\n        (Generate Enrollment Reports) ..&gt; (Update Student Information ): &lt;&lt;include&gt;&gt;\n\n        T -- (View Educational Information )\n        (View Educational Information ) &lt;.. (Create Assessments) : &lt;&lt;extends&gt;&gt;\n        (View Educational Information ) &lt;.. (Edit Assessments) : &lt;&lt;extends&gt;&gt;\n        (View Educational Information ) &lt;.. (Delete Assessments) : &lt;&lt;extends&gt;&gt;\n\n        T -- (View Student Submissions)\n        (View Student Submissions) &lt;.. (Mark Student Submissions) : &lt;&lt;extends&gt;&gt;\n\n        (Create Assessments) ..&gt; (Update Educational Information ): &lt;&lt;include&gt;&gt;\n        (Edit Assessments) ..&gt; (Update Educational Information ): &lt;&lt;include&gt;&gt;\n        (Delete Assessments) ..&gt; (Update Educational Information ): &lt;&lt;include&gt;&gt;\n        (Mark Student Submissions) ..&gt; (Update Educational Information ) : &lt;&lt;include&gt;&gt;\n\n        T -- (View Exam Information )\n        (View Exam Information ) &lt;.. (Create Exams) : &lt;&lt;extends&gt;&gt;\n        (View Exam Information ) &lt;.. (Update Exams) : &lt;&lt;extends&gt;&gt;\n        (View Exam Information ) &lt;.. (Delete Exams) : &lt;&lt;extends&gt;&gt;\n        (View Exam Information ) &lt;.. (Edit Exam Results) : &lt;&lt;extends&gt;&gt;\n\n        (Create Exams) ..&gt; (Update Exam Information ) : &lt;&lt;include&gt;&gt;\n        (Update Exams) ..&gt; (Update Exam Information ) : &lt;&lt;include&gt;&gt;\n        (Delete Exams) ..&gt; (Update Exam Information ) : &lt;&lt;include&gt;&gt;\n        (Edit Exam Results) ..&gt; (Update Exam Information ) : &lt;&lt;include&gt;&gt;\n\n        (Update Educational Information) -- TR\n        (Apply for Recorrections) -- TR\n        (Notify Teachers) -- TR\n\n        SH -- (View Staff Information )\n        (View Staff Information ) &lt;.. (Add Staff Members) : &lt;&lt;extends&gt;&gt;\n        (View Staff Information ) &lt;.. (Update Staff Members) : &lt;&lt;extends&gt;&gt;\n        (View Staff Information ) &lt;.. (Remove Staff Members) : &lt;&lt;extends&gt;&gt;\n        \n        SH -- (View Sectional Information )\n        (View Sectional Information ) &lt;.. (Create Time Tables) : &lt;&lt;extends&gt;&gt;\n        (View Sectional Information ) &lt;.. (Update Time Tables) : &lt;&lt;extends&gt;&gt;\n        (View Sectional Information ) &lt;.. (Delete Time Tables) : &lt;&lt;extends&gt;&gt;\n\n        (Notify Sectional Heads) -- SHR\n\n        (Add Staff Members) ..&gt; (Notify Teachers) : &lt;&lt;include&gt;&gt;\n        (Update Staff Members) ..&gt; (Notify Teachers) : &lt;&lt;include&gt;&gt;\n        (Remove Staff Members) ..&gt; (Notify Teachers) : &lt;&lt;include&gt;&gt;\n        (Create Time Tables) ..&gt; (Notify Teachers): &lt;&lt;include&gt;&gt;\n        (Update Time Tables) ..&gt; (Notify Teachers) : &lt;&lt;include&gt;&gt;\n        (Delete Time Tables) ..&gt; (Notify Teachers) : &lt;&lt;include&gt;&gt;\n\n        P -- (Broadcast Announcements)\n        (Broadcast Announcements) ..&gt; (Select Users) : &lt;&lt;include&gt;&gt;\n\n        (Select Users) &lt;.. (Notify Users) : &lt;&lt;extends&gt;&gt;\n        (Select Users) &lt;.. (Notify Sectional Heads) : &lt;&lt;extends&gt;&gt;\n\n        (Notify Principals) -- PR\n\n        A -- (View User Information )\n        (View User Information ) &lt;.. (Add User) : &lt;&lt;extends&gt;&gt;\n        (View User Information ) &lt;.. (Update User) : &lt;&lt;extends&gt;&gt;\n        (View User Information ) &lt;.. (Delete User) : &lt;&lt;extends&gt;&gt;\n\n        (Add User) ..&gt; (Update User Logs) : &lt;&lt;include&gt;&gt;\n        (Update User) ..&gt; (Update User Logs) : &lt;&lt;include&gt;&gt;\n        (Delete User) ..&gt; (Update User Logs) : &lt;&lt;include&gt;&gt;\n\n        A -- (View System Monitor)\n        (View System Monitor) &lt;.. (Generate User Engagement Reports) : &lt;&lt;extends&gt;&gt;\n        (View System Monitor) &lt;.. (Generate Performance Reports) : &lt;&lt;extends&gt;&gt;\n        (View System Monitor) &lt;.. (Generate System Utilization Reports) : &lt;&lt;extends&gt;&gt;\n        (View System Monitor) &lt;.. (Generate Content Popularity Reports) : &lt;&lt;extends&gt;&gt;\n        (View System Monitor) &lt;.. (Generate Monthly Attendance Reports) : &lt;&lt;extends&gt;&gt;\n\n        (Generate User Engagement Reports) ..&gt; (Notify Principals) : &lt;&lt;include&gt;&gt;\n        (Generate Performance Reports) ..&gt; (Notify Principals) : &lt;&lt;include&gt;&gt;\n        (Generate System Utilization Reports) ..&gt; (Notify Principals) : &lt;&lt;include&gt;&gt;\n        (Generate Content Popularity Reports) ..&gt; (Notify Principals) : &lt;&lt;include&gt;&gt;\n        (Generate Monthly Attendance Reports) ..&gt; (Notify Principals) : &lt;&lt;include&gt;&gt;\n}\n\n@enduml&quot;,&#xa;  &quot;format&quot;: &quot;svg&quot;&#xa;}" id="DPsftpBFQgTnZUVsBxLK-1">
          <mxCell style="shape=image;noLabel=1;verticalAlign=top;aspect=fixed;imageAspect=0;image=data:image/svg+xml,PHN2ZyB4bWxucz0iaHR0cDovL3d3dy53My5vcmcvMjAwMC9zdmciIHhtbG5zOnhsaW5rPSJodHRwOi8vd3d3LnczLm9yZy8xOTk5L3hsaW5rIiBjb250ZW50U3R5bGVUeXBlPSJ0ZXh0L2NzcyIgZGF0YS1kaWFncmFtLXR5cGU9IkRFU0NSSVBUSU9OIiBoZWlnaHQ9IjI4NDZweCIgcHJlc2VydmVBc3BlY3RSYXRpbz0ibm9uZSIgc3R5bGU9IndpZHRoOjE4MTFweDtoZWlnaHQ6Mjg0NnB4O2JhY2tncm91bmQ6I0ZGRkZGRjsiIHZlcnNpb249IjEuMSIgdmlld0JveD0iMCAwIDE4MTEgMjg0NiIgd2lkdGg9IjE4MTFweCIgem9vbUFuZFBhbj0ibWFnbmlmeSI+PHRpdGxlPlNjaG9vbCBNYW5hZ2VtZW50IFN5c3RlbSAtIFByb3Bvc2VkIFVzZSBDYXNlIERpYWdyYW08L3RpdGxlPjxkZWZzLz48Zz48dGV4dCBmaWxsPSIjMDAwMDAwIiBmb250LWZhbWlseT0ic2Fucy1zZXJpZiIgZm9udC1zaXplPSIxNCIgZm9udC13ZWlnaHQ9ImJvbGQiIGxlbmd0aEFkanVzdD0ic3BhY2luZyIgdGV4dExlbmd0aD0iMzY0IiB4PSI3MTYuNSIgeT0iMjMuMjM0NCI+U2Nob29sIE1hbmFnZW1lbnQgU3lzdGVtIC0gUHJvcG9zZWQgVXNlIENhc2UgRGlhZ3JhbTwvdGV4dD48IS0tY2x1c3RlciBTY2hvb2wgTWFuYWdlbWVudCBTeXN0ZW0tLT48ZyBjbGFzcz0iY2x1c3RlciIgZGF0YS1lbnRpdHk9IlNjaG9vbCBNYW5hZ2VtZW50IFN5c3RlbSIgZGF0YS1zb3VyY2UtbGluZT0iMjQiIGRhdGEtdWlkPSJlbnQwMDE4IiBpZD0iY2x1c3Rlcl9TY2hvb2wgTWFuYWdlbWVudCBTeXN0ZW0iPjxyZWN0IGZpbGw9Im5vbmUiIGhlaWdodD0iMjc5OCIgcng9IjIuNSIgcnk9IjIuNSIgc3R5bGU9InN0cm9rZTojMTgxODE4O3N0cm9rZS13aWR0aDoxOyIgd2lkdGg9IjEwMzMiIHg9IjYyNiIgeT0iNDIuOTg0NCIvPjx0ZXh0IGZpbGw9IiMwMDAwMDAiIGZvbnQtZmFtaWx5PSJzYW5zLXNlcmlmIiBmb250LXNpemU9IjE0IiBmb250LXdlaWdodD0iYm9sZCIgbGVuZ3RoQWRqdXN0PSJzcGFjaW5nIiB0ZXh0TGVuZ3RoPSIxNjgiIHg9IjEwNTguNSIgeT0iNTguMjE4OCI+U2Nob29sIE1hbmFnZW1lbnQgU3lzdGVtPC90ZXh0PjwvZz48ZyBjbGFzcz0iZW50aXR5IiBkYXRhLWVudGl0eT0iRW50ZXIgdGhlIEF0dGVuZGFuY2UgRGFpbHkiIGRhdGEtc291cmNlLWxpbmU9IjI1IiBkYXRhLXVpZD0iZW50MDAxOSIgaWQ9ImVudGl0eV9FbnRlciB0aGUgQXR0ZW5kYW5jZSBEYWlseSI+PGVsbGlwc2UgY3g9Ijc1OC45ODIzIiBjeT0iMjgwMC43ODA4IiBmaWxsPSIjRjFGMUYxIiByeD0iMTA2Ljk4MjMiIHJ5PSIyMy43OTY1IiBzdHlsZT0ic3Ryb2tlOiMxODE4MTg7c3Ryb2tlLXdpZHRoOjAuNTsiLz48dGV4dCBmaWxsPSIjMDAwMDAwIiBmb250LWZhbWlseT0ic2Fucy1zZXJpZiIgZm9udC1zaXplPSIxNCIgbGVuZ3RoQWRqdXN0PSJzcGFjaW5nIiB0ZXh0TGVuZ3RoPSIxODIiIHg9IjY2Ny45ODIzIiB5PSIyODA0LjUyMyI+RW50ZXIgdGhlIEF0dGVuZGFuY2UgRGFpbHk8L3RleHQ+PC9nPjxnIGNsYXNzPSJlbnRpdHkiIGRhdGEtZW50aXR5PSJWZXJpZnkgVXNpbmcgRmluZ2VycHJpbnQiIGRhdGEtc291cmNlLWxpbmU9IjI2IiBkYXRhLXVpZD0iZW50MDAyMSIgaWQ9ImVudGl0eV9WZXJpZnkgVXNpbmcgRmluZ2VycHJpbnQiPjxlbGxpcHNlIGN4PSIxMTM1Ljk4NSIgY3k9IjI4MDEuOTgxNCIgZmlsbD0iI0YxRjFGMSIgcng9IjEwMC40ODUiIHJ5PSIyMi40OTciIHN0eWxlPSJzdHJva2U6IzE4MTgxODtzdHJva2Utd2lkdGg6MC41OyIvPjx0ZXh0IGZpbGw9IiMwMDAwMDAiIGZvbnQtZmFtaWx5PSJzYW5zLXNlcmlmIiBmb250LXNpemU9IjE0IiBsZW5ndGhBZGp1c3Q9InNwYWNpbmciIHRleHRMZW5ndGg9IjE2OCIgeD0iMTA1MS45ODUiIHk9IjI4MDUuNzIzNiI+VmVyaWZ5IFVzaW5nIEZpbmdlcnByaW50PC90ZXh0PjwvZz48ZyBjbGFzcz0iZW50aXR5IiBkYXRhLWVudGl0eT0iVXBkYXRlIFVzZXIgTG9nIiBkYXRhLXNvdXJjZS1saW5lPSIyNyIgZGF0YS11aWQ9ImVudDAwMjMiIGlkPSJlbnRpdHlfVXBkYXRlIFVzZXIgTG9nIj48ZWxsaXBzZSBjeD0iMTUxOS40NjYzIiBjeT0iMjY2Ni44Nzc2IiBmaWxsPSIjRjFGMUYxIiByeD0iNzIuNDY2MyIgcnk9IjE2Ljg5MzMiIHN0eWxlPSJzdHJva2U6IzE4MTgxODtzdHJva2Utd2lkdGg6MC41OyIvPjx0ZXh0IGZpbGw9IiMwMDAwMDAiIGZvbnQtZmFtaWx5PSJzYW5zLXNlcmlmIiBmb250LXNpemU9IjE0IiBsZW5ndGhBZGp1c3Q9InNwYWNpbmciIHRleHRMZW5ndGg9IjEwNSIgeD0iMTQ2Ni45NjYzIiB5PSIyNjcwLjYxOTgiPlVwZGF0ZSBVc2VyIExvZzwvdGV4dD48L2c+PGcgY2xhc3M9ImVudGl0eSIgZGF0YS1lbnRpdHk9IkxvZ2luIiBkYXRhLXNvdXJjZS1saW5lPSIyOSIgZGF0YS11aWQ9ImVudDAwMjUiIGlkPSJlbnRpdHlfTG9naW4iPjxlbGxpcHNlIGN4PSI3NTkuMjM0IiBjeT0iMjUxOS4wNzk5IiBmaWxsPSIjRjFGMUYxIiByeD0iMzYuMjM0IiByeT0iMTMuNTk1NiIgc3R5bGU9InN0cm9rZTojMTgxODE4O3N0cm9rZS13aWR0aDowLjU7Ii8+PHRleHQgZmlsbD0iIzAwMDAwMCIgZm9udC1mYW1pbHk9InNhbnMtc2VyaWYiIGZvbnQtc2l6ZT0iMTQiIGxlbmd0aEFkanVzdD0ic3BhY2luZyIgdGV4dExlbmd0aD0iMzUiIHg9Ijc0MS43MzQiIHk9IjI1MjIuODIyMSI+TG9naW48L3RleHQ+PC9nPjxnIGNsYXNzPSJlbnRpdHkiIGRhdGEtZW50aXR5PSJWYWxpZGF0ZSBVc2VyIiBkYXRhLXNvdXJjZS1saW5lPSIzMCIgZGF0YS11aWQ9ImVudDAwMjciIGlkPSJlbnRpdHlfVmFsaWRhdGUgVXNlciI+PGVsbGlwc2UgY3g9IjExMzYuMTgzNCIgY3k9IjI1MjcuMjIxIiBmaWxsPSIjRjFGMUYxIiByeD0iNjYuNjgzNCIgcnk9IjE1LjczNjciIHN0eWxlPSJzdHJva2U6IzE4MTgxODtzdHJva2Utd2lkdGg6MC41OyIvPjx0ZXh0IGZpbGw9IiMwMDAwMDAiIGZvbnQtZmFtaWx5PSJzYW5zLXNlcmlmIiBmb250LXNpemU9IjE0IiBsZW5ndGhBZGp1c3Q9InNwYWNpbmciIHRleHRMZW5ndGg9IjkxIiB4PSIxMDkwLjY4MzQiIHk9IjI1MzAuOTYzMiI+VmFsaWRhdGUgVXNlcjwvdGV4dD48L2c+PGcgY2xhc3M9ImVudGl0eSIgZGF0YS1lbnRpdHk9IlZpZXcgVXNlciBQcm9maWxlIiBkYXRhLXNvdXJjZS1saW5lPSIzMyIgZGF0YS11aWQ9ImVudDAwMzAiIGlkPSJlbnRpdHlfVmlldyBVc2VyIFByb2ZpbGUiPjxlbGxpcHNlIGN4PSI3NTguOTU1OCIgY3k9IjI1ODkuMDc1NSIgZmlsbD0iI0YxRjFGMSIgcng9Ijc4LjQ1NTgiIHJ5PSIxOC4wOTEyIiBzdHlsZT0ic3Ryb2tlOiMxODE4MTg7c3Ryb2tlLXdpZHRoOjAuNTsiLz48dGV4dCBmaWxsPSIjMDAwMDAwIiBmb250LWZhbWlseT0ic2Fucy1zZXJpZiIgZm9udC1zaXplPSIxNCIgbGVuZ3RoQWRqdXN0PSJzcGFjaW5nIiB0ZXh0TGVuZ3RoPSIxMTkiIHg9IjY5OS40NTU4IiB5PSIyNTkyLjgxNzciPlZpZXcgVXNlciBQcm9maWxlPC90ZXh0PjwvZz48ZyBjbGFzcz0iZW50aXR5IiBkYXRhLWVudGl0eT0iVXBkYXRlIFVzZXIgUHJvZmlsZSIgZGF0YS1zb3VyY2UtbGluZT0iMzQiIGRhdGEtdWlkPSJlbnQwMDMyIiBpZD0iZW50aXR5X1VwZGF0ZSBVc2VyIFByb2ZpbGUiPjxlbGxpcHNlIGN4PSIxMTM2LjEwNjIiIGN5PSIyNTk2LjgwNTYiIGZpbGw9IiNGMUYxRjEiIHJ4PSI4NC42MDYyIiByeT0iMTkuMzIxMiIgc3R5bGU9InN0cm9rZTojMTgxODE4O3N0cm9rZS13aWR0aDowLjU7Ii8+PHRleHQgZmlsbD0iIzAwMDAwMCIgZm9udC1mYW1pbHk9InNhbnMtc2VyaWYiIGZvbnQtc2l6ZT0iMTQiIGxlbmd0aEFkanVzdD0ic3BhY2luZyIgdGV4dExlbmd0aD0iMTMzIiB4PSIxMDY5LjYwNjIiIHk9IjI2MDAuNTQ3OCI+VXBkYXRlIFVzZXIgUHJvZmlsZTwvdGV4dD48L2c+PGcgY2xhc3M9ImVudGl0eSIgZGF0YS1lbnRpdHk9IkNvbW11bmljYXRpb24iIGRhdGEtc291cmNlLWxpbmU9IjM3IiBkYXRhLXVpZD0iZW50MDAzNSIgaWQ9ImVudGl0eV9Db21tdW5pY2F0aW9uIj48ZWxsaXBzZSBjeD0iNzU5LjE4MzQiIGN5PSIyNjYxLjIyMSIgZmlsbD0iI0YxRjFGMSIgcng9IjY2LjY4MzQiIHJ5PSIxNS43MzY3IiBzdHlsZT0ic3Ryb2tlOiMxODE4MTg7c3Ryb2tlLXdpZHRoOjAuNTsiLz48dGV4dCBmaWxsPSIjMDAwMDAwIiBmb250LWZhbWlseT0ic2Fucy1zZXJpZiIgZm9udC1zaXplPSIxNCIgbGVuZ3RoQWRqdXN0PSJzcGFjaW5nIiB0ZXh0TGVuZ3RoPSI5MSIgeD0iNzEzLjY4MzQiIHk9IjI2NjQuOTYzMiI+Q29tbXVuaWNhdGlvbjwvdGV4dD48L2c+PGcgY2xhc3M9ImVudGl0eSIgZGF0YS1lbnRpdHk9IlNlbmQgTWVzc2FnZXMiIGRhdGEtc291cmNlLWxpbmU9IjM4IiBkYXRhLXVpZD0iZW50MDAzNyIgaWQ9ImVudGl0eV9TZW5kIE1lc3NhZ2VzIj48ZWxsaXBzZSBjeD0iMTEzNi4xODM0IiBjeT0iMjY2Ny4yMjEiIGZpbGw9IiNGMUYxRjEiIHJ4PSI2Ni42ODM0IiByeT0iMTUuNzM2NyIgc3R5bGU9InN0cm9rZTojMTgxODE4O3N0cm9rZS13aWR0aDowLjU7Ii8+PHRleHQgZmlsbD0iIzAwMDAwMCIgZm9udC1mYW1pbHk9InNhbnMtc2VyaWYiIGZvbnQtc2l6ZT0iMTQiIGxlbmd0aEFkanVzdD0ic3BhY2luZyIgdGV4dExlbmd0aD0iOTEiIHg9IjEwOTAuNjgzNCIgeT0iMjY3MC45NjMyIj5TZW5kIE1lc3NhZ2VzPC90ZXh0PjwvZz48ZyBjbGFzcz0iZW50aXR5IiBkYXRhLWVudGl0eT0iTG9nb3V0IiBkYXRhLXNvdXJjZS1saW5lPSI0MSIgZGF0YS11aWQ9ImVudDAwNDAiIGlkPSJlbnRpdHlfTG9nb3V0Ij48ZWxsaXBzZSBjeD0iNzU5LjE4MzgiIGN5PSIyNzI4LjA3OTkiIGZpbGw9IiNGMUYxRjEiIHJ4PSI0MS4xODM4IiByeT0iMTMuNTk1NiIgc3R5bGU9InN0cm9rZTojMTgxODE4O3N0cm9rZS13aWR0aDowLjU7Ii8+PHRleHQgZmlsbD0iIzAwMDAwMCIgZm9udC1mYW1pbHk9InNhbnMtc2VyaWYiIGZvbnQtc2l6ZT0iMTQiIGxlbmd0aEFkanVzdD0ic3BhY2luZyIgdGV4dExlbmd0aD0iNDIiIHg9IjczOC4xODM4IiB5PSIyNzMxLjgyMjEiPkxvZ291dDwvdGV4dD48L2c+PGcgY2xhc3M9ImVudGl0eSIgZGF0YS1lbnRpdHk9IkNvbmZpcm0iIGRhdGEtc291cmNlLWxpbmU9IjQyIiBkYXRhLXVpZD0iZW50MDA0MiIgaWQ9ImVudGl0eV9Db25maXJtIj48ZWxsaXBzZSBjeD0iMTEzNi4xMzM1IiBjeT0iMjczMS4wNzk5IiBmaWxsPSIjRjFGMUYxIiByeD0iNDYuMTMzNSIgcnk9IjEzLjU5NTYiIHN0eWxlPSJzdHJva2U6IzE4MTgxODtzdHJva2Utd2lkdGg6MC41OyIvPjx0ZXh0IGZpbGw9IiMwMDAwMDAiIGZvbnQtZmFtaWx5PSJzYW5zLXNlcmlmIiBmb250LXNpemU9IjE0IiBsZW5ndGhBZGp1c3Q9InNwYWNpbmciIHRleHRMZW5ndGg9IjQ5IiB4PSIxMTExLjYzMzUiIHk9IjI3MzQuODIyMSI+Q29uZmlybTwvdGV4dD48L2c+PGcgY2xhc3M9ImVudGl0eSIgZGF0YS1lbnRpdHk9Ik5vdGlmeSBVc2VycyIgZGF0YS1zb3VyY2UtbGluZT0iNDUiIGRhdGEtdWlkPSJlbnQwMDQ1IiBpZD0iZW50aXR5X05vdGlmeSBVc2VycyI+PGVsbGlwc2UgY3g9IjE1MTkuMzg3OCIgY3k9Ijc4MC4xNjE5IiBmaWxsPSIjRjFGMUYxIiByeD0iNjMuODg3OCIgcnk9IjE1LjE3NzYiIHN0eWxlPSJzdHJva2U6IzE4MTgxODtzdHJva2Utd2lkdGg6MC41OyIvPjx0ZXh0IGZpbGw9IiMwMDAwMDAiIGZvbnQtZmFtaWx5PSJzYW5zLXNlcmlmIiBmb250LXNpemU9IjE0IiBsZW5ndGhBZGp1c3Q9InNwYWNpbmciIHRleHRMZW5ndGg9Ijg0IiB4PSIxNDc3LjM4NzgiIHk9Ijc4My45MDQxIj5Ob3RpZnkgVXNlcnM8L3RleHQ+PC9nPjxnIGNsYXNzPSJlbnRpdHkiIGRhdGEtZW50aXR5PSJWaWV3IEVkdWNhdGlvbmFsIEluZm9ybWF0aW9uIiBkYXRhLXNvdXJjZS1saW5lPSI0NyIgZGF0YS11aWQ9ImVudDAwNDciIGlkPSJlbnRpdHlfVmlldyBFZHVjYXRpb25hbCBJbmZvcm1hdGlvbiI+PGVsbGlwc2UgY3g9Ijc1OS4wNDEiIGN5PSIxNjYuMDkyNiIgZmlsbD0iI0YxRjFGMSIgcng9IjExMy41NDEiIHJ5PSIyNS4xMDgyIiBzdHlsZT0ic3Ryb2tlOiMxODE4MTg7c3Ryb2tlLXdpZHRoOjAuNTsiLz48dGV4dCBmaWxsPSIjMDAwMDAwIiBmb250LWZhbWlseT0ic2Fucy1zZXJpZiIgZm9udC1zaXplPSIxNCIgbGVuZ3RoQWRqdXN0PSJzcGFjaW5nIiB0ZXh0TGVuZ3RoPSIxOTYiIHg9IjY2MS4wNDEiIHk9IjE2OS44MzQ4Ij5WaWV3IEVkdWNhdGlvbmFsIEluZm9ybWF0aW9uPC90ZXh0PjwvZz48ZyBjbGFzcz0iZW50aXR5IiBkYXRhLWVudGl0eT0iU3VibWl0IEFzc2Vzc21lbnRzIiBkYXRhLXNvdXJjZS1saW5lPSI0OCIgZGF0YS11aWQ9ImVudDAwNDkiIGlkPSJlbnRpdHlfU3VibWl0IEFzc2Vzc21lbnRzIj48ZWxsaXBzZSBjeD0iMTEzNi4wMTMyIiBjeT0iOTUuMTg3IiBmaWxsPSIjRjFGMUYxIiByeD0iODEuNTEzMiIgcnk9IjE4LjcwMjYiIHN0eWxlPSJzdHJva2U6IzE4MTgxODtzdHJva2Utd2lkdGg6MC41OyIvPjx0ZXh0IGZpbGw9IiMwMDAwMDAiIGZvbnQtZmFtaWx5PSJzYW5zLXNlcmlmIiBmb250LXNpemU9IjE0IiBsZW5ndGhBZGp1c3Q9InNwYWNpbmciIHRleHRMZW5ndGg9IjEyNiIgeD0iMTA3My4wMTMyIiB5PSI5OC45MjkyIj5TdWJtaXQgQXNzZXNzbWVudHM8L3RleHQ+PC9nPjxnIGNsYXNzPSJlbnRpdHkiIGRhdGEtZW50aXR5PSJWaWV3IEFzc2Vzc21lbnRzIiBkYXRhLXNvdXJjZS1saW5lPSI0OSIgZGF0YS11aWQ9ImVudDAwNTEiIGlkPSJlbnRpdHlfVmlldyBBc3Nlc3NtZW50cyI+PGVsbGlwc2UgY3g9IjExMzUuOTM4NCIgY3k9IjE2NS45NzIxIiBmaWxsPSIjRjFGMUYxIiByeD0iNzUuNDM4NCIgcnk9IjE3LjQ4NzciIHN0eWxlPSJzdHJva2U6IzE4MTgxODtzdHJva2Utd2lkdGg6MC41OyIvPjx0ZXh0IGZpbGw9IiMwMDAwMDAiIGZvbnQtZmFtaWx5PSJzYW5zLXNlcmlmIiBmb250LXNpemU9IjE0IiBsZW5ndGhBZGp1c3Q9InNwYWNpbmciIHRleHRMZW5ndGg9IjExMiIgeD0iMTA3OS45Mzg0IiB5PSIxNjkuNzE0MiI+VmlldyBBc3Nlc3NtZW50czwvdGV4dD48L2c+PGcgY2xhc3M9ImVudGl0eSIgZGF0YS1lbnRpdHk9IlVwZGF0ZSBFZHVjYXRpb25hbCBJbmZvcm1hdGlvbiIgZGF0YS1zb3VyY2UtbGluZT0iNTEiIGRhdGEtdWlkPSJlbnQwMDUzIiBpZD0iZW50aXR5X1VwZGF0ZSBFZHVjYXRpb25hbCBJbmZvcm1hdGlvbiI+PGVsbGlwc2UgY3g9IjE1MTkuNjUwOSIgY3k9IjEwMi45MTQ1IiBmaWxsPSIjRjFGMUYxIiByeD0iMTIwLjE1MDkiIHJ5PSIyNi40MzAyIiBzdHlsZT0ic3Ryb2tlOiMxODE4MTg7c3Ryb2tlLXdpZHRoOjAuNTsiLz48dGV4dCBmaWxsPSIjMDAwMDAwIiBmb250LWZhbWlseT0ic2Fucy1zZXJpZiIgZm9udC1zaXplPSIxNCIgbGVuZ3RoQWRqdXN0PSJzcGFjaW5nIiB0ZXh0TGVuZ3RoPSIyMTAiIHg9IjE0MTQuNjUwOSIgeT0iMTA2LjY1NjciPlVwZGF0ZSBFZHVjYXRpb25hbCBJbmZvcm1hdGlvbjwvdGV4dD48L2c+PGcgY2xhc3M9ImVudGl0eSIgZGF0YS1lbnRpdHk9IlZpZXcgU3VibWlzc2lvbiBNYXJrcyIgZGF0YS1zb3VyY2UtbGluZT0iNTIiIGRhdGEtdWlkPSJlbnQwMDU1IiBpZD0iZW50aXR5X1ZpZXcgU3VibWlzc2lvbiBNYXJrcyI+PGVsbGlwc2UgY3g9IjE1MTkuMzgzOSIgY3k9IjE4NS4wNjExIiBmaWxsPSIjRjFGMUYxIiByeD0iOTAuODgzOSIgcnk9IjIwLjU3NjgiIHN0eWxlPSJzdHJva2U6IzE4MTgxODtzdHJva2Utd2lkdGg6MC41OyIvPjx0ZXh0IGZpbGw9IiMwMDAwMDAiIGZvbnQtZmFtaWx5PSJzYW5zLXNlcmlmIiBmb250LXNpemU9IjE0IiBsZW5ndGhBZGp1c3Q9InNwYWNpbmciIHRleHRMZW5ndGg9IjE0NyIgeD0iMTQ0NS44ODM5IiB5PSIxODguODAzMyI+VmlldyBTdWJtaXNzaW9uIE1hcmtzPC90ZXh0PjwvZz48ZyBjbGFzcz0iZW50aXR5IiBkYXRhLWVudGl0eT0iVmlldyBFeGFtcyBJbmZvcm1hdGlvbiIgZGF0YS1zb3VyY2UtbGluZT0iNTQiIGRhdGEtdWlkPSJlbnQwMDU3IiBpZD0iZW50aXR5X1ZpZXcgRXhhbXMgSW5mb3JtYXRpb24iPjxlbGxpcHNlIGN4PSI3NTkuMDYyMiIgY3k9IjI3OC4xOTY4IiBmaWxsPSIjRjFGMUYxIiByeD0iOTQuMDYyMiIgcnk9IjIxLjIxMjQiIHN0eWxlPSJzdHJva2U6IzE4MTgxODtzdHJva2Utd2lkdGg6MC41OyIvPjx0ZXh0IGZpbGw9IiMwMDAwMDAiIGZvbnQtZmFtaWx5PSJzYW5zLXNlcmlmIiBmb250LXNpemU9IjE0IiBsZW5ndGhBZGp1c3Q9InNwYWNpbmciIHRleHRMZW5ndGg9IjE1NCIgeD0iNjgyLjA2MjIiIHk9IjI4MS45MzkiPlZpZXcgRXhhbXMgSW5mb3JtYXRpb248L3RleHQ+PC9nPjxnIGNsYXNzPSJlbnRpdHkiIGRhdGEtZW50aXR5PSJWaWV3IEV4YW1zIiBkYXRhLXNvdXJjZS1saW5lPSI1NSIgZGF0YS11aWQ9ImVudDAwNTkiIGlkPSJlbnRpdHlfVmlldyBFeGFtcyI+PGVsbGlwc2UgY3g9IjExMzYuMDM2NyIgY3k9IjMwNC4wOTE3IiBmaWxsPSIjRjFGMUYxIiByeD0iNTguNTM2NyIgcnk9IjE0LjEwNzMiIHN0eWxlPSJzdHJva2U6IzE4MTgxODtzdHJva2Utd2lkdGg6MC41OyIvPjx0ZXh0IGZpbGw9IiMwMDAwMDAiIGZvbnQtZmFtaWx5PSJzYW5zLXNlcmlmIiBmb250LXNpemU9IjE0IiBsZW5ndGhBZGp1c3Q9InNwYWNpbmciIHRleHRMZW5ndGg9IjcwIiB4PSIxMTAxLjAzNjciIHk9IjMwNy44MzM5Ij5WaWV3IEV4YW1zPC90ZXh0PjwvZz48ZyBjbGFzcz0iZW50aXR5IiBkYXRhLWVudGl0eT0iVmlldyBFeGFtIFJlc3VsdHMiIGRhdGEtc291cmNlLWxpbmU9IjU2IiBkYXRhLXVpZD0iZW50MDA2MSIgaWQ9ImVudGl0eV9WaWV3IEV4YW0gUmVzdWx0cyI+PGVsbGlwc2UgY3g9IjExMzUuOTU1OCIgY3k9IjIzNy4wNzU1IiBmaWxsPSIjRjFGMUYxIiByeD0iNzguNDU1OCIgcnk9IjE4LjA5MTIiIHN0eWxlPSJzdHJva2U6IzE4MTgxODtzdHJva2Utd2lkdGg6MC41OyIvPjx0ZXh0IGZpbGw9IiMwMDAwMDAiIGZvbnQtZmFtaWx5PSJzYW5zLXNlcmlmIiBmb250LXNpemU9IjE0IiBsZW5ndGhBZGp1c3Q9InNwYWNpbmciIHRleHRMZW5ndGg9IjExOSIgeD0iMTA3Ni40NTU4IiB5PSIyNDAuODE3NyI+VmlldyBFeGFtIFJlc3VsdHM8L3RleHQ+PC9nPjxnIGNsYXNzPSJlbnRpdHkiIGRhdGEtZW50aXR5PSJBcHBseSBmb3IgUmVjb3JyZWN0aW9ucyIgZGF0YS1zb3VyY2UtbGluZT0iNTciIGRhdGEtdWlkPSJlbnQwMDYzIiBpZD0iZW50aXR5X0FwcGx5IGZvciBSZWNvcnJlY3Rpb25zIj48ZWxsaXBzZSBjeD0iMTUxOS4yNjMzIiBjeT0iMzI4LjgzNyIgZmlsbD0iI0YxRjFGMSIgcng9Ijk3LjI2MzMiIHJ5PSIyMS44NTI3IiBzdHlsZT0ic3Ryb2tlOiMxODE4MTg7c3Ryb2tlLXdpZHRoOjAuNTsiLz48dGV4dCBmaWxsPSIjMDAwMDAwIiBmb250LWZhbWlseT0ic2Fucy1zZXJpZiIgZm9udC1zaXplPSIxNCIgbGVuZ3RoQWRqdXN0PSJzcGFjaW5nIiB0ZXh0TGVuZ3RoPSIxNjEiIHg9IjE0MzguNzYzMyIgeT0iMzMyLjU3OTIiPkFwcGx5IGZvciBSZWNvcnJlY3Rpb25zPC90ZXh0PjwvZz48ZyBjbGFzcz0iZW50aXR5IiBkYXRhLWVudGl0eT0iQ2FsY3VsYXRlIEdQQSIgZGF0YS1zb3VyY2UtbGluZT0iNTgiIGRhdGEtdWlkPSJlbnQwMDY1IiBpZD0iZW50aXR5X0NhbGN1bGF0ZSBHUEEiPjxlbGxpcHNlIGN4PSIxNTE5LjY4MzQiIGN5PSIyNTYuMjIxIiBmaWxsPSIjRjFGMUYxIiByeD0iNjYuNjgzNCIgcnk9IjE1LjczNjciIHN0eWxlPSJzdHJva2U6IzE4MTgxODtzdHJva2Utd2lkdGg6MC41OyIvPjx0ZXh0IGZpbGw9IiMwMDAwMDAiIGZvbnQtZmFtaWx5PSJzYW5zLXNlcmlmIiBmb250LXNpemU9IjE0IiBsZW5ndGhBZGp1c3Q9InNwYWNpbmciIHRleHRMZW5ndGg9IjkxIiB4PSIxNDc0LjE4MzQiIHk9IjI1OS45NjMyIj5DYWxjdWxhdGUgR1BBPC90ZXh0PjwvZz48ZyBjbGFzcz0iZW50aXR5IiBkYXRhLWVudGl0eT0iVXBkYXRlIFN0dWRlbnQgSW5mb3JtYXRpb24gIiBkYXRhLXNvdXJjZS1saW5lPSI2MCIgZGF0YS11aWQ9ImVudDAwNjciIGlkPSJlbnRpdHlfVXBkYXRlIFN0dWRlbnQgSW5mb3JtYXRpb24gIj48ZWxsaXBzZSBjeD0iMTUxOS4yNTQ3IiBjeT0iMjIzNi45MzUzIiBmaWxsPSIjRjFGMUYxIiByeD0iMTEwLjI1NDciIHJ5PSIyNC40NTA5IiBzdHlsZT0ic3Ryb2tlOiMxODE4MTg7c3Ryb2tlLXdpZHRoOjAuNTsiLz48dGV4dCBmaWxsPSIjMDAwMDAwIiBmb250LWZhbWlseT0ic2Fucy1zZXJpZiIgZm9udC1zaXplPSIxNCIgbGVuZ3RoQWRqdXN0PSJzcGFjaW5nIiB0ZXh0TGVuZ3RoPSIxODIiIHg9IjE0MjQuNzU0NyIgeT0iMjI0MC42Nzc1Ij5VcGRhdGUgU3R1ZGVudCBJbmZvcm1hdGlvbjwvdGV4dD48L2c+PGcgY2xhc3M9ImVudGl0eSIgZGF0YS1lbnRpdHk9IlVwZGF0ZSBFZHVjYXRpb25hbCBJbmZvcm1hdGlvbiAiIGRhdGEtc291cmNlLWxpbmU9IjYxIiBkYXRhLXVpZD0iZW50MDA2OSIgaWQ9ImVudGl0eV9VcGRhdGUgRWR1Y2F0aW9uYWwgSW5mb3JtYXRpb24gIj48ZWxsaXBzZSBjeD0iMTUxOS40NzIzIiBjeT0iMTY3OC4wNzg4IiBmaWxsPSIjRjFGMUYxIiByeD0iMTIzLjQ3MjMiIHJ5PSIyNy4wOTQ1IiBzdHlsZT0ic3Ryb2tlOiMxODE4MTg7c3Ryb2tlLXdpZHRoOjAuNTsiLz48dGV4dCBmaWxsPSIjMDAwMDAwIiBmb250LWZhbWlseT0ic2Fucy1zZXJpZiIgZm9udC1zaXplPSIxNCIgbGVuZ3RoQWRqdXN0PSJzcGFjaW5nIiB0ZXh0TGVuZ3RoPSIyMTAiIHg9IjE0MTAuOTcyMyIgeT0iMTY4MS44MjEiPlVwZGF0ZSBFZHVjYXRpb25hbCBJbmZvcm1hdGlvbjwvdGV4dD48L2c+PGcgY2xhc3M9ImVudGl0eSIgZGF0YS1lbnRpdHk9IlVwZGF0ZSBFeGFtIEluZm9ybWF0aW9uICIgZGF0YS1zb3VyY2UtbGluZT0iNjIiIGRhdGEtdWlkPSJlbnQwMDcxIiBpZD0iZW50aXR5X1VwZGF0ZSBFeGFtIEluZm9ybWF0aW9uICI+PGVsbGlwc2UgY3g9IjE1MTkuNDg1IiBjeT0iMTkxNS45ODE0IiBmaWxsPSIjRjFGMUYxIiByeD0iMTAwLjQ4NSIgcnk9IjIyLjQ5NyIgc3R5bGU9InN0cm9rZTojMTgxODE4O3N0cm9rZS13aWR0aDowLjU7Ii8+PHRleHQgZmlsbD0iIzAwMDAwMCIgZm9udC1mYW1pbHk9InNhbnMtc2VyaWYiIGZvbnQtc2l6ZT0iMTQiIGxlbmd0aEFkanVzdD0ic3BhY2luZyIgdGV4dExlbmd0aD0iMTYxIiB4PSIxNDM1LjQ4NSIgeT0iMTkxOS43MjM2Ij5VcGRhdGUgRXhhbSBJbmZvcm1hdGlvbjwvdGV4dD48L2c+PGcgY2xhc3M9ImVudGl0eSIgZGF0YS1lbnRpdHk9IlZpZXcgU3R1ZGVudCBJbmZvcm1hdGlvbiAiIGRhdGEtc291cmNlLWxpbmU9IjY0IiBkYXRhLXVpZD0iZW50MDA3MyIgaWQ9ImVudGl0eV9WaWV3IFN0dWRlbnQgSW5mb3JtYXRpb24gIj48ZWxsaXBzZSBjeD0iNzU5LjIyNTIiIGN5PSIyMjI5LjEyOTQiIGZpbGw9IiNGMUYxRjEiIHJ4PSIxMDMuNzI1MiIgcnk9IjIzLjE0NSIgc3R5bGU9InN0cm9rZTojMTgxODE4O3N0cm9rZS13aWR0aDowLjU7Ii8+PHRleHQgZmlsbD0iIzAwMDAwMCIgZm9udC1mYW1pbHk9InNhbnMtc2VyaWYiIGZvbnQtc2l6ZT0iMTQiIGxlbmd0aEFkanVzdD0ic3BhY2luZyIgdGV4dExlbmd0aD0iMTY4IiB4PSI2NzEuNzI1MiIgeT0iMjIzMi44NzE2Ij5WaWV3IFN0dWRlbnQgSW5mb3JtYXRpb248L3RleHQ+PC9nPjxnIGNsYXNzPSJlbnRpdHkiIGRhdGEtZW50aXR5PSJDcmVhdGUgU3R1ZGVudCBJbmZvcm1hdGlvbiAiIGRhdGEtc291cmNlLWxpbmU9IjY1IiBkYXRhLXVpZD0iZW50MDA3NSIgaWQ9ImVudGl0eV9DcmVhdGUgU3R1ZGVudCBJbmZvcm1hdGlvbiAiPjxlbGxpcHNlIGN4PSIxMTM1Ljc1NDciIGN5PSIyMjcxLjkzNTMiIGZpbGw9IiNGMUYxRjEiIHJ4PSIxMTAuMjU0NyIgcnk9IjI0LjQ1MDkiIHN0eWxlPSJzdHJva2U6IzE4MTgxODtzdHJva2Utd2lkdGg6MC41OyIvPjx0ZXh0IGZpbGw9IiMwMDAwMDAiIGZvbnQtZmFtaWx5PSJzYW5zLXNlcmlmIiBmb250LXNpemU9IjE0IiBsZW5ndGhBZGp1c3Q9InNwYWNpbmciIHRleHRMZW5ndGg9IjE4MiIgeD0iMTA0MS4yNTQ3IiB5PSIyMjc1LjY3NzUiPkNyZWF0ZSBTdHVkZW50IEluZm9ybWF0aW9uPC90ZXh0PjwvZz48ZyBjbGFzcz0iZW50aXR5IiBkYXRhLWVudGl0eT0iRGVsZXRlIFN0dWRlbnQgSW5mb3JtYXRpb24gIiBkYXRhLXNvdXJjZS1saW5lPSI2NiIgZGF0YS11aWQ9ImVudDAwNzciIGlkPSJlbnRpdHlfRGVsZXRlIFN0dWRlbnQgSW5mb3JtYXRpb24gIj48ZWxsaXBzZSBjeD0iMTEzNS43NTQ3IiBjeT0iMjE4Ny45MzUzIiBmaWxsPSIjRjFGMUYxIiByeD0iMTEwLjI1NDciIHJ5PSIyNC40NTA5IiBzdHlsZT0ic3Ryb2tlOiMxODE4MTg7c3Ryb2tlLXdpZHRoOjAuNTsiLz48dGV4dCBmaWxsPSIjMDAwMDAwIiBmb250LWZhbWlseT0ic2Fucy1zZXJpZiIgZm9udC1zaXplPSIxNCIgbGVuZ3RoQWRqdXN0PSJzcGFjaW5nIiB0ZXh0TGVuZ3RoPSIxODIiIHg9IjEwNDEuMjU0NyIgeT0iMjE5MS42Nzc1Ij5EZWxldGUgU3R1ZGVudCBJbmZvcm1hdGlvbjwvdGV4dD48L2c+PGcgY2xhc3M9ImVudGl0eSIgZGF0YS1lbnRpdHk9IkdlbmVyYXRlIFN0dWRlbnQgQXR0ZW5kYW5jZSBSZXBvcnRzIiBkYXRhLXNvdXJjZS1saW5lPSI2NyIgZGF0YS11aWQ9ImVudDAwNzkiIGlkPSJlbnRpdHlfR2VuZXJhdGUgU3R1ZGVudCBBdHRlbmRhbmNlIFJlcG9ydHMiPjxlbGxpcHNlIGN4PSIxMTM1Ljg0OTEiIGN5PSIyMDk3Ljc1NDIiIGZpbGw9IiNGMUYxRjEiIHJ4PSIxMzYuODQ5MSIgcnk9IjI5Ljc2OTgiIHN0eWxlPSJzdHJva2U6IzE4MTgxODtzdHJva2Utd2lkdGg6MC41OyIvPjx0ZXh0IGZpbGw9IiMwMDAwMDAiIGZvbnQtZmFtaWx5PSJzYW5zLXNlcmlmIiBmb250LXNpemU9IjE0IiBsZW5ndGhBZGp1c3Q9InNwYWNpbmciIHRleHRMZW5ndGg9IjI0NSIgeD0iMTAxMy4zNDkxIiB5PSIyMTAxLjQ5NjQiPkdlbmVyYXRlIFN0dWRlbnQgQXR0ZW5kYW5jZSBSZXBvcnRzPC90ZXh0PjwvZz48ZyBjbGFzcz0iZW50aXR5IiBkYXRhLWVudGl0eT0iR2VuZXJhdGUgU3R1ZGVudCBQZXJmb3JtYW5jZSBSZXBvcnRzIiBkYXRhLXNvdXJjZS1saW5lPSI2OCIgZGF0YS11aWQ9ImVudDAwODEiIGlkPSJlbnRpdHlfR2VuZXJhdGUgU3R1ZGVudCBQZXJmb3JtYW5jZSBSZXBvcnRzIj48ZWxsaXBzZSBjeD0iMTEzNi4yMTI3IiBjeT0iMjQ0NS45MjY5IiBmaWxsPSIjRjFGMUYxIiByeD0iMTQwLjIxMjciIHJ5PSIzMC40NDI1IiBzdHlsZT0ic3Ryb2tlOiMxODE4MTg7c3Ryb2tlLXdpZHRoOjAuNTsiLz48dGV4dCBmaWxsPSIjMDAwMDAwIiBmb250LWZhbWlseT0ic2Fucy1zZXJpZiIgZm9udC1zaXplPSIxNCIgbGVuZ3RoQWRqdXN0PSJzcGFjaW5nIiB0ZXh0TGVuZ3RoPSIyNTIiIHg9IjEwMTAuMjEyNyIgeT0iMjQ0OS42NjkxIj5HZW5lcmF0ZSBTdHVkZW50IFBlcmZvcm1hbmNlIFJlcG9ydHM8L3RleHQ+PC9nPjxnIGNsYXNzPSJlbnRpdHkiIGRhdGEtZW50aXR5PSJHZW5lcmF0ZSBFbnJvbGxtZW50IFJlcG9ydHMiIGRhdGEtc291cmNlLWxpbmU9IjY5IiBkYXRhLXVpZD0iZW50MDA4MyIgaWQ9ImVudGl0eV9HZW5lcmF0ZSBFbnJvbGxtZW50IFJlcG9ydHMiPjxlbGxpcHNlIGN4PSIxMTM1Ljc1NDciIGN5PSIyMzU1LjkzNTMiIGZpbGw9IiNGMUYxRjEiIHJ4PSIxMTAuMjU0NyIgcnk9IjI0LjQ1MDkiIHN0eWxlPSJzdHJva2U6IzE4MTgxODtzdHJva2Utd2lkdGg6MC41OyIvPjx0ZXh0IGZpbGw9IiMwMDAwMDAiIGZvbnQtZmFtaWx5PSJzYW5zLXNlcmlmIiBmb250LXNpemU9IjE0IiBsZW5ndGhBZGp1c3Q9InNwYWNpbmciIHRleHRMZW5ndGg9IjE4OSIgeD0iMTA0MS4yNTQ3IiB5PSIyMzU5LjY3NzUiPkdlbmVyYXRlIEVucm9sbG1lbnQgUmVwb3J0czwvdGV4dD48L2c+PGcgY2xhc3M9ImVudGl0eSIgZGF0YS1lbnRpdHk9IlZpZXcgRWR1Y2F0aW9uYWwgSW5mb3JtYXRpb24gIiBkYXRhLXNvdXJjZS1saW5lPSI3NyIgZGF0YS11aWQ9ImVudDAwOTAiIGlkPSJlbnRpdHlfVmlldyBFZHVjYXRpb25hbCBJbmZvcm1hdGlvbiAiPjxlbGxpcHNlIGN4PSI3NTguODQwMSIgY3k9IjE3MTQuNzUyNCIgZmlsbD0iI0YxRjFGMSIgcng9IjExNi44NDAxIiByeT0iMjUuNzY4IiBzdHlsZT0ic3Ryb2tlOiMxODE4MTg7c3Ryb2tlLXdpZHRoOjAuNTsiLz48dGV4dCBmaWxsPSIjMDAwMDAwIiBmb250LWZhbWlseT0ic2Fucy1zZXJpZiIgZm9udC1zaXplPSIxNCIgbGVuZ3RoQWRqdXN0PSJzcGFjaW5nIiB0ZXh0TGVuZ3RoPSIxOTYiIHg9IjY1Ny4zNDAxIiB5PSIxNzE4LjQ5NDYiPlZpZXcgRWR1Y2F0aW9uYWwgSW5mb3JtYXRpb248L3RleHQ+PC9nPjxnIGNsYXNzPSJlbnRpdHkiIGRhdGEtZW50aXR5PSJDcmVhdGUgQXNzZXNzbWVudHMiIGRhdGEtc291cmNlLWxpbmU9Ijc4IiBkYXRhLXVpZD0iZW50MDA5MiIgaWQ9ImVudGl0eV9DcmVhdGUgQXNzZXNzbWVudHMiPjxlbGxpcHNlIGN4PSIxMTM2LjAxMzIiIGN5PSIxNjA2LjE4NyIgZmlsbD0iI0YxRjFGMSIgcng9IjgxLjUxMzIiIHJ5PSIxOC43MDI2IiBzdHlsZT0ic3Ryb2tlOiMxODE4MTg7c3Ryb2tlLXdpZHRoOjAuNTsiLz48dGV4dCBmaWxsPSIjMDAwMDAwIiBmb250LWZhbWlseT0ic2Fucy1zZXJpZiIgZm9udC1zaXplPSIxNCIgbGVuZ3RoQWRqdXN0PSJzcGFjaW5nIiB0ZXh0TGVuZ3RoPSIxMjYiIHg9IjEwNzMuMDEzMiIgeT0iMTYwOS45MjkyIj5DcmVhdGUgQXNzZXNzbWVudHM8L3RleHQ+PC9nPjxnIGNsYXNzPSJlbnRpdHkiIGRhdGEtZW50aXR5PSJFZGl0IEFzc2Vzc21lbnRzIiBkYXRhLXNvdXJjZS1saW5lPSI3OSIgZGF0YS11aWQ9ImVudDAwOTQiIGlkPSJlbnRpdHlfRWRpdCBBc3Nlc3NtZW50cyI+PGVsbGlwc2UgY3g9IjExMzUuOTM4NCIgY3k9IjE3NDguOTcyMSIgZmlsbD0iI0YxRjFGMSIgcng9Ijc1LjQzODQiIHJ5PSIxNy40ODc3IiBzdHlsZT0ic3Ryb2tlOiMxODE4MTg7c3Ryb2tlLXdpZHRoOjAuNTsiLz48dGV4dCBmaWxsPSIjMDAwMDAwIiBmb250LWZhbWlseT0ic2Fucy1zZXJpZiIgZm9udC1zaXplPSIxNCIgbGVuZ3RoQWRqdXN0PSJzcGFjaW5nIiB0ZXh0TGVuZ3RoPSIxMTIiIHg9IjEwNzkuOTM4NCIgeT0iMTc1Mi43MTQyIj5FZGl0IEFzc2Vzc21lbnRzPC90ZXh0PjwvZz48ZyBjbGFzcz0iZW50aXR5IiBkYXRhLWVudGl0eT0iRGVsZXRlIEFzc2Vzc21lbnRzIiBkYXRhLXNvdXJjZS1saW5lPSI4MCIgZGF0YS11aWQ9ImVudDAwOTYiIGlkPSJlbnRpdHlfRGVsZXRlIEFzc2Vzc21lbnRzIj48ZWxsaXBzZSBjeD0iMTEzNi4wMTMyIiBjeT0iMTY3OC4xODciIGZpbGw9IiNGMUYxRjEiIHJ4PSI4MS41MTMyIiByeT0iMTguNzAyNiIgc3R5bGU9InN0cm9rZTojMTgxODE4O3N0cm9rZS13aWR0aDowLjU7Ii8+PHRleHQgZmlsbD0iIzAwMDAwMCIgZm9udC1mYW1pbHk9InNhbnMtc2VyaWYiIGZvbnQtc2l6ZT0iMTQiIGxlbmd0aEFkanVzdD0ic3BhY2luZyIgdGV4dExlbmd0aD0iMTI2IiB4PSIxMDczLjAxMzIiIHk9IjE2ODEuOTI5MiI+RGVsZXRlIEFzc2Vzc21lbnRzPC90ZXh0PjwvZz48ZyBjbGFzcz0iZW50aXR5IiBkYXRhLWVudGl0eT0iVmlldyBTdHVkZW50IFN1Ym1pc3Npb25zIiBkYXRhLXNvdXJjZS1saW5lPSI4MiIgZGF0YS11aWQ9ImVudDAwOTgiIGlkPSJlbnRpdHlfVmlldyBTdHVkZW50IFN1Ym1pc3Npb25zIj48ZWxsaXBzZSBjeD0iNzU4Ljk4NSIgY3k9IjE1NzMuOTgxNCIgZmlsbD0iI0YxRjFGMSIgcng9IjEwMC40ODUiIHJ5PSIyMi40OTciIHN0eWxlPSJzdHJva2U6IzE4MTgxODtzdHJva2Utd2lkdGg6MC41OyIvPjx0ZXh0IGZpbGw9IiMwMDAwMDAiIGZvbnQtZmFtaWx5PSJzYW5zLXNlcmlmIiBmb250LXNpemU9IjE0IiBsZW5ndGhBZGp1c3Q9InNwYWNpbmciIHRleHRMZW5ndGg9IjE2OCIgeD0iNjc0Ljk4NSIgeT0iMTU3Ny43MjM2Ij5WaWV3IFN0dWRlbnQgU3VibWlzc2lvbnM8L3RleHQ+PC9nPjxnIGNsYXNzPSJlbnRpdHkiIGRhdGEtZW50aXR5PSJNYXJrIFN0dWRlbnQgU3VibWlzc2lvbnMiIGRhdGEtc291cmNlLWxpbmU9IjgzIiBkYXRhLXVpZD0iZW50MDEwMCIgaWQ9ImVudGl0eV9NYXJrIFN0dWRlbnQgU3VibWlzc2lvbnMiPjxlbGxpcHNlIGN4PSIxMTM1Ljk4NSIgY3k9IjE1MjkuOTgxNCIgZmlsbD0iI0YxRjFGMSIgcng9IjEwMC40ODUiIHJ5PSIyMi40OTciIHN0eWxlPSJzdHJva2U6IzE4MTgxODtzdHJva2Utd2lkdGg6MC41OyIvPjx0ZXh0IGZpbGw9IiMwMDAwMDAiIGZvbnQtZmFtaWx5PSJzYW5zLXNlcmlmIiBmb250LXNpemU9IjE0IiBsZW5ndGhBZGp1c3Q9InNwYWNpbmciIHRleHRMZW5ndGg9IjE2OCIgeD0iMTA1MS45ODUiIHk9IjE1MzMuNzIzNiI+TWFyayBTdHVkZW50IFN1Ym1pc3Npb25zPC90ZXh0PjwvZz48ZyBjbGFzcz0iZW50aXR5IiBkYXRhLWVudGl0eT0iVmlldyBFeGFtIEluZm9ybWF0aW9uICIgZGF0YS1zb3VyY2UtbGluZT0iOTAiIGRhdGEtdWlkPSJlbnQwMTA2IiBpZD0iZW50aXR5X1ZpZXcgRXhhbSBJbmZvcm1hdGlvbiAiPjxlbGxpcHNlIGN4PSI3NTkuMDYyMiIgY3k9IjE4ODIuMTk2OCIgZmlsbD0iI0YxRjFGMSIgcng9Ijk0LjA2MjIiIHJ5PSIyMS4yMTI0IiBzdHlsZT0ic3Ryb2tlOiMxODE4MTg7c3Ryb2tlLXdpZHRoOjAuNTsiLz48dGV4dCBmaWxsPSIjMDAwMDAwIiBmb250LWZhbWlseT0ic2Fucy1zZXJpZiIgZm9udC1zaXplPSIxNCIgbGVuZ3RoQWRqdXN0PSJzcGFjaW5nIiB0ZXh0TGVuZ3RoPSIxNDciIHg9IjY4Mi4wNjIyIiB5PSIxODg1LjkzOSI+VmlldyBFeGFtIEluZm9ybWF0aW9uPC90ZXh0PjwvZz48ZyBjbGFzcz0iZW50aXR5IiBkYXRhLWVudGl0eT0iQ3JlYXRlIEV4YW1zIiBkYXRhLXNvdXJjZS1saW5lPSI5MSIgZGF0YS11aWQ9ImVudDAxMDgiIGlkPSJlbnRpdHlfQ3JlYXRlIEV4YW1zIj48ZWxsaXBzZSBjeD0iMTEzNS44ODc4IiBjeT0iMTg4Mi4xNjE5IiBmaWxsPSIjRjFGMUYxIiByeD0iNjMuODg3OCIgcnk9IjE1LjE3NzYiIHN0eWxlPSJzdHJva2U6IzE4MTgxODtzdHJva2Utd2lkdGg6MC41OyIvPjx0ZXh0IGZpbGw9IiMwMDAwMDAiIGZvbnQtZmFtaWx5PSJzYW5zLXNlcmlmIiBmb250LXNpemU9IjE0IiBsZW5ndGhBZGp1c3Q9InNwYWNpbmciIHRleHRMZW5ndGg9Ijg0IiB4PSIxMDkzLjg4NzgiIHk9IjE4ODUuOTA0MSI+Q3JlYXRlIEV4YW1zPC90ZXh0PjwvZz48ZyBjbGFzcz0iZW50aXR5IiBkYXRhLWVudGl0eT0iVXBkYXRlIEV4YW1zIiBkYXRhLXNvdXJjZS1saW5lPSI5MiIgZGF0YS11aWQ9ImVudDAxMTAiIGlkPSJlbnRpdHlfVXBkYXRlIEV4YW1zIj48ZWxsaXBzZSBjeD0iMTEzNS44ODc4IiBjeT0iMTgxNy4xNjE5IiBmaWxsPSIjRjFGMUYxIiByeD0iNjMuODg3OCIgcnk9IjE1LjE3NzYiIHN0eWxlPSJzdHJva2U6IzE4MTgxODtzdHJva2Utd2lkdGg6MC41OyIvPjx0ZXh0IGZpbGw9IiMwMDAwMDAiIGZvbnQtZmFtaWx5PSJzYW5zLXNlcmlmIiBmb250LXNpemU9IjE0IiBsZW5ndGhBZGp1c3Q9InNwYWNpbmciIHRleHRMZW5ndGg9Ijg0IiB4PSIxMDkzLjg4NzgiIHk9IjE4MjAuOTA0MSI+VXBkYXRlIEV4YW1zPC90ZXh0PjwvZz48ZyBjbGFzcz0iZW50aXR5IiBkYXRhLWVudGl0eT0iRGVsZXRlIEV4YW1zIiBkYXRhLXNvdXJjZS1saW5lPSI5MyIgZGF0YS11aWQ9ImVudDAxMTIiIGlkPSJlbnRpdHlfRGVsZXRlIEV4YW1zIj48ZWxsaXBzZSBjeD0iMTEzNS44ODc4IiBjeT0iMjAxOC4xNjE5IiBmaWxsPSIjRjFGMUYxIiByeD0iNjMuODg3OCIgcnk9IjE1LjE3NzYiIHN0eWxlPSJzdHJva2U6IzE4MTgxODtzdHJva2Utd2lkdGg6MC41OyIvPjx0ZXh0IGZpbGw9IiMwMDAwMDAiIGZvbnQtZmFtaWx5PSJzYW5zLXNlcmlmIiBmb250LXNpemU9IjE0IiBsZW5ndGhBZGp1c3Q9InNwYWNpbmciIHRleHRMZW5ndGg9Ijg0IiB4PSIxMDkzLjg4NzgiIHk9IjIwMjEuOTA0MSI+RGVsZXRlIEV4YW1zPC90ZXh0PjwvZz48ZyBjbGFzcz0iZW50aXR5IiBkYXRhLWVudGl0eT0iRWRpdCBFeGFtIFJlc3VsdHMiIGRhdGEtc291cmNlLWxpbmU9Ijk0IiBkYXRhLXVpZD0iZW50MDExNCIgaWQ9ImVudGl0eV9FZGl0IEV4YW0gUmVzdWx0cyI+PGVsbGlwc2UgY3g9IjExMzUuOTU1OCIgY3k9IjE5NTAuMDc1NSIgZmlsbD0iI0YxRjFGMSIgcng9Ijc4LjQ1NTgiIHJ5PSIxOC4wOTEyIiBzdHlsZT0ic3Ryb2tlOiMxODE4MTg7c3Ryb2tlLXdpZHRoOjAuNTsiLz48dGV4dCBmaWxsPSIjMDAwMDAwIiBmb250LWZhbWlseT0ic2Fucy1zZXJpZiIgZm9udC1zaXplPSIxNCIgbGVuZ3RoQWRqdXN0PSJzcGFjaW5nIiB0ZXh0TGVuZ3RoPSIxMTkiIHg9IjEwNzYuNDU1OCIgeT0iMTk1My44MTc3Ij5FZGl0IEV4YW0gUmVzdWx0czwvdGV4dD48L2c+PGcgY2xhc3M9ImVudGl0eSIgZGF0YS1lbnRpdHk9Ik5vdGlmeSBUZWFjaGVycyIgZGF0YS1zb3VyY2UtbGluZT0iMTAzIiBkYXRhLXVpZD0iZW50MDEyMiIgaWQ9ImVudGl0eV9Ob3RpZnkgVGVhY2hlcnMiPjxlbGxpcHNlIGN4PSIxNTE5LjQ2NjMiIGN5PSI1MTUuODc3NiIgZmlsbD0iI0YxRjFGMSIgcng9IjcyLjQ2NjMiIHJ5PSIxNi44OTMzIiBzdHlsZT0ic3Ryb2tlOiMxODE4MTg7c3Ryb2tlLXdpZHRoOjAuNTsiLz48dGV4dCBmaWxsPSIjMDAwMDAwIiBmb250LWZhbWlseT0ic2Fucy1zZXJpZiIgZm9udC1zaXplPSIxNCIgbGVuZ3RoQWRqdXN0PSJzcGFjaW5nIiB0ZXh0TGVuZ3RoPSIxMDUiIHg9IjE0NjYuOTY2MyIgeT0iNTE5LjYxOTgiPk5vdGlmeSBUZWFjaGVyczwvdGV4dD48L2c+PGcgY2xhc3M9ImVudGl0eSIgZGF0YS1lbnRpdHk9IlZpZXcgU3RhZmYgSW5mb3JtYXRpb24gIiBkYXRhLXNvdXJjZS1saW5lPSIxMDUiIGRhdGEtdWlkPSJlbnQwMTI0IiBpZD0iZW50aXR5X1ZpZXcgU3RhZmYgSW5mb3JtYXRpb24gIj48ZWxsaXBzZSBjeD0iNzU4Ljc2MzMiIGN5PSI2NzguODM3IiBmaWxsPSIjRjFGMUYxIiByeD0iOTcuMjYzMyIgcnk9IjIxLjg1MjciIHN0eWxlPSJzdHJva2U6IzE4MTgxODtzdHJva2Utd2lkdGg6MC41OyIvPjx0ZXh0IGZpbGw9IiMwMDAwMDAiIGZvbnQtZmFtaWx5PSJzYW5zLXNlcmlmIiBmb250LXNpemU9IjE0IiBsZW5ndGhBZGp1c3Q9InNwYWNpbmciIHRleHRMZW5ndGg9IjE1NCIgeD0iNjc4LjI2MzMiIHk9IjY4Mi41NzkyIj5WaWV3IFN0YWZmIEluZm9ybWF0aW9uPC90ZXh0PjwvZz48ZyBjbGFzcz0iZW50aXR5IiBkYXRhLWVudGl0eT0iQWRkIFN0YWZmIE1lbWJlcnMiIGRhdGEtc291cmNlLWxpbmU9IjEwNiIgZGF0YS11aWQ9ImVudDAxMjYiIGlkPSJlbnRpdHlfQWRkIFN0YWZmIE1lbWJlcnMiPjxlbGxpcHNlIGN4PSIxMTM1Ljk1NTgiIGN5PSI2NjMuMDc1NSIgZmlsbD0iI0YxRjFGMSIgcng9Ijc4LjQ1NTgiIHJ5PSIxOC4wOTEyIiBzdHlsZT0ic3Ryb2tlOiMxODE4MTg7c3Ryb2tlLXdpZHRoOjAuNTsiLz48dGV4dCBmaWxsPSIjMDAwMDAwIiBmb250LWZhbWlseT0ic2Fucy1zZXJpZiIgZm9udC1zaXplPSIxNCIgbGVuZ3RoQWRqdXN0PSJzcGFjaW5nIiB0ZXh0TGVuZ3RoPSIxMTkiIHg9IjEwNzYuNDU1OCIgeT0iNjY2LjgxNzciPkFkZCBTdGFmZiBNZW1iZXJzPC90ZXh0PjwvZz48ZyBjbGFzcz0iZW50aXR5IiBkYXRhLWVudGl0eT0iVXBkYXRlIFN0YWZmIE1lbWJlcnMiIGRhdGEtc291cmNlLWxpbmU9IjEwNyIgZGF0YS11aWQ9ImVudDAxMjgiIGlkPSJlbnRpdHlfVXBkYXRlIFN0YWZmIE1lbWJlcnMiPjxlbGxpcHNlIGN4PSIxMTM2LjIzMDkiIGN5PSI1ODkuOTMwNiIgZmlsbD0iI0YxRjFGMSIgcng9Ijg3LjczMDkiIHJ5PSIxOS45NDYyIiBzdHlsZT0ic3Ryb2tlOiMxODE4MTg7c3Ryb2tlLXdpZHRoOjAuNTsiLz48dGV4dCBmaWxsPSIjMDAwMDAwIiBmb250LWZhbWlseT0ic2Fucy1zZXJpZiIgZm9udC1zaXplPSIxNCIgbGVuZ3RoQWRqdXN0PSJzcGFjaW5nIiB0ZXh0TGVuZ3RoPSIxNDAiIHg9IjEwNjYuMjMwOSIgeT0iNTkzLjY3MjciPlVwZGF0ZSBTdGFmZiBNZW1iZXJzPC90ZXh0PjwvZz48ZyBjbGFzcz0iZW50aXR5IiBkYXRhLWVudGl0eT0iUmVtb3ZlIFN0YWZmIE1lbWJlcnMiIGRhdGEtc291cmNlLWxpbmU9IjEwOCIgZGF0YS11aWQ9ImVudDAxMzAiIGlkPSJlbnRpdHlfUmVtb3ZlIFN0YWZmIE1lbWJlcnMiPjxlbGxpcHNlIGN4PSIxMTM2LjIzMDkiIGN5PSI3MzUuOTMwNiIgZmlsbD0iI0YxRjFGMSIgcng9Ijg3LjczMDkiIHJ5PSIxOS45NDYyIiBzdHlsZT0ic3Ryb2tlOiMxODE4MTg7c3Ryb2tlLXdpZHRoOjAuNTsiLz48dGV4dCBmaWxsPSIjMDAwMDAwIiBmb250LWZhbWlseT0ic2Fucy1zZXJpZiIgZm9udC1zaXplPSIxNCIgbGVuZ3RoQWRqdXN0PSJzcGFjaW5nIiB0ZXh0TGVuZ3RoPSIxNDAiIHg9IjEwNjYuMjMwOSIgeT0iNzM5LjY3MjciPlJlbW92ZSBTdGFmZiBNZW1iZXJzPC90ZXh0PjwvZz48ZyBjbGFzcz0iZW50aXR5IiBkYXRhLWVudGl0eT0iVmlldyBTZWN0aW9uYWwgSW5mb3JtYXRpb24gIiBkYXRhLXNvdXJjZS1saW5lPSIxMTAiIGRhdGEtdWlkPSJlbnQwMTMyIiBpZD0iZW50aXR5X1ZpZXcgU2VjdGlvbmFsIEluZm9ybWF0aW9uICI+PGVsbGlwc2UgY3g9Ijc1OC43NTQ3IiBjeT0iNDgxLjkzNTMiIGZpbGw9IiNGMUYxRjEiIHJ4PSIxMTAuMjU0NyIgcnk9IjI0LjQ1MDkiIHN0eWxlPSJzdHJva2U6IzE4MTgxODtzdHJva2Utd2lkdGg6MC41OyIvPjx0ZXh0IGZpbGw9IiMwMDAwMDAiIGZvbnQtZmFtaWx5PSJzYW5zLXNlcmlmIiBmb250LXNpemU9IjE0IiBsZW5ndGhBZGp1c3Q9InNwYWNpbmciIHRleHRMZW5ndGg9IjE4MiIgeD0iNjY0LjI1NDciIHk9IjQ4NS42Nzc1Ij5WaWV3IFNlY3Rpb25hbCBJbmZvcm1hdGlvbjwvdGV4dD48L2c+PGcgY2xhc3M9ImVudGl0eSIgZGF0YS1lbnRpdHk9IkNyZWF0ZSBUaW1lIFRhYmxlcyIgZGF0YS1zb3VyY2UtbGluZT0iMTExIiBkYXRhLXVpZD0iZW50MDEzNCIgaWQ9ImVudGl0eV9DcmVhdGUgVGltZSBUYWJsZXMiPjxlbGxpcHNlIGN4PSIxMTM2LjAxMzIiIGN5PSIzNzIuMTg3IiBmaWxsPSIjRjFGMUYxIiByeD0iODEuNTEzMiIgcnk9IjE4LjcwMjYiIHN0eWxlPSJzdHJva2U6IzE4MTgxODtzdHJva2Utd2lkdGg6MC41OyIvPjx0ZXh0IGZpbGw9IiMwMDAwMDAiIGZvbnQtZmFtaWx5PSJzYW5zLXNlcmlmIiBmb250LXNpemU9IjE0IiBsZW5ndGhBZGp1c3Q9InNwYWNpbmciIHRleHRMZW5ndGg9IjEyNiIgeD0iMTA3My4wMTMyIiB5PSIzNzUuOTI5MiI+Q3JlYXRlIFRpbWUgVGFibGVzPC90ZXh0PjwvZz48ZyBjbGFzcz0iZW50aXR5IiBkYXRhLWVudGl0eT0iVXBkYXRlIFRpbWUgVGFibGVzIiBkYXRhLXNvdXJjZS1saW5lPSIxMTIiIGRhdGEtdWlkPSJlbnQwMTM2IiBpZD0iZW50aXR5X1VwZGF0ZSBUaW1lIFRhYmxlcyI+PGVsbGlwc2UgY3g9IjExMzYuMDEzMiIgY3k9IjUxNi4xODciIGZpbGw9IiNGMUYxRjEiIHJ4PSI4MS41MTMyIiByeT0iMTguNzAyNiIgc3R5bGU9InN0cm9rZTojMTgxODE4O3N0cm9rZS13aWR0aDowLjU7Ii8+PHRleHQgZmlsbD0iIzAwMDAwMCIgZm9udC1mYW1pbHk9InNhbnMtc2VyaWYiIGZvbnQtc2l6ZT0iMTQiIGxlbmd0aEFkanVzdD0ic3BhY2luZyIgdGV4dExlbmd0aD0iMTI2IiB4PSIxMDczLjAxMzIiIHk9IjUxOS45MjkyIj5VcGRhdGUgVGltZSBUYWJsZXM8L3RleHQ+PC9nPjxnIGNsYXNzPSJlbnRpdHkiIGRhdGEtZW50aXR5PSJEZWxldGUgVGltZSBUYWJsZXMiIGRhdGEtc291cmNlLWxpbmU9IjExMyIgZGF0YS11aWQ9ImVudDAxMzgiIGlkPSJlbnRpdHlfRGVsZXRlIFRpbWUgVGFibGVzIj48ZWxsaXBzZSBjeD0iMTEzNi4wMTMyIiBjeT0iNDQ0LjE4NyIgZmlsbD0iI0YxRjFGMSIgcng9IjgxLjUxMzIiIHJ5PSIxOC43MDI2IiBzdHlsZT0ic3Ryb2tlOiMxODE4MTg7c3Ryb2tlLXdpZHRoOjAuNTsiLz48dGV4dCBmaWxsPSIjMDAwMDAwIiBmb250LWZhbWlseT0ic2Fucy1zZXJpZiIgZm9udC1zaXplPSIxNCIgbGVuZ3RoQWRqdXN0PSJzcGFjaW5nIiB0ZXh0TGVuZ3RoPSIxMjYiIHg9IjEwNzMuMDEzMiIgeT0iNDQ3LjkyOTIiPkRlbGV0ZSBUaW1lIFRhYmxlczwvdGV4dD48L2c+PGcgY2xhc3M9ImVudGl0eSIgZGF0YS1lbnRpdHk9Ik5vdGlmeSBTZWN0aW9uYWwgSGVhZHMiIGRhdGEtc291cmNlLWxpbmU9IjExNSIgZGF0YS11aWQ9ImVudDAxNDAiIGlkPSJlbnRpdHlfTm90aWZ5IFNlY3Rpb25hbCBIZWFkcyI+PGVsbGlwc2UgY3g9IjE1MTkuNTYyMiIgY3k9Ijg3MC4xOTY4IiBmaWxsPSIjRjFGMUYxIiByeD0iOTQuMDYyMiIgcnk9IjIxLjIxMjQiIHN0eWxlPSJzdHJva2U6IzE4MTgxODtzdHJva2Utd2lkdGg6MC41OyIvPjx0ZXh0IGZpbGw9IiMwMDAwMDAiIGZvbnQtZmFtaWx5PSJzYW5zLXNlcmlmIiBmb250LXNpemU9IjE0IiBsZW5ndGhBZGp1c3Q9InNwYWNpbmciIHRleHRMZW5ndGg9IjE1NCIgeD0iMTQ0Mi41NjIyIiB5PSI4NzMuOTM5Ij5Ob3RpZnkgU2VjdGlvbmFsIEhlYWRzPC90ZXh0PjwvZz48ZyBjbGFzcz0iZW50aXR5IiBkYXRhLWVudGl0eT0iQnJvYWRjYXN0IEFubm91bmNlbWVudHMiIGRhdGEtc291cmNlLWxpbmU9IjEyNCIgZGF0YS11aWQ9ImVudDAxNDgiIGlkPSJlbnRpdHlfQnJvYWRjYXN0IEFubm91bmNlbWVudHMiPjxlbGxpcHNlIGN4PSI3NTguNzYzMyIgY3k9IjgwNS44MzciIGZpbGw9IiNGMUYxRjEiIHJ4PSI5Ny4yNjMzIiByeT0iMjEuODUyNyIgc3R5bGU9InN0cm9rZTojMTgxODE4O3N0cm9rZS13aWR0aDowLjU7Ii8+PHRleHQgZmlsbD0iIzAwMDAwMCIgZm9udC1mYW1pbHk9InNhbnMtc2VyaWYiIGZvbnQtc2l6ZT0iMTQiIGxlbmd0aEFkanVzdD0ic3BhY2luZyIgdGV4dExlbmd0aD0iMTYxIiB4PSI2NzguMjYzMyIgeT0iODA5LjU3OTIiPkJyb2FkY2FzdCBBbm5vdW5jZW1lbnRzPC90ZXh0PjwvZz48ZyBjbGFzcz0iZW50aXR5IiBkYXRhLWVudGl0eT0iU2VsZWN0IFVzZXJzIiBkYXRhLXNvdXJjZS1saW5lPSIxMjUiIGRhdGEtdWlkPSJlbnQwMTUwIiBpZD0iZW50aXR5X1NlbGVjdCBVc2VycyI+PGVsbGlwc2UgY3g9IjExMzUuODg3OCIgY3k9IjgwNi4xNjE5IiBmaWxsPSIjRjFGMUYxIiByeD0iNjMuODg3OCIgcnk9IjE1LjE3NzYiIHN0eWxlPSJzdHJva2U6IzE4MTgxODtzdHJva2Utd2lkdGg6MC41OyIvPjx0ZXh0IGZpbGw9IiMwMDAwMDAiIGZvbnQtZmFtaWx5PSJzYW5zLXNlcmlmIiBmb250LXNpemU9IjE0IiBsZW5ndGhBZGp1c3Q9InNwYWNpbmciIHRleHRMZW5ndGg9Ijg0IiB4PSIxMDkzLjg4NzgiIHk9IjgwOS45MDQxIj5TZWxlY3QgVXNlcnM8L3RleHQ+PC9nPjxnIGNsYXNzPSJlbnRpdHkiIGRhdGEtZW50aXR5PSJOb3RpZnkgUHJpbmNpcGFscyIgZGF0YS1zb3VyY2UtbGluZT0iMTMwIiBkYXRhLXVpZD0iZW50MDE1NCIgaWQ9ImVudGl0eV9Ob3RpZnkgUHJpbmNpcGFscyI+PGVsbGlwc2UgY3g9IjE1MTkuNDU1OCIgY3k9IjEwNzIuMDc1NSIgZmlsbD0iI0YxRjFGMSIgcng9Ijc4LjQ1NTgiIHJ5PSIxOC4wOTEyIiBzdHlsZT0ic3Ryb2tlOiMxODE4MTg7c3Ryb2tlLXdpZHRoOjAuNTsiLz48dGV4dCBmaWxsPSIjMDAwMDAwIiBmb250LWZhbWlseT0ic2Fucy1zZXJpZiIgZm9udC1zaXplPSIxNCIgbGVuZ3RoQWRqdXN0PSJzcGFjaW5nIiB0ZXh0TGVuZ3RoPSIxMTkiIHg9IjE0NTkuOTU1OCIgeT0iMTA3NS44MTc3Ij5Ob3RpZnkgUHJpbmNpcGFsczwvdGV4dD48L2c+PGcgY2xhc3M9ImVudGl0eSIgZGF0YS1lbnRpdHk9IlZpZXcgVXNlciBJbmZvcm1hdGlvbiAiIGRhdGEtc291cmNlLWxpbmU9IjEzMiIgZGF0YS11aWQ9ImVudDAxNTYiIGlkPSJlbnRpdHlfVmlldyBVc2VyIEluZm9ybWF0aW9uICI+PGVsbGlwc2UgY3g9Ijc1OS4wNjIyIiBjeT0iMTM2My4xOTY4IiBmaWxsPSIjRjFGMUYxIiByeD0iOTQuMDYyMiIgcnk9IjIxLjIxMjQiIHN0eWxlPSJzdHJva2U6IzE4MTgxODtzdHJva2Utd2lkdGg6MC41OyIvPjx0ZXh0IGZpbGw9IiMwMDAwMDAiIGZvbnQtZmFtaWx5PSJzYW5zLXNlcmlmIiBmb250LXNpemU9IjE0IiBsZW5ndGhBZGp1c3Q9InNwYWNpbmciIHRleHRMZW5ndGg9IjE0NyIgeD0iNjgyLjA2MjIiIHk9IjEzNjYuOTM5Ij5WaWV3IFVzZXIgSW5mb3JtYXRpb248L3RleHQ+PC9nPjxnIGNsYXNzPSJlbnRpdHkiIGRhdGEtZW50aXR5PSJBZGQgVXNlciIgZGF0YS1zb3VyY2UtbGluZT0iMTMzIiBkYXRhLXVpZD0iZW50MDE1OCIgaWQ9ImVudGl0eV9BZGQgVXNlciI+PGVsbGlwc2UgY3g9IjExMzYuMDgzMyIgY3k9IjEzMzEuMDc5OSIgZmlsbD0iI0YxRjFGMSIgcng9IjUxLjA4MzMiIHJ5PSIxMy41OTU2IiBzdHlsZT0ic3Ryb2tlOiMxODE4MTg7c3Ryb2tlLXdpZHRoOjAuNTsiLz48dGV4dCBmaWxsPSIjMDAwMDAwIiBmb250LWZhbWlseT0ic2Fucy1zZXJpZiIgZm9udC1zaXplPSIxNCIgbGVuZ3RoQWRqdXN0PSJzcGFjaW5nIiB0ZXh0TGVuZ3RoPSI1NiIgeD0iMTEwOC4wODMzIiB5PSIxMzM0LjgyMjEiPkFkZCBVc2VyPC90ZXh0PjwvZz48ZyBjbGFzcz0iZW50aXR5IiBkYXRhLWVudGl0eT0iVXBkYXRlIFVzZXIiIGRhdGEtc291cmNlLWxpbmU9IjEzNCIgZGF0YS11aWQ9ImVudDAxNjAiIGlkPSJlbnRpdHlfVXBkYXRlIFVzZXIiPjxlbGxpcHNlIGN4PSIxMTM2LjE2ODUiIGN5PSIxNDU4LjExODEiIGZpbGw9IiNGMUYxRjEiIHJ4PSI2MS4xNjg1IiByeT0iMTQuNjMzNyIgc3R5bGU9InN0cm9rZTojMTgxODE4O3N0cm9rZS13aWR0aDowLjU7Ii8+PHRleHQgZmlsbD0iIzAwMDAwMCIgZm9udC1mYW1pbHk9InNhbnMtc2VyaWYiIGZvbnQtc2l6ZT0iMTQiIGxlbmd0aEFkanVzdD0ic3BhY2luZyIgdGV4dExlbmd0aD0iNzciIHg9IjEwOTcuNjY4NSIgeT0iMTQ2MS44NjAzIj5VcGRhdGUgVXNlcjwvdGV4dD48L2c+PGcgY2xhc3M9ImVudGl0eSIgZGF0YS1lbnRpdHk9IkRlbGV0ZSBVc2VyIiBkYXRhLXNvdXJjZS1saW5lPSIxMzUiIGRhdGEtdWlkPSJlbnQwMTYyIiBpZD0iZW50aXR5X0RlbGV0ZSBVc2VyIj48ZWxsaXBzZSBjeD0iMTEzNi4xNjg1IiBjeT0iMTM5NC4xMTgxIiBmaWxsPSIjRjFGMUYxIiByeD0iNjEuMTY4NSIgcnk9IjE0LjYzMzciIHN0eWxlPSJzdHJva2U6IzE4MTgxODtzdHJva2Utd2lkdGg6MC41OyIvPjx0ZXh0IGZpbGw9IiMwMDAwMDAiIGZvbnQtZmFtaWx5PSJzYW5zLXNlcmlmIiBmb250LXNpemU9IjE0IiBsZW5ndGhBZGp1c3Q9InNwYWNpbmciIHRleHRMZW5ndGg9Ijc3IiB4PSIxMDk3LjY2ODUiIHk9IjEzOTcuODYwMyI+RGVsZXRlIFVzZXI8L3RleHQ+PC9nPjxnIGNsYXNzPSJlbnRpdHkiIGRhdGEtZW50aXR5PSJVcGRhdGUgVXNlciBMb2dzIiBkYXRhLXNvdXJjZS1saW5lPSIxMzciIGRhdGEtdWlkPSJlbnQwMTY0IiBpZD0iZW50aXR5X1VwZGF0ZSBVc2VyIExvZ3MiPjxlbGxpcHNlIGN4PSIxNTE5LjQzODQiIGN5PSIxMzkzLjk3MjEiIGZpbGw9IiNGMUYxRjEiIHJ4PSI3NS40Mzg0IiByeT0iMTcuNDg3NyIgc3R5bGU9InN0cm9rZTojMTgxODE4O3N0cm9rZS13aWR0aDowLjU7Ii8+PHRleHQgZmlsbD0iIzAwMDAwMCIgZm9udC1mYW1pbHk9InNhbnMtc2VyaWYiIGZvbnQtc2l6ZT0iMTQiIGxlbmd0aEFkanVzdD0ic3BhY2luZyIgdGV4dExlbmd0aD0iMTEyIiB4PSIxNDYzLjQzODQiIHk9IjEzOTcuNzE0MiI+VXBkYXRlIFVzZXIgTG9nczwvdGV4dD48L2c+PGcgY2xhc3M9ImVudGl0eSIgZGF0YS1lbnRpdHk9IlZpZXcgU3lzdGVtIE1vbml0b3IiIGRhdGEtc291cmNlLWxpbmU9IjE0MSIgZGF0YS11aWQ9ImVudDAxNjgiIGlkPSJlbnRpdHlfVmlldyBTeXN0ZW0gTW9uaXRvciI+PGVsbGlwc2UgY3g9Ijc1OS4xMDYyIiBjeT0iMTA3MS44MDU2IiBmaWxsPSIjRjFGMUYxIiByeD0iODQuNjA2MiIgcnk9IjE5LjMyMTIiIHN0eWxlPSJzdHJva2U6IzE4MTgxODtzdHJva2Utd2lkdGg6MC41OyIvPjx0ZXh0IGZpbGw9IiMwMDAwMDAiIGZvbnQtZmFtaWx5PSJzYW5zLXNlcmlmIiBmb250LXNpemU9IjE0IiBsZW5ndGhBZGp1c3Q9InNwYWNpbmciIHRleHRMZW5ndGg9IjEzMyIgeD0iNjkyLjYwNjIiIHk9IjEwNzUuNTQ3OCI+VmlldyBTeXN0ZW0gTW9uaXRvcjwvdGV4dD48L2c+PGcgY2xhc3M9ImVudGl0eSIgZGF0YS1lbnRpdHk9IkdlbmVyYXRlIFVzZXIgRW5nYWdlbWVudCBSZXBvcnRzIiBkYXRhLXNvdXJjZS1saW5lPSIxNDIiIGRhdGEtdWlkPSJlbnQwMTcwIiBpZD0iZW50aXR5X0dlbmVyYXRlIFVzZXIgRW5nYWdlbWVudCBSZXBvcnRzIj48ZWxsaXBzZSBjeD0iMTEzNS44MDM2IiBjeT0iODgzLjc0NTEiIGZpbGw9IiNGMUYxRjEiIHJ4PSIxMjYuODAzNiIgcnk9IjI3Ljc2MDciIHN0eWxlPSJzdHJva2U6IzE4MTgxODtzdHJva2Utd2lkdGg6MC41OyIvPjx0ZXh0IGZpbGw9IiMwMDAwMDAiIGZvbnQtZmFtaWx5PSJzYW5zLXNlcmlmIiBmb250LXNpemU9IjE0IiBsZW5ndGhBZGp1c3Q9InNwYWNpbmciIHRleHRMZW5ndGg9IjIyNCIgeD0iMTAyMy44MDM2IiB5PSI4ODcuNDg3MyI+R2VuZXJhdGUgVXNlciBFbmdhZ2VtZW50IFJlcG9ydHM8L3RleHQ+PC9nPjxnIGNsYXNzPSJlbnRpdHkiIGRhdGEtZW50aXR5PSJHZW5lcmF0ZSBQZXJmb3JtYW5jZSBSZXBvcnRzIiBkYXRhLXNvdXJjZS1saW5lPSIxNDMiIGRhdGEtdWlkPSJlbnQwMTcyIiBpZD0iZW50aXR5X0dlbmVyYXRlIFBlcmZvcm1hbmNlIFJlcG9ydHMiPjxlbGxpcHNlIGN4PSIxMTM2LjA0MSIgY3k9IjEyNTcuMDkyNiIgZmlsbD0iI0YxRjFGMSIgcng9IjExMy41NDEiIHJ5PSIyNS4xMDgyIiBzdHlsZT0ic3Ryb2tlOiMxODE4MTg7c3Ryb2tlLXdpZHRoOjAuNTsiLz48dGV4dCBmaWxsPSIjMDAwMDAwIiBmb250LWZhbWlseT0ic2Fucy1zZXJpZiIgZm9udC1zaXplPSIxNCIgbGVuZ3RoQWRqdXN0PSJzcGFjaW5nIiB0ZXh0TGVuZ3RoPSIxOTYiIHg9IjEwMzguMDQxIiB5PSIxMjYwLjgzNDgiPkdlbmVyYXRlIFBlcmZvcm1hbmNlIFJlcG9ydHM8L3RleHQ+PC9nPjxnIGNsYXNzPSJlbnRpdHkiIGRhdGEtZW50aXR5PSJHZW5lcmF0ZSBTeXN0ZW0gVXRpbGl6YXRpb24gUmVwb3J0cyIgZGF0YS1zb3VyY2UtbGluZT0iMTQ0IiBkYXRhLXVpZD0iZW50MDE3NCIgaWQ9ImVudGl0eV9HZW5lcmF0ZSBTeXN0ZW0gVXRpbGl6YXRpb24gUmVwb3J0cyI+PGVsbGlwc2UgY3g9IjExMzUuODQ5MSIgY3k9IjExNjYuNzU0MiIgZmlsbD0iI0YxRjFGMSIgcng9IjEzNi44NDkxIiByeT0iMjkuNzY5OCIgc3R5bGU9InN0cm9rZTojMTgxODE4O3N0cm9rZS13aWR0aDowLjU7Ii8+PHRleHQgZmlsbD0iIzAwMDAwMCIgZm9udC1mYW1pbHk9InNhbnMtc2VyaWYiIGZvbnQtc2l6ZT0iMTQiIGxlbmd0aEFkanVzdD0ic3BhY2luZyIgdGV4dExlbmd0aD0iMjQ1IiB4PSIxMDEzLjM0OTEiIHk9IjExNzAuNDk2NCI+R2VuZXJhdGUgU3lzdGVtIFV0aWxpemF0aW9uIFJlcG9ydHM8L3RleHQ+PC9nPjxnIGNsYXNzPSJlbnRpdHkiIGRhdGEtZW50aXR5PSJHZW5lcmF0ZSBDb250ZW50IFBvcHVsYXJpdHkgUmVwb3J0cyIgZGF0YS1zb3VyY2UtbGluZT0iMTQ1IiBkYXRhLXVpZD0iZW50MDE3NiIgaWQ9ImVudGl0eV9HZW5lcmF0ZSBDb250ZW50IFBvcHVsYXJpdHkgUmVwb3J0cyI+PGVsbGlwc2UgY3g9IjExMzUuODQ5MSIgY3k9IjEwNzEuNzU0MiIgZmlsbD0iI0YxRjFGMSIgcng9IjEzNi44NDkxIiByeT0iMjkuNzY5OCIgc3R5bGU9InN0cm9rZTojMTgxODE4O3N0cm9rZS13aWR0aDowLjU7Ii8+PHRleHQgZmlsbD0iIzAwMDAwMCIgZm9udC1mYW1pbHk9InNhbnMtc2VyaWYiIGZvbnQtc2l6ZT0iMTQiIGxlbmd0aEFkanVzdD0ic3BhY2luZyIgdGV4dExlbmd0aD0iMjQ1IiB4PSIxMDEzLjM0OTEiIHk9IjEwNzUuNDk2NCI+R2VuZXJhdGUgQ29udGVudCBQb3B1bGFyaXR5IFJlcG9ydHM8L3RleHQ+PC9nPjxnIGNsYXNzPSJlbnRpdHkiIGRhdGEtZW50aXR5PSJHZW5lcmF0ZSBNb250aGx5IEF0dGVuZGFuY2UgUmVwb3J0cyIgZGF0YS1zb3VyY2UtbGluZT0iMTQ2IiBkYXRhLXVpZD0iZW50MDE3OCIgaWQ9ImVudGl0eV9HZW5lcmF0ZSBNb250aGx5IEF0dGVuZGFuY2UgUmVwb3J0cyI+PGVsbGlwc2UgY3g9IjExMzUuODQ5MSIgY3k9Ijk3Ni43NTQyIiBmaWxsPSIjRjFGMUYxIiByeD0iMTM2Ljg0OTEiIHJ5PSIyOS43Njk4IiBzdHlsZT0ic3Ryb2tlOiMxODE4MTg7c3Ryb2tlLXdpZHRoOjAuNTsiLz48dGV4dCBmaWxsPSIjMDAwMDAwIiBmb250LWZhbWlseT0ic2Fucy1zZXJpZiIgZm9udC1zaXplPSIxNCIgbGVuZ3RoQWRqdXN0PSJzcGFjaW5nIiB0ZXh0TGVuZ3RoPSIyNDUiIHg9IjEwMTMuMzQ5MSIgeT0iOTgwLjQ5NjQiPkdlbmVyYXRlIE1vbnRobHkgQXR0ZW5kYW5jZSBSZXBvcnRzPC90ZXh0PjwvZz48IS0tZW50aXR5IFUtLT48ZyBjbGFzcz0iZW50aXR5IiBkYXRhLWVudGl0eT0iVSIgZGF0YS1zb3VyY2UtbGluZT0iNiIgZGF0YS11aWQ9ImVudDAwMDIiIGlkPSJlbnRpdHlfVSI+PGVsbGlwc2UgY3g9IjIwIiBjeT0iMjU1OC45ODQ0IiBmaWxsPSIjRjFGMUYxIiByeD0iOCIgcnk9IjgiIHN0eWxlPSJzdHJva2U6IzE4MTgxODtzdHJva2Utd2lkdGg6MC41OyIvPjxwYXRoIGQ9Ik0yMCwyNTY2Ljk4NDQgTDIwLDI1OTMuOTg0NCBNNywyNTc0Ljk4NDQgTDMzLDI1NzQuOTg0NCBNMjAsMjU5My45ODQ0IEw3LDI2MDguOTg0NCBNMjAsMjU5My45ODQ0IEwzMywyNjA4Ljk4NDQiIGZpbGw9Im5vbmUiIHN0eWxlPSJzdHJva2U6IzE4MTgxODtzdHJva2Utd2lkdGg6MC41OyIvPjx0ZXh0IGZpbGw9IiMwMDAwMDAiIGZvbnQtZmFtaWx5PSJzYW5zLXNlcmlmIiBmb250LXNpemU9IjE0IiBsZW5ndGhBZGp1c3Q9InNwYWNpbmciIHRleHRMZW5ndGg9IjI4IiB4PSI2IiB5PSIyNjIzLjcxODgiPlVzZXI8L3RleHQ+PC9nPjwhLS1lbnRpdHkgVVItLT48ZyBjbGFzcz0iZW50aXR5IiBkYXRhLWVudGl0eT0iVVIiIGRhdGEtc291cmNlLWxpbmU9IjciIGRhdGEtdWlkPSJlbnQwMDAzIiBpZD0iZW50aXR5X1VSIj48ZWxsaXBzZSBjeD0iMTc1NSIgY3k9Ijc0MC45ODQ0IiBmaWxsPSIjRjFGMUYxIiByeD0iOCIgcnk9IjgiIHN0eWxlPSJzdHJva2U6IzE4MTgxODtzdHJva2Utd2lkdGg6MC41OyIvPjxwYXRoIGQ9Ik0xNzU1LDc0OC45ODQ0IEwxNzU1LDc3NS45ODQ0IE0xNzQyLDc1Ni45ODQ0IEwxNzY4LDc1Ni45ODQ0IE0xNzU1LDc3NS45ODQ0IEwxNzQyLDc5MC45ODQ0IE0xNzU1LDc3NS45ODQ0IEwxNzY4LDc5MC45ODQ0IiBmaWxsPSJub25lIiBzdHlsZT0ic3Ryb2tlOiMxODE4MTg7c3Ryb2tlLXdpZHRoOjAuNTsiLz48dGV4dCBmaWxsPSIjMDAwMDAwIiBmb250LWZhbWlseT0ic2Fucy1zZXJpZiIgZm9udC1zaXplPSIxNCIgbGVuZ3RoQWRqdXN0PSJzcGFjaW5nIiB0ZXh0TGVuZ3RoPSIyOCIgeD0iMTc0MSIgeT0iODA1LjcxODgiPlVzZXI8L3RleHQ+PC9nPjwhLS1lbnRpdHkgUy0tPjxnIGNsYXNzPSJlbnRpdHkiIGRhdGEtZW50aXR5PSJTIiBkYXRhLXNvdXJjZS1saW5lPSI4IiBkYXRhLXVpZD0iZW50MDAwNCIgaWQ9ImVudGl0eV9TIj48ZWxsaXBzZSBjeD0iNTMzLjUiIGN5PSIyNDguOTg0NCIgZmlsbD0iI0YxRjFGMSIgcng9IjgiIHJ5PSI4IiBzdHlsZT0ic3Ryb2tlOiMxODE4MTg7c3Ryb2tlLXdpZHRoOjAuNTsiLz48cGF0aCBkPSJNNTMzLjUsMjU2Ljk4NDQgTDUzMy41LDI4My45ODQ0IE01MjAuNSwyNjQuOTg0NCBMNTQ2LjUsMjY0Ljk4NDQgTTUzMy41LDI4My45ODQ0IEw1MjAuNSwyOTguOTg0NCBNNTMzLjUsMjgzLjk4NDQgTDU0Ni41LDI5OC45ODQ0IiBmaWxsPSJub25lIiBzdHlsZT0ic3Ryb2tlOiMxODE4MTg7c3Ryb2tlLXdpZHRoOjAuNTsiLz48dGV4dCBmaWxsPSIjMDAwMDAwIiBmb250LWZhbWlseT0ic2Fucy1zZXJpZiIgZm9udC1zaXplPSIxNCIgbGVuZ3RoQWRqdXN0PSJzcGFjaW5nIiB0ZXh0TGVuZ3RoPSI0OSIgeD0iNTA5IiB5PSIzMTMuNzE4OCI+U3R1ZGVudDwvdGV4dD48L2c+PCEtLWVudGl0eSBTUi0tPjxnIGNsYXNzPSJlbnRpdHkiIGRhdGEtZW50aXR5PSJTUiIgZGF0YS1zb3VyY2UtbGluZT0iOSIgZGF0YS11aWQ9ImVudDAwMDUiIGlkPSJlbnRpdHlfU1IiPjxlbGxpcHNlIGN4PSIxNzU1IiBjeT0iMTg4Ni45ODQ0IiBmaWxsPSIjRjFGMUYxIiByeD0iOCIgcnk9IjgiIHN0eWxlPSJzdHJva2U6IzE4MTgxODtzdHJva2Utd2lkdGg6MC41OyIvPjxwYXRoIGQ9Ik0xNzU1LDE4OTQuOTg0NCBMMTc1NSwxOTIxLjk4NDQgTTE3NDIsMTkwMi45ODQ0IEwxNzY4LDE5MDIuOTg0NCBNMTc1NSwxOTIxLjk4NDQgTDE3NDIsMTkzNi45ODQ0IE0xNzU1LDE5MjEuOTg0NCBMMTc2OCwxOTM2Ljk4NDQiIGZpbGw9Im5vbmUiIHN0eWxlPSJzdHJva2U6IzE4MTgxODtzdHJva2Utd2lkdGg6MC41OyIvPjx0ZXh0IGZpbGw9IiMwMDAwMDAiIGZvbnQtZmFtaWx5PSJzYW5zLXNlcmlmIiBmb250LXNpemU9IjE0IiBsZW5ndGhBZGp1c3Q9InNwYWNpbmciIHRleHRMZW5ndGg9IjQ5IiB4PSIxNzMwLjUiIHk9IjE5NTEuNzE4OCI+U3R1ZGVudDwvdGV4dD48L2c+PCEtLWVudGl0eSBULS0+PGcgY2xhc3M9ImVudGl0eSIgZGF0YS1lbnRpdHk9IlQiIGRhdGEtc291cmNlLWxpbmU9IjEwIiBkYXRhLXVpZD0iZW50MDAwNiIgaWQ9ImVudGl0eV9UIj48ZWxsaXBzZSBjeD0iMTE5LjUiIGN5PSIxNzk5Ljk4NDQiIGZpbGw9IiNGMUYxRjEiIHJ4PSI4IiByeT0iOCIgc3R5bGU9InN0cm9rZTojMTgxODE4O3N0cm9rZS13aWR0aDowLjU7Ii8+PHBhdGggZD0iTTExOS41LDE4MDcuOTg0NCBMMTE5LjUsMTgzNC45ODQ0IE0xMDYuNSwxODE1Ljk4NDQgTDEzMi41LDE4MTUuOTg0NCBNMTE5LjUsMTgzNC45ODQ0IEwxMDYuNSwxODQ5Ljk4NDQgTTExOS41LDE4MzQuOTg0NCBMMTMyLjUsMTg0OS45ODQ0IiBmaWxsPSJub25lIiBzdHlsZT0ic3Ryb2tlOiMxODE4MTg7c3Ryb2tlLXdpZHRoOjAuNTsiLz48dGV4dCBmaWxsPSIjMDAwMDAwIiBmb250LWZhbWlseT0ic2Fucy1zZXJpZiIgZm9udC1zaXplPSIxNCIgbGVuZ3RoQWRqdXN0PSJzcGFjaW5nIiB0ZXh0TGVuZ3RoPSI0OSIgeD0iOTUiIHk9IjE4NjQuNzE4OCI+VGVhY2hlcjwvdGV4dD48L2c+PCEtLWVudGl0eSBUUi0tPjxnIGNsYXNzPSJlbnRpdHkiIGRhdGEtZW50aXR5PSJUUiIgZGF0YS1zb3VyY2UtbGluZT0iMTEiIGRhdGEtdWlkPSJlbnQwMDA3IiBpZD0iZW50aXR5X1RSIj48ZWxsaXBzZSBjeD0iMTc1NSIgY3k9IjI5OS45ODQ0IiBmaWxsPSIjRjFGMUYxIiByeD0iOCIgcnk9IjgiIHN0eWxlPSJzdHJva2U6IzE4MTgxODtzdHJva2Utd2lkdGg6MC41OyIvPjxwYXRoIGQ9Ik0xNzU1LDMwNy45ODQ0IEwxNzU1LDMzNC45ODQ0IE0xNzQyLDMxNS45ODQ0IEwxNzY4LDMxNS45ODQ0IE0xNzU1LDMzNC45ODQ0IEwxNzQyLDM0OS45ODQ0IE0xNzU1LDMzNC45ODQ0IEwxNzY4LDM0OS45ODQ0IiBmaWxsPSJub25lIiBzdHlsZT0ic3Ryb2tlOiMxODE4MTg7c3Ryb2tlLXdpZHRoOjAuNTsiLz48dGV4dCBmaWxsPSIjMDAwMDAwIiBmb250LWZhbWlseT0ic2Fucy1zZXJpZiIgZm9udC1zaXplPSIxNCIgbGVuZ3RoQWRqdXN0PSJzcGFjaW5nIiB0ZXh0TGVuZ3RoPSI0OSIgeD0iMTczMC41IiB5PSIzNjQuNzE4OCI+VGVhY2hlcjwvdGV4dD48L2c+PCEtLWVudGl0eSBTSC0tPjxnIGNsYXNzPSJlbnRpdHkiIGRhdGEtZW50aXR5PSJTSCIgZGF0YS1zb3VyY2UtbGluZT0iMTIiIGRhdGEtdWlkPSJlbnQwMDA4IiBpZD0iZW50aXR5X1NIIj48ZWxsaXBzZSBjeD0iMjU0IiBjeT0iNzI0Ljk4NDQiIGZpbGw9IiNGMUYxRjEiIHJ4PSI4IiByeT0iOCIgc3R5bGU9InN0cm9rZTojMTgxODE4O3N0cm9rZS13aWR0aDowLjU7Ii8+PHBhdGggZD0iTTI1NCw3MzIuOTg0NCBMMjU0LDc1OS45ODQ0IE0yNDEsNzQwLjk4NDQgTDI2Nyw3NDAuOTg0NCBNMjU0LDc1OS45ODQ0IEwyNDEsNzc0Ljk4NDQgTTI1NCw3NTkuOTg0NCBMMjY3LDc3NC45ODQ0IiBmaWxsPSJub25lIiBzdHlsZT0ic3Ryb2tlOiMxODE4MTg7c3Ryb2tlLXdpZHRoOjAuNTsiLz48dGV4dCBmaWxsPSIjMDAwMDAwIiBmb250LWZhbWlseT0ic2Fucy1zZXJpZiIgZm9udC1zaXplPSIxNCIgbGVuZ3RoQWRqdXN0PSJzcGFjaW5nIiB0ZXh0TGVuZ3RoPSI5OCIgeD0iMjA1IiB5PSI3ODkuNzE4OCI+U2VjdGlvbmFsIEhlYWQ8L3RleHQ+PC9nPjwhLS1lbnRpdHkgU0hSLS0+PGcgY2xhc3M9ImVudGl0eSIgZGF0YS1lbnRpdHk9IlNIUiIgZGF0YS1zb3VyY2UtbGluZT0iMTMiIGRhdGEtdWlkPSJlbnQwMDA5IiBpZD0iZW50aXR5X1NIUiI+PGVsbGlwc2UgY3g9IjE3NTUiIGN5PSI4NTAuOTg0NCIgZmlsbD0iI0YxRjFGMSIgcng9IjgiIHJ5PSI4IiBzdHlsZT0ic3Ryb2tlOiMxODE4MTg7c3Ryb2tlLXdpZHRoOjAuNTsiLz48cGF0aCBkPSJNMTc1NSw4NTguOTg0NCBMMTc1NSw4ODUuOTg0NCBNMTc0Miw4NjYuOTg0NCBMMTc2OCw4NjYuOTg0NCBNMTc1NSw4ODUuOTg0NCBMMTc0Miw5MDAuOTg0NCBNMTc1NSw4ODUuOTg0NCBMMTc2OCw5MDAuOTg0NCIgZmlsbD0ibm9uZSIgc3R5bGU9InN0cm9rZTojMTgxODE4O3N0cm9rZS13aWR0aDowLjU7Ii8+PHRleHQgZmlsbD0iIzAwMDAwMCIgZm9udC1mYW1pbHk9InNhbnMtc2VyaWYiIGZvbnQtc2l6ZT0iMTQiIGxlbmd0aEFkanVzdD0ic3BhY2luZyIgdGV4dExlbmd0aD0iOTgiIHg9IjE3MDYiIHk9IjkxNS43MTg4Ij5TZWN0aW9uYWwgSGVhZDwvdGV4dD48L2c+PCEtLWVudGl0eSBQLS0+PGcgY2xhc3M9ImVudGl0eSIgZGF0YS1lbnRpdHk9IlAiIGRhdGEtc291cmNlLWxpbmU9IjE0IiBkYXRhLXVpZD0iZW50MDAxMCIgaWQ9ImVudGl0eV9QIj48ZWxsaXBzZSBjeD0iMzk1LjUiIGN5PSI3NzYuOTg0NCIgZmlsbD0iI0YxRjFGMSIgcng9IjgiIHJ5PSI4IiBzdHlsZT0ic3Ryb2tlOiMxODE4MTg7c3Ryb2tlLXdpZHRoOjAuNTsiLz48cGF0aCBkPSJNMzk1LjUsNzg0Ljk4NDQgTDM5NS41LDgxMS45ODQ0IE0zODIuNSw3OTIuOTg0NCBMNDA4LjUsNzkyLjk4NDQgTTM5NS41LDgxMS45ODQ0IEwzODIuNSw4MjYuOTg0NCBNMzk1LjUsODExLjk4NDQgTDQwOC41LDgyNi45ODQ0IiBmaWxsPSJub25lIiBzdHlsZT0ic3Ryb2tlOiMxODE4MTg7c3Ryb2tlLXdpZHRoOjAuNTsiLz48dGV4dCBmaWxsPSIjMDAwMDAwIiBmb250LWZhbWlseT0ic2Fucy1zZXJpZiIgZm9udC1zaXplPSIxNCIgbGVuZ3RoQWRqdXN0PSJzcGFjaW5nIiB0ZXh0TGVuZ3RoPSI2MyIgeD0iMzY0IiB5PSI4NDEuNzE4OCI+UHJpbmNpcGFsPC90ZXh0PjwvZz48IS0tZW50aXR5IFBSLS0+PGcgY2xhc3M9ImVudGl0eSIgZGF0YS1lbnRpdHk9IlBSIiBkYXRhLXNvdXJjZS1saW5lPSIxNSIgZGF0YS11aWQ9ImVudDAwMTEiIGlkPSJlbnRpdHlfUFIiPjxlbGxpcHNlIGN4PSIxNzU1IiBjeT0iMTA0Mi45ODQ0IiBmaWxsPSIjRjFGMUYxIiByeD0iOCIgcnk9IjgiIHN0eWxlPSJzdHJva2U6IzE4MTgxODtzdHJva2Utd2lkdGg6MC41OyIvPjxwYXRoIGQ9Ik0xNzU1LDEwNTAuOTg0NCBMMTc1NSwxMDc3Ljk4NDQgTTE3NDIsMTA1OC45ODQ0IEwxNzY4LDEwNTguOTg0NCBNMTc1NSwxMDc3Ljk4NDQgTDE3NDIsMTA5Mi45ODQ0IE0xNzU1LDEwNzcuOTg0NCBMMTc2OCwxMDkyLjk4NDQiIGZpbGw9Im5vbmUiIHN0eWxlPSJzdHJva2U6IzE4MTgxODtzdHJva2Utd2lkdGg6MC41OyIvPjx0ZXh0IGZpbGw9IiMwMDAwMDAiIGZvbnQtZmFtaWx5PSJzYW5zLXNlcmlmIiBmb250LXNpemU9IjE0IiBsZW5ndGhBZGp1c3Q9InNwYWNpbmciIHRleHRMZW5ndGg9IjYzIiB4PSIxNzIzLjUiIHk9IjExMDcuNzE4OCI+UHJpbmNpcGFsPC90ZXh0PjwvZz48IS0tZW50aXR5IEEtLT48ZyBjbGFzcz0iZW50aXR5IiBkYXRhLWVudGl0eT0iQSIgZGF0YS1zb3VyY2UtbGluZT0iMTYiIGRhdGEtdWlkPSJlbnQwMDEyIiBpZD0iZW50aXR5X0EiPjxlbGxpcHNlIGN4PSI1MzMuNSIgY3k9IjEwNDIuOTg0NCIgZmlsbD0iI0YxRjFGMSIgcng9IjgiIHJ5PSI4IiBzdHlsZT0ic3Ryb2tlOiMxODE4MTg7c3Ryb2tlLXdpZHRoOjAuNTsiLz48cGF0aCBkPSJNNTMzLjUsMTA1MC45ODQ0IEw1MzMuNSwxMDc3Ljk4NDQgTTUyMC41LDEwNTguOTg0NCBMNTQ2LjUsMTA1OC45ODQ0IE01MzMuNSwxMDc3Ljk4NDQgTDUyMC41LDEwOTIuOTg0NCBNNTMzLjUsMTA3Ny45ODQ0IEw1NDYuNSwxMDkyLjk4NDQiIGZpbGw9Im5vbmUiIHN0eWxlPSJzdHJva2U6IzE4MTgxODtzdHJva2Utd2lkdGg6MC41OyIvPjx0ZXh0IGZpbGw9IiMwMDAwMDAiIGZvbnQtZmFtaWx5PSJzYW5zLXNlcmlmIiBmb250LXNpemU9IjE0IiBsZW5ndGhBZGp1c3Q9InNwYWNpbmciIHRleHRMZW5ndGg9IjkxIiB4PSI0ODgiIHk9IjExMDcuNzE4OCI+QWRtaW5pc3RyYXRvcjwvdGV4dD48L2c+PCEtLXJldmVyc2UgbGluayBVIHRvIFMtLT48ZyBjbGFzcz0ibGluayIgZGF0YS1lbnRpdHktMT0iVSIgZGF0YS1lbnRpdHktMj0iUyIgZGF0YS1zb3VyY2UtbGluZT0iMTgiIGRhdGEtdWlkPSJsbmsxMyIgaWQ9ImxpbmtfVV9TIj48cGF0aCBkPSJNMjMuNDQxNCwyNTMyLjQ4MTggQzM2LjI1MTQsMjI0MS40MjE4IDExOC41LDM3Mi45ODQ0IDExOC41LDM3Mi45ODQ0IEMxMTguNSwzNzIuOTg0NCAxMTguNSwzNzIuOTg0NCAzOTYuNSwzNzIuOTg0NCBDMzk2LjUsMzcyLjk4NDQgNDY5Ljg1LDMyMS43NTQ0IDUwOC44MSwyOTQuNTM0NCIgZmlsbD0ibm9uZSIgaWQ9IlUtYmFja3RvLVMiIHN0eWxlPSJzdHJva2U6IzE4MTgxODtzdHJva2Utd2lkdGg6MTsiLz48cG9seWdvbiBmaWxsPSJub25lIiBwb2ludHM9IjIyLjY1LDI1NTAuNDY0NCwyOS40MzU2LDI1MzIuNzQ1NiwxNy40NDcyLDI1MzIuMjE4LDIyLjY1LDI1NTAuNDY0NCIgc3R5bGU9InN0cm9rZTojMTgxODE4O3N0cm9rZS13aWR0aDoxOyIvPjwvZz48IS0tcmV2ZXJzZSBsaW5rIFUgdG8gVC0tPjxnIGNsYXNzPSJsaW5rIiBkYXRhLWVudGl0eS0xPSJVIiBkYXRhLWVudGl0eS0yPSJUIiBkYXRhLXNvdXJjZS1saW5lPSIxOSIgZGF0YS11aWQ9ImxuazE0IiBpZD0ibGlua19VX1QiPjxwYXRoIGQ9Ik0yOC4xMzIxLDI1MzIuNDkwOSBDNDQuNzIyMSwyNDAzLjI3MDkgOTYuOTksMTk5Ni40MTQ0IDExMy42NCwxODY2Ljg1NDQiIGZpbGw9Im5vbmUiIGlkPSJVLWJhY2t0by1UIiBzdHlsZT0ic3Ryb2tlOiMxODE4MTg7c3Ryb2tlLXdpZHRoOjE7Ii8+PHBvbHlnb24gZmlsbD0ibm9uZSIgcG9pbnRzPSIyNS44NCwyNTUwLjM0NDQsMzQuMDgzMywyNTMzLjI1NSwyMi4xODEsMjUzMS43MjY5LDI1Ljg0LDI1NTAuMzQ0NCIgc3R5bGU9InN0cm9rZTojMTgxODE4O3N0cm9rZS13aWR0aDoxOyIvPjwvZz48IS0tcmV2ZXJzZSBsaW5rIFQgdG8gU0gtLT48ZyBjbGFzcz0ibGluayIgZGF0YS1lbnRpdHktMT0iVCIgZGF0YS1lbnRpdHktMj0iU0giIGRhdGEtc291cmNlLWxpbmU9IjIwIiBkYXRhLXVpZD0ibG5rMTUiIGlkPSJsaW5rX1RfU0giPjxwYXRoIGQ9Ik0xMjcuMzQxNCwxNzczLjQ4OTUgQzE0Ny44MjE0LDE2MDcuMjg5NSAyMjcuODksOTU3LjczNDQgMjQ4LjM3LDc5MS41ODQ0IiBmaWxsPSJub25lIiBpZD0iVC1iYWNrdG8tU0giIHN0eWxlPSJzdHJva2U6IzE4MTgxODtzdHJva2Utd2lkdGg6MTsiLz48cG9seWdvbiBmaWxsPSJub25lIiBwb2ludHM9IjEyNS4xNCwxNzkxLjM1NDQsMTMzLjI5NjQsMTc3NC4yMjMzLDEyMS4zODY0LDE3NzIuNzU1NywxMjUuMTQsMTc5MS4zNTQ0IiBzdHlsZT0ic3Ryb2tlOiMxODE4MTg7c3Ryb2tlLXdpZHRoOjE7Ii8+PC9nPjwhLS1yZXZlcnNlIGxpbmsgU0ggdG8gUC0tPjxnIGNsYXNzPSJsaW5rIiBkYXRhLWVudGl0eS0xPSJTSCIgZGF0YS1lbnRpdHktMj0iUCIgZGF0YS1zb3VyY2UtbGluZT0iMjEiIGRhdGEtdWlkPSJsbmsxNiIgaWQ9ImxpbmtfU0hfUCI+PHBhdGggZD0iTTMxOS44NzU5LDc3OC4xNzI1IEMzNDAuMDQ1OSw3ODUuNjkyNSAzNDYuMDYsNzg3LjkyNDQgMzYzLjg5LDc5NC41NzQ0IiBmaWxsPSJub25lIiBpZD0iU0gtYmFja3RvLVAiIHN0eWxlPSJzdHJva2U6IzE4MTgxODtzdHJva2Utd2lkdGg6MTsiLz48cG9seWdvbiBmaWxsPSJub25lIiBwb2ludHM9IjMwMy4wMSw3NzEuODg0NCwzMTcuNzc5OSw3ODMuNzk0NSwzMjEuOTcyLDc3Mi41NTA1LDMwMy4wMSw3NzEuODg0NCIgc3R5bGU9InN0cm9rZTojMTgxODE4O3N0cm9rZS13aWR0aDoxOyIvPjwvZz48IS0tcmV2ZXJzZSBsaW5rIFAgdG8gQS0tPjxnIGNsYXNzPSJsaW5rIiBkYXRhLWVudGl0eS0xPSJQIiBkYXRhLWVudGl0eS0yPSJBIiBkYXRhLXNvdXJjZS1saW5lPSIyMiIgZGF0YS11aWQ9ImxuazE3IiBpZD0ibGlua19QX0EiPjxwYXRoIGQ9Ik00MjMuODkyOCw4NTkuNTYxOCBDNDQ5LjczMjgsOTEwLjExMTggNDg3LjI3LDk4My41MjQ0IDUxMy4xOCwxMDM0LjE5NDQiIGZpbGw9Im5vbmUiIGlkPSJQLWJhY2t0by1BIiBzdHlsZT0ic3Ryb2tlOiMxODE4MTg7c3Ryb2tlLXdpZHRoOjE7Ii8+PHBvbHlnb24gZmlsbD0ibm9uZSIgcG9pbnRzPSI0MTUuNyw4NDMuNTM0NCw0MTguNTUwNCw4NjIuMjkyNyw0MjkuMjM1Myw4NTYuODMwOCw0MTUuNyw4NDMuNTM0NCIgc3R5bGU9InN0cm9rZTojMTgxODE4O3N0cm9rZS13aWR0aDoxOyIvPjwvZz48IS0tbGluayBVIHRvIEVudGVyIHRoZSBBdHRlbmRhbmNlIERhaWx5LS0+PGcgY2xhc3M9ImxpbmsiIGRhdGEtZW50aXR5LTE9IlUiIGRhdGEtZW50aXR5LTI9IkVudGVyIHRoZSBBdHRlbmRhbmNlIERhaWx5IiBkYXRhLXNvdXJjZS1saW5lPSIyNSIgZGF0YS11aWQ9ImxuazIwIiBpZD0ibGlua19VX0VudGVyIHRoZSBBdHRlbmRhbmNlIERhaWx5Ij48cGF0aCBkPSJNMzQuMTUsMjYxNi43MTQ0IEM2MC43NiwyNjc0Ljg1NDQgMTE4LjUsMjgwMC45ODQ0IDExOC41LDI4MDAuOTg0NCBDMTE4LjUsMjgwMC45ODQ0IDExOC41LDI4MDAuOTg0NCA1MzQuNSwyODAwLjk4NDQgQzUzNC41LDI4MDAuOTg0NCA1OTQuMTUsMjgwMC45ODQ0IDY1MS44MSwyODAwLjk4NDQiIGZpbGw9Im5vbmUiIGlkPSJVLUVudGVyIHRoZSBBdHRlbmRhbmNlIERhaWx5IiBzdHlsZT0ic3Ryb2tlOiMxODE4MTg7c3Ryb2tlLXdpZHRoOjE7Ii8+PC9nPjwhLS1saW5rIEVudGVyIHRoZSBBdHRlbmRhbmNlIERhaWx5IHRvIFZlcmlmeSBVc2luZyBGaW5nZXJwcmludC0tPjxnIGNsYXNzPSJsaW5rIiBkYXRhLWVudGl0eS0xPSJFbnRlciB0aGUgQXR0ZW5kYW5jZSBEYWlseSIgZGF0YS1lbnRpdHktMj0iVmVyaWZ5IFVzaW5nIEZpbmdlcnByaW50IiBkYXRhLXNvdXJjZS1saW5lPSIyNiIgZGF0YS11aWQ9ImxuazIyIiBpZD0ibGlua19FbnRlciB0aGUgQXR0ZW5kYW5jZSBEYWlseV9WZXJpZnkgVXNpbmcgRmluZ2VycHJpbnQiPjxwYXRoIGQ9Ik04NjYuNDYsMjgwMS4yNjQ0IEM5MTkuNTEsMjgwMS40MTQ0IDk3Ny4yOCwyODAxLjU2OTQgMTAyOS4zNiwyODAxLjY5OTQiIGZpbGw9Im5vbmUiIGlkPSJFbnRlciB0aGUgQXR0ZW5kYW5jZSBEYWlseS10by1WZXJpZnkgVXNpbmcgRmluZ2VycHJpbnQiIHN0eWxlPSJzdHJva2U6IzE4MTgxODtzdHJva2Utd2lkdGg6MTtzdHJva2UtZGFzaGFycmF5OjcuMCw3LjA7Ii8+PHBvbHlnb24gZmlsbD0iIzE4MTgxOCIgcG9pbnRzPSIxMDM1LjM2LDI4MDEuNzE0NCwxMDI2LjM3LDI3OTcuNjkxOSwxMDMwLjM2LDI4MDEuNzAxOSwxMDI2LjM1LDI4MDUuNjkxOSwxMDM1LjM2LDI4MDEuNzE0NCIgc3R5bGU9InN0cm9rZTojMTgxODE4O3N0cm9rZS13aWR0aDoxOyIvPjx0ZXh0IGZpbGw9IiMwMDAwMDAiIGZvbnQtZmFtaWx5PSJzYW5zLXNlcmlmIiBmb250LXNpemU9IjEzIiBsZW5ndGhBZGp1c3Q9InNwYWNpbmciIHRleHRMZW5ndGg9IjU4LjUiIHg9IjkwNyIgeT0iMjc5OS4yNzM0Ij4mIzE3MTtpbmNsdWRlJiMxODc7PC90ZXh0PjwvZz48IS0tbGluayBWZXJpZnkgVXNpbmcgRmluZ2VycHJpbnQgdG8gVXBkYXRlIFVzZXIgTG9nLS0+PGcgY2xhc3M9ImxpbmsiIGRhdGEtZW50aXR5LTE9IlZlcmlmeSBVc2luZyBGaW5nZXJwcmludCIgZGF0YS1lbnRpdHktMj0iVXBkYXRlIFVzZXIgTG9nIiBkYXRhLXNvdXJjZS1saW5lPSIyNyIgZGF0YS11aWQ9ImxuazI0IiBpZD0ibGlua19WZXJpZnkgVXNpbmcgRmluZ2VycHJpbnRfVXBkYXRlIFVzZXIgTG9nIj48cGF0aCBkPSJNMTE5OC4zNywyNzg0LjMyNDQgQzEyMzUuNjEsMjc3My42MDQ0IDEyNzYsMjc2MS45ODQ0IDEyNzYsMjc2MS45ODQ0IEMxMjc2LDI3NjEuOTg0NCAxNDA3Ljg4MzIsMjcxMC4zMTI1IDE0NzUuODIzMiwyNjgzLjcwMjUiIGZpbGw9Im5vbmUiIGlkPSJWZXJpZnkgVXNpbmcgRmluZ2VycHJpbnQtdG8tVXBkYXRlIFVzZXIgTG9nIiBzdHlsZT0ic3Ryb2tlOiMxODE4MTg7c3Ryb2tlLXdpZHRoOjE7c3Ryb2tlLWRhc2hhcnJheTo3LjAsNy4wOyIvPjxwb2x5Z29uIGZpbGw9IiMxODE4MTgiIHBvaW50cz0iMTQ4MS40MSwyNjgxLjUxNDQsMTQ3MS41NzExLDI2ODEuMDcyMSwxNDc2Ljc1NDQsMjY4My4zMzc4LDE0NzQuNDg4NiwyNjg4LjUyMTEsMTQ4MS40MSwyNjgxLjUxNDQiIHN0eWxlPSJzdHJva2U6IzE4MTgxODtzdHJva2Utd2lkdGg6MTsiLz48dGV4dCBmaWxsPSIjMDAwMDAwIiBmb250LWZhbWlseT0ic2Fucy1zZXJpZiIgZm9udC1zaXplPSIxMyIgbGVuZ3RoQWRqdXN0PSJzcGFjaW5nIiB0ZXh0TGVuZ3RoPSI1OC41IiB4PSIxMzA3IiB5PSIyNzI2LjI3MzQiPiYjMTcxO2luY2x1ZGUmIzE4Nzs8L3RleHQ+PC9nPjwhLS1saW5rIFUgdG8gTG9naW4tLT48ZyBjbGFzcz0ibGluayIgZGF0YS1lbnRpdHktMT0iVSIgZGF0YS1lbnRpdHktMj0iTG9naW4iIGRhdGEtc291cmNlLWxpbmU9IjI5IiBkYXRhLXVpZD0ibG5rMjYiIGlkPSJsaW5rX1VfTG9naW4iPjxwYXRoIGQ9Ik0zNC4xNSwyNTc4LjQwNDQgQzYwLjc2LDI1NTkuMDI0NCAxMTguNSwyNTE2Ljk4NDQgMTE4LjUsMjUxNi45ODQ0IEMxMTguNSwyNTE2Ljk4NDQgMTE4LjUsMjUxNi45ODQ0IDUzNC41LDI1MTYuOTg0NCBDNTM0LjUsMjUxNi45ODQ0IDY1OS41NiwyNTE4LjEwNDQgNzIyLjU5LDI1MTguNjY0NCIgZmlsbD0ibm9uZSIgaWQ9IlUtTG9naW4iIHN0eWxlPSJzdHJva2U6IzE4MTgxODtzdHJva2Utd2lkdGg6MTsiLz48L2c+PCEtLWxpbmsgTG9naW4gdG8gVmFsaWRhdGUgVXNlci0tPjxnIGNsYXNzPSJsaW5rIiBkYXRhLWVudGl0eS0xPSJMb2dpbiIgZGF0YS1lbnRpdHktMj0iVmFsaWRhdGUgVXNlciIgZGF0YS1zb3VyY2UtbGluZT0iMzAiIGRhdGEtdWlkPSJsbmsyOCIgaWQ9ImxpbmtfTG9naW5fVmFsaWRhdGUgVXNlciI+PHBhdGggZD0iTTc5NS4yOCwyNTE5LjczNDQgQzg1OCwyNTIxLjA3NDQgOTgzLjc5MTQsMjUyMy43NTY1IDEwNjMuNTMxNCwyNTI1LjQ1NjUiIGZpbGw9Im5vbmUiIGlkPSJMb2dpbi10by1WYWxpZGF0ZSBVc2VyIiBzdHlsZT0ic3Ryb2tlOiMxODE4MTg7c3Ryb2tlLXdpZHRoOjE7c3Ryb2tlLWRhc2hhcnJheTo3LjAsNy4wOyIvPjxwb2x5Z29uIGZpbGw9IiMxODE4MTgiIHBvaW50cz0iMTA2OS41MywyNTI1LjU4NDQsMTA2MC42MTczLDI1MjEuMzkzNSwxMDY0LjUzMTEsMjUyNS40Nzc4LDEwNjAuNDQ2OCwyNTI5LjM5MTYsMTA2OS41MywyNTI1LjU4NDQiIHN0eWxlPSJzdHJva2U6IzE4MTgxODtzdHJva2Utd2lkdGg6MTsiLz48dGV4dCBmaWxsPSIjMDAwMDAwIiBmb250LWZhbWlseT0ic2Fucy1zZXJpZiIgZm9udC1zaXplPSIxMyIgbGVuZ3RoQWRqdXN0PSJzcGFjaW5nIiB0ZXh0TGVuZ3RoPSI1OC41IiB4PSI5MDciIHk9IjI1MjEuMjczNCI+JiMxNzE7aW5jbHVkZSYjMTg3OzwvdGV4dD48L2c+PCEtLWxpbmsgVmFsaWRhdGUgVXNlciB0byBVcGRhdGUgVXNlciBMb2ctLT48ZyBjbGFzcz0ibGluayIgZGF0YS1lbnRpdHktMT0iVmFsaWRhdGUgVXNlciIgZGF0YS1lbnRpdHktMj0iVXBkYXRlIFVzZXIgTG9nIiBkYXRhLXNvdXJjZS1saW5lPSIzMSIgZGF0YS11aWQ9ImxuazI5IiBpZD0ibGlua19WYWxpZGF0ZSBVc2VyX1VwZGF0ZSBVc2VyIExvZyI+PHBhdGggZD0iTTExODMuMjgsMjUzNy45NzQ0IEMxMjIzLjcyLDI1NDcuNTc0NCAxMjc2LDI1NTkuOTg0NCAxMjc2LDI1NTkuOTg0NCBDMTI3NiwyNTU5Ljk4NDQgMTQxMi4zMDA3LDI2MjAuMTIyMSAxNDc5LjA0MDcsMjY0OS41NzIxIiBmaWxsPSJub25lIiBpZD0iVmFsaWRhdGUgVXNlci10by1VcGRhdGUgVXNlciBMb2ciIHN0eWxlPSJzdHJva2U6IzE4MTgxODtzdHJva2Utd2lkdGg6MTtzdHJva2UtZGFzaGFycmF5OjcuMCw3LjA7Ii8+PHBvbHlnb24gZmlsbD0iIzE4MTgxOCIgcG9pbnRzPSIxNDg0LjUzLDI2NTEuOTk0NCwxNDc3LjkxMDgsMjY0NC43MDE1LDE0NzkuOTU1NiwyNjQ5Ljk3NTgsMTQ3NC42ODEyLDI2NTIuMDIwNiwxNDg0LjUzLDI2NTEuOTk0NCIgc3R5bGU9InN0cm9rZTojMTgxODE4O3N0cm9rZS13aWR0aDoxOyIvPjx0ZXh0IGZpbGw9IiMwMDAwMDAiIGZvbnQtZmFtaWx5PSJzYW5zLXNlcmlmIiBmb250LXNpemU9IjEzIiBsZW5ndGhBZGp1c3Q9InNwYWNpbmciIHRleHRMZW5ndGg9IjU4LjUiIHg9IjEzMDciIHk9IjI1NzIuMjczNCI+JiMxNzE7aW5jbHVkZSYjMTg3OzwvdGV4dD48L2c+PCEtLWxpbmsgVSB0byBWaWV3IFVzZXIgUHJvZmlsZS0tPjxnIGNsYXNzPSJsaW5rIiBkYXRhLWVudGl0eS0xPSJVIiBkYXRhLWVudGl0eS0yPSJWaWV3IFVzZXIgUHJvZmlsZSIgZGF0YS1zb3VyY2UtbGluZT0iMzMiIGRhdGEtdWlkPSJsbmszMSIgaWQ9ImxpbmtfVV9WaWV3IFVzZXIgUHJvZmlsZSI+PHBhdGggZD0iTTM0LjE1LDI1ODcuOTg0NCBDNjAuNzYsMjU4Ny45ODQ0IDExOC41LDI1ODcuOTg0NCAxMTguNSwyNTg3Ljk4NDQgQzExOC41LDI1ODcuOTg0NCAxMTguNSwyNTg3Ljk4NDQgNTM0LjUsMjU4Ny45ODQ0IEM1MzQuNSwyNTg3Ljk4NDQgNjE1LjkxLDI1ODguMzQ0NCA2ODAuNDYsMjU4OC42MzQ0IiBmaWxsPSJub25lIiBpZD0iVS1WaWV3IFVzZXIgUHJvZmlsZSIgc3R5bGU9InN0cm9rZTojMTgxODE4O3N0cm9rZS13aWR0aDoxOyIvPjwvZz48IS0tcmV2ZXJzZSBsaW5rIFZpZXcgVXNlciBQcm9maWxlIHRvIFVwZGF0ZSBVc2VyIFByb2ZpbGUtLT48ZyBjbGFzcz0ibGluayIgZGF0YS1lbnRpdHktMT0iVmlldyBVc2VyIFByb2ZpbGUiIGRhdGEtZW50aXR5LTI9IlVwZGF0ZSBVc2VyIFByb2ZpbGUiIGRhdGEtc291cmNlLWxpbmU9IjM0IiBkYXRhLXVpZD0ibG5rMzMiIGlkPSJsaW5rX1ZpZXcgVXNlciBQcm9maWxlX1VwZGF0ZSBVc2VyIFByb2ZpbGUiPjxwYXRoIGQ9Ik04NDMuMjQ4NiwyNTkwLjc2MiBDOTA1Ljc0ODYsMjU5Mi4wOTIgOTg3LjU5LDI1OTMuODQ0NCAxMDUxLjY3LDI1OTUuMjA0NCIgZmlsbD0ibm9uZSIgaWQ9IlZpZXcgVXNlciBQcm9maWxlLWJhY2t0by1VcGRhdGUgVXNlciBQcm9maWxlIiBzdHlsZT0ic3Ryb2tlOiMxODE4MTg7c3Ryb2tlLXdpZHRoOjE7c3Ryb2tlLWRhc2hhcnJheTo3LjAsNy4wOyIvPjxwb2x5Z29uIGZpbGw9IiMxODE4MTgiIHBvaW50cz0iODM3LjI1LDI1OTAuNjM0NCw4NDYuMTYyOSwyNTk0LjgyNDksODQyLjI0ODksMjU5MC43NDA4LDg0Ni4zMzMxLDI1ODYuODI2OCw4MzcuMjUsMjU5MC42MzQ0IiBzdHlsZT0ic3Ryb2tlOiMxODE4MTg7c3Ryb2tlLXdpZHRoOjE7Ii8+PHRleHQgZmlsbD0iIzAwMDAwMCIgZm9udC1mYW1pbHk9InNhbnMtc2VyaWYiIGZvbnQtc2l6ZT0iMTMiIGxlbmd0aEFkanVzdD0ic3BhY2luZyIgdGV4dExlbmd0aD0iNTguNSIgeD0iOTA3IiB5PSIyNTkxLjI3MzQiPiYjMTcxO2V4dGVuZHMmIzE4Nzs8L3RleHQ+PC9nPjwhLS1saW5rIFVwZGF0ZSBVc2VyIFByb2ZpbGUgdG8gVXBkYXRlIFVzZXIgTG9nLS0+PGcgY2xhc3M9ImxpbmsiIGRhdGEtZW50aXR5LTE9IlVwZGF0ZSBVc2VyIFByb2ZpbGUiIGRhdGEtZW50aXR5LTI9IlVwZGF0ZSBVc2VyIExvZyIgZGF0YS1zb3VyY2UtbGluZT0iMzUiIGRhdGEtdWlkPSJsbmszNCIgaWQ9ImxpbmtfVXBkYXRlIFVzZXIgUHJvZmlsZV9VcGRhdGUgVXNlciBMb2ciPjxwYXRoIGQ9Ik0xMjAyLjU4LDI2MDkuMDE0NCBDMTI3NS42NSwyNjIyLjQyNDQgMTM4Ni42OTg2LDI2NDIuODAxMiAxNDU1Ljk0ODYsMjY1NS41MTEyIiBmaWxsPSJub25lIiBpZD0iVXBkYXRlIFVzZXIgUHJvZmlsZS10by1VcGRhdGUgVXNlciBMb2ciIHN0eWxlPSJzdHJva2U6IzE4MTgxODtzdHJva2Utd2lkdGg6MTtzdHJva2UtZGFzaGFycmF5OjcuMCw3LjA7Ii8+PHBvbHlnb24gZmlsbD0iIzE4MTgxOCIgcG9pbnRzPSIxNDYxLjg1LDI2NTYuNTk0NCwxNDUzLjcyLDI2NTEuMDM1NCwxNDU2LjkzMjEsMjY1NS42OTE4LDE0NTIuMjc1OCwyNjU4LjkwNCwxNDYxLjg1LDI2NTYuNTk0NCIgc3R5bGU9InN0cm9rZTojMTgxODE4O3N0cm9rZS13aWR0aDoxOyIvPjx0ZXh0IGZpbGw9IiMwMDAwMDAiIGZvbnQtZmFtaWx5PSJzYW5zLXNlcmlmIiBmb250LXNpemU9IjEzIiBsZW5ndGhBZGp1c3Q9InNwYWNpbmciIHRleHRMZW5ndGg9IjU4LjUiIHg9IjEzMDciIHk9IjI2MjcuMjczNCI+JiMxNzE7aW5jbHVkZSYjMTg3OzwvdGV4dD48L2c+PCEtLWxpbmsgVSB0byBDb21tdW5pY2F0aW9uLS0+PGcgY2xhc3M9ImxpbmsiIGRhdGEtZW50aXR5LTE9IlUiIGRhdGEtZW50aXR5LTI9IkNvbW11bmljYXRpb24iIGRhdGEtc291cmNlLWxpbmU9IjM3IiBkYXRhLXVpZD0ibG5rMzYiIGlkPSJsaW5rX1VfQ29tbXVuaWNhdGlvbiI+PHBhdGggZD0iTTM0LjE1LDI1OTcuNTY0NCBDNjAuNzYsMjYxNi45NDQ0IDExOC41LDI2NTguOTg0NCAxMTguNSwyNjU4Ljk4NDQgQzExOC41LDI2NTguOTg0NCAxMTguNSwyNjU4Ljk4NDQgNTM0LjUsMjY1OC45ODQ0IEM1MzQuNSwyNjU4Ljk4NDQgNjI2LjUsMjY1OS44MDQ0IDY5Mi40NSwyNjYwLjM5NDQiIGZpbGw9Im5vbmUiIGlkPSJVLUNvbW11bmljYXRpb24iIHN0eWxlPSJzdHJva2U6IzE4MTgxODtzdHJva2Utd2lkdGg6MTsiLz48L2c+PCEtLXJldmVyc2UgbGluayBDb21tdW5pY2F0aW9uIHRvIFNlbmQgTWVzc2FnZXMtLT48ZyBjbGFzcz0ibGluayIgZGF0YS1lbnRpdHktMT0iQ29tbXVuaWNhdGlvbiIgZGF0YS1lbnRpdHktMj0iU2VuZCBNZXNzYWdlcyIgZGF0YS1zb3VyY2UtbGluZT0iMzgiIGRhdGEtdWlkPSJsbmszOCIgaWQ9ImxpbmtfQ29tbXVuaWNhdGlvbl9TZW5kIE1lc3NhZ2VzIj48cGF0aCBkPSJNODMxLjc0OTIsMjY2Mi4xMzA2IEM5MDAuMzI5MiwyNjYzLjIzMDYgMTAwMS4yLDI2NjQuODQ0NCAxMDY5LjY0LDI2NjUuOTM0NCIgZmlsbD0ibm9uZSIgaWQ9IkNvbW11bmljYXRpb24tYmFja3RvLVNlbmQgTWVzc2FnZXMiIHN0eWxlPSJzdHJva2U6IzE4MTgxODtzdHJva2Utd2lkdGg6MTtzdHJva2UtZGFzaGFycmF5OjcuMCw3LjA7Ii8+PHBvbHlnb24gZmlsbD0iIzE4MTgxOCIgcG9pbnRzPSI4MjUuNzUsMjY2Mi4wMzQ0LDgzNC42ODQ3LDI2NjYuMTc4Miw4MzAuNzQ5NCwyNjYyLjExNDYsODM0LjgxMywyNjU4LjE3OTIsODI1Ljc1LDI2NjIuMDM0NCIgc3R5bGU9InN0cm9rZTojMTgxODE4O3N0cm9rZS13aWR0aDoxOyIvPjx0ZXh0IGZpbGw9IiMwMDAwMDAiIGZvbnQtZmFtaWx5PSJzYW5zLXNlcmlmIiBmb250LXNpemU9IjEzIiBsZW5ndGhBZGp1c3Q9InNwYWNpbmciIHRleHRMZW5ndGg9IjU4LjUiIHg9IjkwNyIgeT0iMjY2MS4yNzM0Ij4mIzE3MTtleHRlbmRzJiMxODc7PC90ZXh0PjwvZz48IS0tbGluayBTZW5kIE1lc3NhZ2VzIHRvIFVwZGF0ZSBVc2VyIExvZy0tPjxnIGNsYXNzPSJsaW5rIiBkYXRhLWVudGl0eS0xPSJTZW5kIE1lc3NhZ2VzIiBkYXRhLWVudGl0eS0yPSJVcGRhdGUgVXNlciBMb2ciIGRhdGEtc291cmNlLWxpbmU9IjM5IiBkYXRhLXVpZD0ibG5rMzkiIGlkPSJsaW5rX1NlbmQgTWVzc2FnZXNfVXBkYXRlIFVzZXIgTG9nIj48cGF0aCBkPSJNMTIwMi41OCwyNjY2Ljk4NDQgQzEyNzAuNjUsMjY2Ni45ODQ0IDEzNzAuNzgsMjY2Ni45ODQ0IDE0NDAuOTcsMjY2Ni45ODQ0IiBmaWxsPSJub25lIiBpZD0iU2VuZCBNZXNzYWdlcy10by1VcGRhdGUgVXNlciBMb2ciIHN0eWxlPSJzdHJva2U6IzE4MTgxODtzdHJva2Utd2lkdGg6MTtzdHJva2UtZGFzaGFycmF5OjcuMCw3LjA7Ii8+PHBvbHlnb24gZmlsbD0iIzE4MTgxOCIgcG9pbnRzPSIxNDQ2Ljk3LDI2NjYuOTg0NCwxNDM3Ljk3LDI2NjIuOTg0NCwxNDQxLjk3LDI2NjYuOTg0NCwxNDM3Ljk3LDI2NzAuOTg0NCwxNDQ2Ljk3LDI2NjYuOTg0NCIgc3R5bGU9InN0cm9rZTojMTgxODE4O3N0cm9rZS13aWR0aDoxOyIvPjx0ZXh0IGZpbGw9IiMwMDAwMDAiIGZvbnQtZmFtaWx5PSJzYW5zLXNlcmlmIiBmb250LXNpemU9IjEzIiBsZW5ndGhBZGp1c3Q9InNwYWNpbmciIHRleHRMZW5ndGg9IjU4LjUiIHg9IjEzMDciIHk9IjI2NjUuMjczNCI+JiMxNzE7aW5jbHVkZSYjMTg3OzwvdGV4dD48L2c+PCEtLWxpbmsgVSB0byBMb2dvdXQtLT48ZyBjbGFzcz0ibGluayIgZGF0YS1lbnRpdHktMT0iVSIgZGF0YS1lbnRpdHktMj0iTG9nb3V0IiBkYXRhLXNvdXJjZS1saW5lPSI0MSIgZGF0YS11aWQ9ImxuazQxIiBpZD0ibGlua19VX0xvZ291dCI+PHBhdGggZD0iTTM0LjE1LDI2MDcuMTM0NCBDNjAuNzYsMjY0NS44OTQ0IDExOC41LDI3MjkuOTg0NCAxMTguNSwyNzI5Ljk4NDQgQzExOC41LDI3MjkuOTg0NCAxMTguNSwyNzI5Ljk4NDQgNTM0LjUsMjcyOS45ODQ0IEM1MzQuNSwyNzI5Ljk4NDQgNjUzLjQ0LDI3MjguOTI0NCA3MTcuNzgsMjcyOC4zNDQ0IiBmaWxsPSJub25lIiBpZD0iVS1Mb2dvdXQiIHN0eWxlPSJzdHJva2U6IzE4MTgxODtzdHJva2Utd2lkdGg6MTsiLz48L2c+PCEtLWxpbmsgTG9nb3V0IHRvIENvbmZpcm0tLT48ZyBjbGFzcz0ibGluayIgZGF0YS1lbnRpdHktMT0iTG9nb3V0IiBkYXRhLWVudGl0eS0yPSJDb25maXJtIiBkYXRhLXNvdXJjZS1saW5lPSI0MiIgZGF0YS11aWQ9ImxuazQzIiBpZD0ibGlua19Mb2dvdXRfQ29uZmlybSI+PHBhdGggZD0iTTgwMC4xMywyNzI4LjMwNDQgQzg3MC42MSwyNzI4Ljg2NDQgMTAxMC4xMjAyLDI3MjkuOTg2NCAxMDgzLjk0MDIsMjczMC41NzY0IiBmaWxsPSJub25lIiBpZD0iTG9nb3V0LXRvLUNvbmZpcm0iIHN0eWxlPSJzdHJva2U6IzE4MTgxODtzdHJva2Utd2lkdGg6MTtzdHJva2UtZGFzaGFycmF5OjcuMCw3LjA7Ii8+PHBvbHlnb24gZmlsbD0iIzE4MTgxOCIgcG9pbnRzPSIxMDg5Ljk0LDI3MzAuNjI0NCwxMDgwLjk3MjMsMjcyNi41NTI2LDEwODQuOTQwMiwyNzMwLjU4NDQsMTA4MC45MDgzLDI3MzQuNTUyMywxMDg5Ljk0LDI3MzAuNjI0NCIgc3R5bGU9InN0cm9rZTojMTgxODE4O3N0cm9rZS13aWR0aDoxOyIvPjx0ZXh0IGZpbGw9IiMwMDAwMDAiIGZvbnQtZmFtaWx5PSJzYW5zLXNlcmlmIiBmb250LXNpemU9IjEzIiBsZW5ndGhBZGp1c3Q9InNwYWNpbmciIHRleHRMZW5ndGg9IjU4LjUiIHg9IjkwNyIgeT0iMjcyNy4yNzM0Ij4mIzE3MTtpbmNsdWRlJiMxODc7PC90ZXh0PjwvZz48IS0tbGluayBDb25maXJtIHRvIFVwZGF0ZSBVc2VyIExvZy0tPjxnIGNsYXNzPSJsaW5rIiBkYXRhLWVudGl0eS0xPSJDb25maXJtIiBkYXRhLWVudGl0eS0yPSJVcGRhdGUgVXNlciBMb2ciIGRhdGEtc291cmNlLWxpbmU9IjQzIiBkYXRhLXVpZD0ibG5rNDQiIGlkPSJsaW5rX0NvbmZpcm1fVXBkYXRlIFVzZXIgTG9nIj48cGF0aCBkPSJNMTE3Ni4zOSwyNzI0LjM3NDQgQzEyNDMuNzgsMjcxMy4wNzQ0IDEzNzUuNjEyOCwyNjkwLjk1NzUgMTQ1NC4yMDI4LDI2NzcuNzY3NSIgZmlsbD0ibm9uZSIgaWQ9IkNvbmZpcm0tdG8tVXBkYXRlIFVzZXIgTG9nIiBzdHlsZT0ic3Ryb2tlOiMxODE4MTg7c3Ryb2tlLXdpZHRoOjE7c3Ryb2tlLWRhc2hhcnJheTo3LjAsNy4wOyIvPjxwb2x5Z29uIGZpbGw9IiMxODE4MTgiIHBvaW50cz0iMTQ2MC4xMiwyNjc2Ljc3NDQsMTQ1MC41ODIxLDI2NzQuMzE5MiwxNDU1LjE4OSwyNjc3LjYwMiwxNDUxLjkwNjIsMjY4Mi4yMDg5LDE0NjAuMTIsMjY3Ni43NzQ0IiBzdHlsZT0ic3Ryb2tlOiMxODE4MTg7c3Ryb2tlLXdpZHRoOjE7Ii8+PHRleHQgZmlsbD0iIzAwMDAwMCIgZm9udC1mYW1pbHk9InNhbnMtc2VyaWYiIGZvbnQtc2l6ZT0iMTMiIGxlbmd0aEFkanVzdD0ic3BhY2luZyIgdGV4dExlbmd0aD0iNTguNSIgeD0iMTMwNyIgeT0iMjY5MS4yNzM0Ij4mIzE3MTtpbmNsdWRlJiMxODc7PC90ZXh0PjwvZz48IS0tbGluayBOb3RpZnkgVXNlcnMgdG8gVVItLT48ZyBjbGFzcz0ibGluayIgZGF0YS1lbnRpdHktMT0iTm90aWZ5IFVzZXJzIiBkYXRhLWVudGl0eS0yPSJVUiIgZGF0YS1zb3VyY2UtbGluZT0iNDUiIGRhdGEtdWlkPSJsbms0NiIgaWQ9ImxpbmtfTm90aWZ5IFVzZXJzX1VSIj48cGF0aCBkPSJNMTU4Mi43Nyw3NzcuMzE0NCBDMTYzNi44MSw3NzUuMDA0NCAxNzEwLjkyLDc3MS44MjQ0IDE3NDAuNzYsNzcwLjU1NDQiIGZpbGw9Im5vbmUiIGlkPSJOb3RpZnkgVXNlcnMtVVIiIHN0eWxlPSJzdHJva2U6IzE4MTgxODtzdHJva2Utd2lkdGg6MTsiLz48L2c+PCEtLWxpbmsgUyB0byBWaWV3IEVkdWNhdGlvbmFsIEluZm9ybWF0aW9uLS0+PGcgY2xhc3M9ImxpbmsiIGRhdGEtZW50aXR5LTE9IlMiIGRhdGEtZW50aXR5LTI9IlZpZXcgRWR1Y2F0aW9uYWwgSW5mb3JtYXRpb24iIGRhdGEtc291cmNlLWxpbmU9IjQ3IiBkYXRhLXVpZD0ibG5rNDgiIGlkPSJsaW5rX1NfVmlldyBFZHVjYXRpb25hbCBJbmZvcm1hdGlvbiI+PHBhdGggZD0iTTU1OC40MiwyNjUuOTk0NCBDNTk1LjAyLDI0Ny42NTQ0IDY2NS41NywyMTIuMzA0NCA3MTIuMjIsMTg4LjkyNDQiIGZpbGw9Im5vbmUiIGlkPSJTLVZpZXcgRWR1Y2F0aW9uYWwgSW5mb3JtYXRpb24iIHN0eWxlPSJzdHJva2U6IzE4MTgxODtzdHJva2Utd2lkdGg6MTsiLz48L2c+PCEtLXJldmVyc2UgbGluayBWaWV3IEVkdWNhdGlvbmFsIEluZm9ybWF0aW9uIHRvIFN1Ym1pdCBBc3Nlc3NtZW50cy0tPjxnIGNsYXNzPSJsaW5rIiBkYXRhLWVudGl0eS0xPSJWaWV3IEVkdWNhdGlvbmFsIEluZm9ybWF0aW9uIiBkYXRhLWVudGl0eS0yPSJTdWJtaXQgQXNzZXNzbWVudHMiIGRhdGEtc291cmNlLWxpbmU9IjQ4IiBkYXRhLXVpZD0ibG5rNTAiIGlkPSJsaW5rX1ZpZXcgRWR1Y2F0aW9uYWwgSW5mb3JtYXRpb25fU3VibWl0IEFzc2Vzc21lbnRzIj48cGF0aCBkPSJNODUxLjQ1NTIsMTQ4LjY2OCBDOTIwLjczNTIsMTM1LjU0OCAxMDEwLjgsMTE4LjQ5NDQgMTA3Mi44OSwxMDYuNzQ0NCIgZmlsbD0ibm9uZSIgaWQ9IlZpZXcgRWR1Y2F0aW9uYWwgSW5mb3JtYXRpb24tYmFja3RvLVN1Ym1pdCBBc3Nlc3NtZW50cyIgc3R5bGU9InN0cm9rZTojMTgxODE4O3N0cm9rZS13aWR0aDoxO3N0cm9rZS1kYXNoYXJyYXk6Ny4wLDcuMDsiLz48cG9seWdvbiBmaWxsPSIjMTgxODE4IiBwb2ludHM9Ijg0NS41NiwxNDkuNzg0NCw4NTUuMTQ3MSwxNTIuMDM5OSw4NTAuNDcyNywxNDguODU0LDg1My42NTg2LDE0NC4xNzk2LDg0NS41NiwxNDkuNzg0NCIgc3R5bGU9InN0cm9rZTojMTgxODE4O3N0cm9rZS13aWR0aDoxOyIvPjx0ZXh0IGZpbGw9IiMwMDAwMDAiIGZvbnQtZmFtaWx5PSJzYW5zLXNlcmlmIiBmb250LXNpemU9IjEzIiBsZW5ndGhBZGp1c3Q9InNwYWNpbmciIHRleHRMZW5ndGg9IjU4LjUiIHg9IjkwNyIgeT0iMTI3LjI3MzQiPiYjMTcxO2V4dGVuZHMmIzE4Nzs8L3RleHQ+PC9nPjwhLS1yZXZlcnNlIGxpbmsgVmlldyBFZHVjYXRpb25hbCBJbmZvcm1hdGlvbiB0byBWaWV3IEFzc2Vzc21lbnRzLS0+PGcgY2xhc3M9ImxpbmsiIGRhdGEtZW50aXR5LTE9IlZpZXcgRWR1Y2F0aW9uYWwgSW5mb3JtYXRpb24iIGRhdGEtZW50aXR5LTI9IlZpZXcgQXNzZXNzbWVudHMiIGRhdGEtc291cmNlLWxpbmU9IjQ5IiBkYXRhLXVpZD0ibG5rNTIiIGlkPSJsaW5rX1ZpZXcgRWR1Y2F0aW9uYWwgSW5mb3JtYXRpb25fVmlldyBBc3Nlc3NtZW50cyI+PHBhdGggZD0iTTg3OC41MSwxNjUuOTg0NCBDOTM5LjI0LDE2NS45ODQ0IDEwMDYuNTQsMTY1Ljk4NDQgMTA2MC4yMywxNjUuOTg0NCIgZmlsbD0ibm9uZSIgaWQ9IlZpZXcgRWR1Y2F0aW9uYWwgSW5mb3JtYXRpb24tYmFja3RvLVZpZXcgQXNzZXNzbWVudHMiIHN0eWxlPSJzdHJva2U6IzE4MTgxODtzdHJva2Utd2lkdGg6MTtzdHJva2UtZGFzaGFycmF5OjcuMCw3LjA7Ii8+PHBvbHlnb24gZmlsbD0iIzE4MTgxOCIgcG9pbnRzPSI4NzIuNTEsMTY1Ljk4NDQsODgxLjUxLDE2OS45ODQ0LDg3Ny41MSwxNjUuOTg0NCw4ODEuNTEsMTYxLjk4NDQsODcyLjUxLDE2NS45ODQ0IiBzdHlsZT0ic3Ryb2tlOiMxODE4MTg7c3Ryb2tlLXdpZHRoOjE7Ii8+PHRleHQgZmlsbD0iIzAwMDAwMCIgZm9udC1mYW1pbHk9InNhbnMtc2VyaWYiIGZvbnQtc2l6ZT0iMTMiIGxlbmd0aEFkanVzdD0ic3BhY2luZyIgdGV4dExlbmd0aD0iNTguNSIgeD0iOTA3IiB5PSIxNjQuMjczNCI+JiMxNzE7ZXh0ZW5kcyYjMTg3OzwvdGV4dD48L2c+PCEtLWxpbmsgU3VibWl0IEFzc2Vzc21lbnRzIHRvIFVwZGF0ZSBFZHVjYXRpb25hbCBJbmZvcm1hdGlvbi0tPjxnIGNsYXNzPSJsaW5rIiBkYXRhLWVudGl0eS0xPSJTdWJtaXQgQXNzZXNzbWVudHMiIGRhdGEtZW50aXR5LTI9IlVwZGF0ZSBFZHVjYXRpb25hbCBJbmZvcm1hdGlvbiIgZGF0YS1zb3VyY2UtbGluZT0iNTEiIGRhdGEtdWlkPSJsbms1NCIgaWQ9ImxpbmtfU3VibWl0IEFzc2Vzc21lbnRzX1VwZGF0ZSBFZHVjYXRpb25hbCBJbmZvcm1hdGlvbiI+PHBhdGggZD0iTTEyMTcuNDQsOTYuNjc0NCBDMTI3MC4zNCw5Ny43ODQ0IDEzMzQuNDkxMyw5OS4xMjg5IDEzOTMuNzcxMywxMDAuMzY4OSIgZmlsbD0ibm9uZSIgaWQ9IlN1Ym1pdCBBc3Nlc3NtZW50cy10by1VcGRhdGUgRWR1Y2F0aW9uYWwgSW5mb3JtYXRpb24iIHN0eWxlPSJzdHJva2U6IzE4MTgxODtzdHJva2Utd2lkdGg6MTtzdHJva2UtZGFzaGFycmF5OjcuMCw3LjA7Ii8+PHBvbHlnb24gZmlsbD0iIzE4MTgxOCIgcG9pbnRzPSIxMzk5Ljc3LDEwMC40OTQ0LDEzOTAuODU1Niw5Ni4zMDcsMTM5NC43NzExLDEwMC4zODk4LDEzOTAuNjg4MywxMDQuMzA1MywxMzk5Ljc3LDEwMC40OTQ0IiBzdHlsZT0ic3Ryb2tlOiMxODE4MTg7c3Ryb2tlLXdpZHRoOjE7Ii8+PHRleHQgZmlsbD0iIzAwMDAwMCIgZm9udC1mYW1pbHk9InNhbnMtc2VyaWYiIGZvbnQtc2l6ZT0iMTMiIGxlbmd0aEFkanVzdD0ic3BhY2luZyIgdGV4dExlbmd0aD0iNTguNSIgeD0iMTMwNyIgeT0iOTcuMjczNCI+JiMxNzE7aW5jbHVkZSYjMTg3OzwvdGV4dD48L2c+PCEtLWxpbmsgVmlldyBBc3Nlc3NtZW50cyB0byBWaWV3IFN1Ym1pc3Npb24gTWFya3MtLT48ZyBjbGFzcz0ibGluayIgZGF0YS1lbnRpdHktMT0iVmlldyBBc3Nlc3NtZW50cyIgZGF0YS1lbnRpdHktMj0iVmlldyBTdWJtaXNzaW9uIE1hcmtzIiBkYXRhLXNvdXJjZS1saW5lPSI1MiIgZGF0YS11aWQ9ImxuazU2IiBpZD0ibGlua19WaWV3IEFzc2Vzc21lbnRzX1ZpZXcgU3VibWlzc2lvbiBNYXJrcyI+PHBhdGggZD0iTTEyMTAuMTEsMTY5LjYyNDQgQzEyNzIuOTYsMTcyLjc1NDQgMTM1Ny43Nzc0LDE3Ni45NzU2IDE0MjQuNTc3NCwxODAuMzA1NiIgZmlsbD0ibm9uZSIgaWQ9IlZpZXcgQXNzZXNzbWVudHMtdG8tVmlldyBTdWJtaXNzaW9uIE1hcmtzIiBzdHlsZT0ic3Ryb2tlOiMxODE4MTg7c3Ryb2tlLXdpZHRoOjE7c3Ryb2tlLWRhc2hhcnJheTo3LjAsNy4wOyIvPjxwb2x5Z29uIGZpbGw9IiMxODE4MTgiIHBvaW50cz0iMTQzMC41NywxODAuNjA0NCwxNDIxLjc4MDMsMTc2LjE2MTIsMTQyNS41NzYyLDE4MC4zNTU0LDE0MjEuMzgyLDE4NC4xNTEzLDE0MzAuNTcsMTgwLjYwNDQiIHN0eWxlPSJzdHJva2U6IzE4MTgxODtzdHJva2Utd2lkdGg6MTsiLz48dGV4dCBmaWxsPSIjMDAwMDAwIiBmb250LWZhbWlseT0ic2Fucy1zZXJpZiIgZm9udC1zaXplPSIxMyIgbGVuZ3RoQWRqdXN0PSJzcGFjaW5nIiB0ZXh0TGVuZ3RoPSI1OC41IiB4PSIxMzA3IiB5PSIxNzMuMjczNCI+JiMxNzE7aW5jbHVkZSYjMTg3OzwvdGV4dD48L2c+PCEtLWxpbmsgUyB0byBWaWV3IEV4YW1zIEluZm9ybWF0aW9uLS0+PGcgY2xhc3M9ImxpbmsiIGRhdGEtZW50aXR5LTE9IlMiIGRhdGEtZW50aXR5LTI9IlZpZXcgRXhhbXMgSW5mb3JtYXRpb24iIGRhdGEtc291cmNlLWxpbmU9IjU0IiBkYXRhLXVpZD0ibG5rNTgiIGlkPSJsaW5rX1NfVmlldyBFeGFtcyBJbmZvcm1hdGlvbiI+PHBhdGggZD0iTTU1OC40MiwyNzcuOTg0NCBDNTgzLjkyLDI3Ny45ODQ0IDYyNS45MiwyNzcuOTg0NCA2NjQuODMsMjc3Ljk4NDQiIGZpbGw9Im5vbmUiIGlkPSJTLVZpZXcgRXhhbXMgSW5mb3JtYXRpb24iIHN0eWxlPSJzdHJva2U6IzE4MTgxODtzdHJva2Utd2lkdGg6MTsiLz48L2c+PCEtLXJldmVyc2UgbGluayBWaWV3IEV4YW1zIEluZm9ybWF0aW9uIHRvIFZpZXcgRXhhbXMtLT48ZyBjbGFzcz0ibGluayIgZGF0YS1lbnRpdHktMT0iVmlldyBFeGFtcyBJbmZvcm1hdGlvbiIgZGF0YS1lbnRpdHktMj0iVmlldyBFeGFtcyIgZGF0YS1zb3VyY2UtbGluZT0iNTUiIGRhdGEtdWlkPSJsbms2MCIgaWQ9ImxpbmtfVmlldyBFeGFtcyBJbmZvcm1hdGlvbl9WaWV3IEV4YW1zIj48cGF0aCBkPSJNODQyLjM0NzEsMjkwLjk1NzEgQzg3Ny42NzcxLDI5Ni41MTcxIDkwNiwzMDAuOTg0NCA5MDYsMzAwLjk4NDQgQzkwNiwzMDAuOTg0NCAxMDA5LjY3LDMwMi4zNDQ0IDEwNzcuNTEsMzAzLjIzNDQiIGZpbGw9Im5vbmUiIGlkPSJWaWV3IEV4YW1zIEluZm9ybWF0aW9uLWJhY2t0by1WaWV3IEV4YW1zIiBzdHlsZT0ic3Ryb2tlOiMxODE4MTg7c3Ryb2tlLXdpZHRoOjE7c3Ryb2tlLWRhc2hhcnJheTo3LjAsNy4wOyIvPjxwb2x5Z29uIGZpbGw9IiMxODE4MTgiIHBvaW50cz0iODM2LjQyLDI5MC4wMjQ0LDg0NC42ODg3LDI5NS4zNzQ5LDg0MS4zNTkyLDI5MC44MDE3LDg0NS45MzI0LDI4Ny40NzIxLDgzNi40MiwyOTAuMDI0NCIgc3R5bGU9InN0cm9rZTojMTgxODE4O3N0cm9rZS13aWR0aDoxOyIvPjx0ZXh0IGZpbGw9IiMwMDAwMDAiIGZvbnQtZmFtaWx5PSJzYW5zLXNlcmlmIiBmb250LXNpemU9IjEzIiBsZW5ndGhBZGp1c3Q9InNwYWNpbmciIHRleHRMZW5ndGg9IjU4LjUiIHg9IjkwNyIgeT0iMjk5LjI3MzQiPiYjMTcxO2V4dGVuZHMmIzE4Nzs8L3RleHQ+PC9nPjwhLS1yZXZlcnNlIGxpbmsgVmlldyBFeGFtcyBJbmZvcm1hdGlvbiB0byBWaWV3IEV4YW0gUmVzdWx0cy0tPjxnIGNsYXNzPSJsaW5rIiBkYXRhLWVudGl0eS0xPSJWaWV3IEV4YW1zIEluZm9ybWF0aW9uIiBkYXRhLWVudGl0eS0yPSJWaWV3IEV4YW0gUmVzdWx0cyIgZGF0YS1zb3VyY2UtbGluZT0iNTYiIGRhdGEtdWlkPSJsbms2MiIgaWQ9ImxpbmtfVmlldyBFeGFtcyBJbmZvcm1hdGlvbl9WaWV3IEV4YW0gUmVzdWx0cyI+PHBhdGggZD0iTTg0OS42NTQ1LDI2OC4xODIyIEM5MTYuMTQ0NSwyNjAuOTEyMiAxMDAyLjA5LDI1MS41MTQ0IDEwNjQuNzgsMjQ0LjY2NDQiIGZpbGw9Im5vbmUiIGlkPSJWaWV3IEV4YW1zIEluZm9ybWF0aW9uLWJhY2t0by1WaWV3IEV4YW0gUmVzdWx0cyIgc3R5bGU9InN0cm9rZTojMTgxODE4O3N0cm9rZS13aWR0aDoxO3N0cm9rZS1kYXNoYXJyYXk6Ny4wLDcuMDsiLz48cG9seWdvbiBmaWxsPSIjMTgxODE4IiBwb2ludHM9Ijg0My42OSwyNjguODM0NCw4NTMuMDcxNCwyNzEuODMyNCw4NDguNjYwNCwyNjguMjkwOSw4NTIuMjAxOSwyNjMuODc5OCw4NDMuNjksMjY4LjgzNDQiIHN0eWxlPSJzdHJva2U6IzE4MTgxODtzdHJva2Utd2lkdGg6MTsiLz48dGV4dCBmaWxsPSIjMDAwMDAwIiBmb250LWZhbWlseT0ic2Fucy1zZXJpZiIgZm9udC1zaXplPSIxMyIgbGVuZ3RoQWRqdXN0PSJzcGFjaW5nIiB0ZXh0TGVuZ3RoPSI1OC41IiB4PSI5MDciIHk9IjI1NS4yNzM0Ij4mIzE3MTtleHRlbmRzJiMxODc7PC90ZXh0PjwvZz48IS0tcmV2ZXJzZSBsaW5rIFZpZXcgRXhhbSBSZXN1bHRzIHRvIEFwcGx5IGZvciBSZWNvcnJlY3Rpb25zLS0+PGcgY2xhc3M9ImxpbmsiIGRhdGEtZW50aXR5LTE9IlZpZXcgRXhhbSBSZXN1bHRzIiBkYXRhLWVudGl0eS0yPSJBcHBseSBmb3IgUmVjb3JyZWN0aW9ucyIgZGF0YS1zb3VyY2UtbGluZT0iNTciIGRhdGEtdWlkPSJsbms2NCIgaWQ9ImxpbmtfVmlldyBFeGFtIFJlc3VsdHNfQXBwbHkgZm9yIFJlY29ycmVjdGlvbnMiPjxwYXRoIGQ9Ik0xMTk2LjY4MjksMjUxLjM4MDcgQzEyNjUuMjgyOSwyNjcuOTIwNyAxMzc3Ljk4LDI5NS4wOTQ0IDE0NTIuMTEsMzEyLjk3NDQiIGZpbGw9Im5vbmUiIGlkPSJWaWV3IEV4YW0gUmVzdWx0cy1iYWNrdG8tQXBwbHkgZm9yIFJlY29ycmVjdGlvbnMiIHN0eWxlPSJzdHJva2U6IzE4MTgxODtzdHJva2Utd2lkdGg6MTtzdHJva2UtZGFzaGFycmF5OjcuMCw3LjA7Ii8+PHBvbHlnb24gZmlsbD0iIzE4MTgxOCIgcG9pbnRzPSIxMTkwLjg1LDI0OS45NzQ0LDExOTguNjYxNywyNTUuOTcyNSwxMTk1LjcxMDcsMjUxLjE0NjMsMTIwMC41MzY4LDI0OC4xOTUzLDExOTAuODUsMjQ5Ljk3NDQiIHN0eWxlPSJzdHJva2U6IzE4MTgxODtzdHJva2Utd2lkdGg6MTsiLz48dGV4dCBmaWxsPSIjMDAwMDAwIiBmb250LWZhbWlseT0ic2Fucy1zZXJpZiIgZm9udC1zaXplPSIxMyIgbGVuZ3RoQWRqdXN0PSJzcGFjaW5nIiB0ZXh0TGVuZ3RoPSI1OC41IiB4PSIxMzA3IiB5PSIyNzkuMjczNCI+JiMxNzE7ZXh0ZW5kcyYjMTg3OzwvdGV4dD48L2c+PCEtLXJldmVyc2UgbGluayBWaWV3IEV4YW0gUmVzdWx0cyB0byBDYWxjdWxhdGUgR1BBLS0+PGcgY2xhc3M9ImxpbmsiIGRhdGEtZW50aXR5LTE9IlZpZXcgRXhhbSBSZXN1bHRzIiBkYXRhLWVudGl0eS0yPSJDYWxjdWxhdGUgR1BBIiBkYXRhLXNvdXJjZS1saW5lPSI1OCIgZGF0YS11aWQ9ImxuazY2IiBpZD0ibGlua19WaWV3IEV4YW0gUmVzdWx0c19DYWxjdWxhdGUgR1BBIj48cGF0aCBkPSJNMTIxOC44MjI2LDI0MS4wNjIyIEMxMjg5LjQ0MjYsMjQ0LjU3MjIgMTM4Ny41OCwyNDkuNDY0NCAxNDU0LjIyLDI1Mi43ODQ0IiBmaWxsPSJub25lIiBpZD0iVmlldyBFeGFtIFJlc3VsdHMtYmFja3RvLUNhbGN1bGF0ZSBHUEEiIHN0eWxlPSJzdHJva2U6IzE4MTgxODtzdHJva2Utd2lkdGg6MTtzdHJva2UtZGFzaGFycmF5OjcuMCw3LjA7Ii8+PHBvbHlnb24gZmlsbD0iIzE4MTgxOCIgcG9pbnRzPSIxMjEyLjgzLDI0MC43NjQ0LDEyMjEuNjIwMywyNDUuMjA2MiwxMjE3LjgyMzgsMjQxLjAxMjYsMTIyMi4wMTc1LDIzNy4yMTYxLDEyMTIuODMsMjQwLjc2NDQiIHN0eWxlPSJzdHJva2U6IzE4MTgxODtzdHJva2Utd2lkdGg6MTsiLz48dGV4dCBmaWxsPSIjMDAwMDAwIiBmb250LWZhbWlseT0ic2Fucy1zZXJpZiIgZm9udC1zaXplPSIxMyIgbGVuZ3RoQWRqdXN0PSJzcGFjaW5nIiB0ZXh0TGVuZ3RoPSI1OC41IiB4PSIxMzA3IiB5PSIyNDQuMjczNCI+JiMxNzE7ZXh0ZW5kcyYjMTg3OzwvdGV4dD48L2c+PCEtLWxpbmsgVXBkYXRlIFN0dWRlbnQgSW5mb3JtYXRpb24gIHRvIFNSLS0+PGcgY2xhc3M9ImxpbmsiIGRhdGEtZW50aXR5LTE9IlVwZGF0ZSBTdHVkZW50IEluZm9ybWF0aW9uICIgZGF0YS1lbnRpdHktMj0iU1IiIGRhdGEtc291cmNlLWxpbmU9IjYwIiBkYXRhLXVpZD0ibG5rNjgiIGlkPSJsaW5rX1VwZGF0ZSBTdHVkZW50IEluZm9ybWF0aW9uIF9TUiI+PHBhdGggZD0iTTE1MzguMjQsMjIxMi41OTQ0IEMxNTc5Ljc1LDIxNTUuNTM0NCAxNjgzLjIxLDIwMTMuMzA0NCAxNzMwLjE2LDE5NDguNzY0NCIgZmlsbD0ibm9uZSIgaWQ9IlVwZGF0ZSBTdHVkZW50IEluZm9ybWF0aW9uIC1TUiIgc3R5bGU9InN0cm9rZTojMTgxODE4O3N0cm9rZS13aWR0aDoxOyIvPjwvZz48IS0tbGluayBVcGRhdGUgRWR1Y2F0aW9uYWwgSW5mb3JtYXRpb24gIHRvIFNSLS0+PGcgY2xhc3M9ImxpbmsiIGRhdGEtZW50aXR5LTE9IlVwZGF0ZSBFZHVjYXRpb25hbCBJbmZvcm1hdGlvbiAiIGRhdGEtZW50aXR5LTI9IlNSIiBkYXRhLXNvdXJjZS1saW5lPSI2MSIgZGF0YS11aWQ9ImxuazcwIiBpZD0ibGlua19VcGRhdGUgRWR1Y2F0aW9uYWwgSW5mb3JtYXRpb24gX1NSIj48cGF0aCBkPSJNMTU0Ni4zOCwxNzA0LjM2NDQgQzE1OTIuMSwxNzUwLjk2NDQgMTY4Ni40NSwxODQ3LjEzNDQgMTczMC40NSwxODkxLjk4NDQiIGZpbGw9Im5vbmUiIGlkPSJVcGRhdGUgRWR1Y2F0aW9uYWwgSW5mb3JtYXRpb24gLVNSIiBzdHlsZT0ic3Ryb2tlOiMxODE4MTg7c3Ryb2tlLXdpZHRoOjE7Ii8+PC9nPjwhLS1saW5rIFVwZGF0ZSBFeGFtIEluZm9ybWF0aW9uICB0byBTUi0tPjxnIGNsYXNzPSJsaW5rIiBkYXRhLWVudGl0eS0xPSJVcGRhdGUgRXhhbSBJbmZvcm1hdGlvbiAiIGRhdGEtZW50aXR5LTI9IlNSIiBkYXRhLXNvdXJjZS1saW5lPSI2MiIgZGF0YS11aWQ9ImxuazcyIiBpZD0ibGlua19VcGRhdGUgRXhhbSBJbmZvcm1hdGlvbiBfU1IiPjxwYXRoIGQ9Ik0xNjIwLjIsMTkxNS45ODQ0IEMxNjYwLjg2LDE5MTUuOTg0NCAxNzA0LjM0LDE5MTUuOTg0NCAxNzMwLjMzLDE5MTUuOTg0NCIgZmlsbD0ibm9uZSIgaWQ9IlVwZGF0ZSBFeGFtIEluZm9ybWF0aW9uIC1TUiIgc3R5bGU9InN0cm9rZTojMTgxODE4O3N0cm9rZS13aWR0aDoxOyIvPjwvZz48IS0tbGluayBUIHRvIFZpZXcgU3R1ZGVudCBJbmZvcm1hdGlvbiAtLT48ZyBjbGFzcz0ibGluayIgZGF0YS1lbnRpdHktMT0iVCIgZGF0YS1lbnRpdHktMj0iVmlldyBTdHVkZW50IEluZm9ybWF0aW9uICIgZGF0YS1zb3VyY2UtbGluZT0iNjQiIGRhdGEtdWlkPSJsbms3NCIgaWQ9ImxpbmtfVF9WaWV3IFN0dWRlbnQgSW5mb3JtYXRpb24gIj48cGF0aCBkPSJNMTM4LjA5LDE4NjYuNTY0NCBDMTc0LjE0LDE5NDMuNTQ0NCAyNTMsMjExMS45ODQ0IDI1MywyMTExLjk4NDQgQzI1MywyMTExLjk4NDQgMjUzLDIxMTEuOTg0NCA1MzQuNSwyMTExLjk4NDQgQzUzNC41LDIxMTEuOTg0NCA2NTMuMTIsMjE3NC4wODQ0IDcxNy41MywyMjA3Ljc5NDQiIGZpbGw9Im5vbmUiIGlkPSJULVZpZXcgU3R1ZGVudCBJbmZvcm1hdGlvbiAiIHN0eWxlPSJzdHJva2U6IzE4MTgxODtzdHJva2Utd2lkdGg6MTsiLz48L2c+PCEtLXJldmVyc2UgbGluayBWaWV3IFN0dWRlbnQgSW5mb3JtYXRpb24gIHRvIENyZWF0ZSBTdHVkZW50IEluZm9ybWF0aW9uIC0tPjxnIGNsYXNzPSJsaW5rIiBkYXRhLWVudGl0eS0xPSJWaWV3IFN0dWRlbnQgSW5mb3JtYXRpb24gIiBkYXRhLWVudGl0eS0yPSJDcmVhdGUgU3R1ZGVudCBJbmZvcm1hdGlvbiAiIGRhdGEtc291cmNlLWxpbmU9IjY1IiBkYXRhLXVpZD0ibG5rNzYiIGlkPSJsaW5rX1ZpZXcgU3R1ZGVudCBJbmZvcm1hdGlvbiBfQ3JlYXRlIFN0dWRlbnQgSW5mb3JtYXRpb24gIj48cGF0aCBkPSJNODU3LjIyMDksMjI0MC4xMjg3IEM5MTMuNTgwOSwyMjQ2LjU5ODcgOTc5LjkxLDIyNTQuMjA0NCAxMDM3LjQyLDIyNjAuNzk0NCIgZmlsbD0ibm9uZSIgaWQ9IlZpZXcgU3R1ZGVudCBJbmZvcm1hdGlvbiAtYmFja3RvLUNyZWF0ZSBTdHVkZW50IEluZm9ybWF0aW9uICIgc3R5bGU9InN0cm9rZTojMTgxODE4O3N0cm9rZS13aWR0aDoxO3N0cm9rZS1kYXNoYXJyYXk6Ny4wLDcuMDsiLz48cG9seWdvbiBmaWxsPSIjMTgxODE4IiBwb2ludHM9Ijg1MS4yNiwyMjM5LjQ0NDQsODU5Ljc0NTEsMjI0NC40NDQ3LDg1Ni4yMjc0LDIyNDAuMDE0Niw4NjAuNjU3NSwyMjM2LjQ5NjksODUxLjI2LDIyMzkuNDQ0NCIgc3R5bGU9InN0cm9rZTojMTgxODE4O3N0cm9rZS13aWR0aDoxOyIvPjx0ZXh0IGZpbGw9IiMwMDAwMDAiIGZvbnQtZmFtaWx5PSJzYW5zLXNlcmlmIiBmb250LXNpemU9IjEzIiBsZW5ndGhBZGp1c3Q9InNwYWNpbmciIHRleHRMZW5ndGg9IjU4LjUiIHg9IjkwNyIgeT0iMjI0NS4yNzM0Ij4mIzE3MTtleHRlbmRzJiMxODc7PC90ZXh0PjwvZz48IS0tcmV2ZXJzZSBsaW5rIFZpZXcgU3R1ZGVudCBJbmZvcm1hdGlvbiAgdG8gRGVsZXRlIFN0dWRlbnQgSW5mb3JtYXRpb24gLS0+PGcgY2xhc3M9ImxpbmsiIGRhdGEtZW50aXR5LTE9IlZpZXcgU3R1ZGVudCBJbmZvcm1hdGlvbiAiIGRhdGEtZW50aXR5LTI9IkRlbGV0ZSBTdHVkZW50IEluZm9ybWF0aW9uICIgZGF0YS1zb3VyY2UtbGluZT0iNjYiIGRhdGEtdWlkPSJsbms3OCIgaWQ9ImxpbmtfVmlldyBTdHVkZW50IEluZm9ybWF0aW9uIF9EZWxldGUgU3R1ZGVudCBJbmZvcm1hdGlvbiAiPjxwYXRoIGQ9Ik04NTguMTg0NCwyMjE4LjI1MiBDOTE0LjEzNDQsMjIxMi4xMzIgOTc5LjUzLDIyMDQuOTg0NCAxMDM2LjU3LDIxOTguNzQ0NCIgZmlsbD0ibm9uZSIgaWQ9IlZpZXcgU3R1ZGVudCBJbmZvcm1hdGlvbiAtYmFja3RvLURlbGV0ZSBTdHVkZW50IEluZm9ybWF0aW9uICIgc3R5bGU9InN0cm9rZTojMTgxODE4O3N0cm9rZS13aWR0aDoxO3N0cm9rZS1kYXNoYXJyYXk6Ny4wLDcuMDsiLz48cG9seWdvbiBmaWxsPSIjMTgxODE4IiBwb2ludHM9Ijg1Mi4yMiwyMjE4LjkwNDQsODYxLjYwMTYsMjIyMS45MDIsODU3LjE5MDQsMjIxOC4zNjA3LDg2MC43MzE3LDIyMTMuOTQ5NSw4NTIuMjIsMjIxOC45MDQ0IiBzdHlsZT0ic3Ryb2tlOiMxODE4MTg7c3Ryb2tlLXdpZHRoOjE7Ii8+PHRleHQgZmlsbD0iIzAwMDAwMCIgZm9udC1mYW1pbHk9InNhbnMtc2VyaWYiIGZvbnQtc2l6ZT0iMTMiIGxlbmd0aEFkanVzdD0ic3BhY2luZyIgdGV4dExlbmd0aD0iNTguNSIgeD0iOTA3IiB5PSIyMjA2LjI3MzQiPiYjMTcxO2V4dGVuZHMmIzE4Nzs8L3RleHQ+PC9nPjwhLS1yZXZlcnNlIGxpbmsgVmlldyBTdHVkZW50IEluZm9ybWF0aW9uICB0byBHZW5lcmF0ZSBTdHVkZW50IEF0dGVuZGFuY2UgUmVwb3J0cy0tPjxnIGNsYXNzPSJsaW5rIiBkYXRhLWVudGl0eS0xPSJWaWV3IFN0dWRlbnQgSW5mb3JtYXRpb24gIiBkYXRhLWVudGl0eS0yPSJHZW5lcmF0ZSBTdHVkZW50IEF0dGVuZGFuY2UgUmVwb3J0cyIgZGF0YS1zb3VyY2UtbGluZT0iNjciIGRhdGEtdWlkPSJsbms4MCIgaWQ9ImxpbmtfVmlldyBTdHVkZW50IEluZm9ybWF0aW9uIF9HZW5lcmF0ZSBTdHVkZW50IEF0dGVuZGFuY2UgUmVwb3J0cyI+PHBhdGggZD0iTTgyMC42OTAzLDIyMDcuNjM0MiBDODkwLjQzMDMsMjE4My4xMTQyIDk5NiwyMTQ1Ljk4NDQgOTk2LDIxNDUuOTg0NCBDOTk2LDIxNDUuOTg0NCAxMDI4LjM1LDIxMzQuODE0NCAxMDYxLjg0LDIxMjMuMjU0NCIgZmlsbD0ibm9uZSIgaWQ9IlZpZXcgU3R1ZGVudCBJbmZvcm1hdGlvbiAtYmFja3RvLUdlbmVyYXRlIFN0dWRlbnQgQXR0ZW5kYW5jZSBSZXBvcnRzIiBzdHlsZT0ic3Ryb2tlOiMxODE4MTg7c3Ryb2tlLXdpZHRoOjE7c3Ryb2tlLWRhc2hhcnJheTo3LjAsNy4wOyIvPjxwb2x5Z29uIGZpbGw9IiMxODE4MTgiIHBvaW50cz0iODE1LjAzLDIyMDkuNjI0NCw4MjQuODQ3MywyMjEwLjQxMjcsODE5Ljc0NjksMjIwNy45NjU5LDgyMi4xOTM4LDIyMDIuODY1Niw4MTUuMDMsMjIwOS42MjQ0IiBzdHlsZT0ic3Ryb2tlOiMxODE4MTg7c3Ryb2tlLXdpZHRoOjE7Ii8+PHRleHQgZmlsbD0iIzAwMDAwMCIgZm9udC1mYW1pbHk9InNhbnMtc2VyaWYiIGZvbnQtc2l6ZT0iMTMiIGxlbmd0aEFkanVzdD0ic3BhY2luZyIgdGV4dExlbmd0aD0iNTguNSIgeD0iOTA3IiB5PSIyMTU3LjI3MzQiPiYjMTcxO2V4dGVuZHMmIzE4Nzs8L3RleHQ+PC9nPjwhLS1yZXZlcnNlIGxpbmsgVmlldyBTdHVkZW50IEluZm9ybWF0aW9uICB0byBHZW5lcmF0ZSBTdHVkZW50IFBlcmZvcm1hbmNlIFJlcG9ydHMtLT48ZyBjbGFzcz0ibGluayIgZGF0YS1lbnRpdHktMT0iVmlldyBTdHVkZW50IEluZm9ybWF0aW9uICIgZGF0YS1lbnRpdHktMj0iR2VuZXJhdGUgU3R1ZGVudCBQZXJmb3JtYW5jZSBSZXBvcnRzIiBkYXRhLXNvdXJjZS1saW5lPSI2OCIgZGF0YS11aWQ9ImxuazgyIiBpZD0ibGlua19WaWV3IFN0dWRlbnQgSW5mb3JtYXRpb24gX0dlbmVyYXRlIFN0dWRlbnQgUGVyZm9ybWFuY2UgUmVwb3J0cyI+PHBhdGggZD0iTTc5NS43MjgyLDIyNTQuNTY3NyBDODU5LjY5ODIsMjMwMC4zNzc3IDk5NiwyMzk3Ljk4NDQgOTk2LDIzOTcuOTg0NCBDOTk2LDIzOTcuOTg0NCAxMDI3LjMxLDI0MDguNzk0NCAxMDYwLjIxLDI0MjAuMTU0NCIgZmlsbD0ibm9uZSIgaWQ9IlZpZXcgU3R1ZGVudCBJbmZvcm1hdGlvbiAtYmFja3RvLUdlbmVyYXRlIFN0dWRlbnQgUGVyZm9ybWFuY2UgUmVwb3J0cyIgc3R5bGU9InN0cm9rZTojMTgxODE4O3N0cm9rZS13aWR0aDoxO3N0cm9rZS1kYXNoYXJyYXk6Ny4wLDcuMDsiLz48cG9seWdvbiBmaWxsPSIjMTgxODE4IiBwb2ludHM9Ijc5MC44NSwyMjUxLjA3NDQsNzk1LjgzODQsMjI1OS41NjY1LDc5NC45MTUxLDIyNTMuOTg1NSw4MDAuNDk2MiwyMjUzLjA2MjMsNzkwLjg1LDIyNTEuMDc0NCIgc3R5bGU9InN0cm9rZTojMTgxODE4O3N0cm9rZS13aWR0aDoxOyIvPjx0ZXh0IGZpbGw9IiMwMDAwMDAiIGZvbnQtZmFtaWx5PSJzYW5zLXNlcmlmIiBmb250LXNpemU9IjEzIiBsZW5ndGhBZGp1c3Q9InNwYWNpbmciIHRleHRMZW5ndGg9IjU4LjUiIHg9IjkwNyIgeT0iMjMzMi4yNzM0Ij4mIzE3MTtleHRlbmRzJiMxODc7PC90ZXh0PjwvZz48IS0tcmV2ZXJzZSBsaW5rIFZpZXcgU3R1ZGVudCBJbmZvcm1hdGlvbiAgdG8gR2VuZXJhdGUgRW5yb2xsbWVudCBSZXBvcnRzLS0+PGcgY2xhc3M9ImxpbmsiIGRhdGEtZW50aXR5LTE9IlZpZXcgU3R1ZGVudCBJbmZvcm1hdGlvbiAiIGRhdGEtZW50aXR5LTI9IkdlbmVyYXRlIEVucm9sbG1lbnQgUmVwb3J0cyIgZGF0YS1zb3VyY2UtbGluZT0iNjkiIGRhdGEtdWlkPSJsbms4NCIgaWQ9ImxpbmtfVmlldyBTdHVkZW50IEluZm9ybWF0aW9uIF9HZW5lcmF0ZSBFbnJvbGxtZW50IFJlcG9ydHMiPjxwYXRoIGQ9Ik04MTkuNzg0OSwyMjUwLjUxNzggQzg4OS40NjQ5LDIyNzUuNjE3OCA5OTYsMjMxMy45ODQ0IDk5NiwyMzEzLjk4NDQgQzk5NiwyMzEzLjk4NDQgMTAzMy44LDIzMjUuNDA0NCAxMDY5Ljk4LDIzMzYuMzM0NCIgZmlsbD0ibm9uZSIgaWQ9IlZpZXcgU3R1ZGVudCBJbmZvcm1hdGlvbiAtYmFja3RvLUdlbmVyYXRlIEVucm9sbG1lbnQgUmVwb3J0cyIgc3R5bGU9InN0cm9rZTojMTgxODE4O3N0cm9rZS13aWR0aDoxO3N0cm9rZS1kYXNoYXJyYXk6Ny4wLDcuMDsiLz48cG9seWdvbiBmaWxsPSIjMTgxODE4IiBwb2ludHM9IjgxNC4xNCwyMjQ4LjQ4NDQsODIxLjI1MTgsMjI1NS4yOTc4LDgxOC44NDQxLDIyNTAuMTc4OSw4MjMuOTYzLDIyNDcuNzcxMiw4MTQuMTQsMjI0OC40ODQ0IiBzdHlsZT0ic3Ryb2tlOiMxODE4MTg7c3Ryb2tlLXdpZHRoOjE7Ii8+PHRleHQgZmlsbD0iIzAwMDAwMCIgZm9udC1mYW1pbHk9InNhbnMtc2VyaWYiIGZvbnQtc2l6ZT0iMTMiIGxlbmd0aEFkanVzdD0ic3BhY2luZyIgdGV4dExlbmd0aD0iNTguNSIgeD0iOTA3IiB5PSIyMjgwLjI3MzQiPiYjMTcxO2V4dGVuZHMmIzE4Nzs8L3RleHQ+PC9nPjwhLS1saW5rIENyZWF0ZSBTdHVkZW50IEluZm9ybWF0aW9uICB0byBVcGRhdGUgU3R1ZGVudCBJbmZvcm1hdGlvbiAtLT48ZyBjbGFzcz0ibGluayIgZGF0YS1lbnRpdHktMT0iQ3JlYXRlIFN0dWRlbnQgSW5mb3JtYXRpb24gIiBkYXRhLWVudGl0eS0yPSJVcGRhdGUgU3R1ZGVudCBJbmZvcm1hdGlvbiAiIGRhdGEtc291cmNlLWxpbmU9IjcxIiBkYXRhLXVpZD0ibG5rODUiIGlkPSJsaW5rX0NyZWF0ZSBTdHVkZW50IEluZm9ybWF0aW9uIF9VcGRhdGUgU3R1ZGVudCBJbmZvcm1hdGlvbiAiPjxwYXRoIGQ9Ik0xMjQzLjc5LDIyNjYuMzg0NCBDMTMwMy40OSwyMjYzLjI2NDQgMTM2NiwyMjU5Ljk4NDQgMTM2NiwyMjU5Ljk4NDQgQzEzNjYsMjI1OS45ODQ0IDEzODguOTk3MiwyMjU2LjUxOTkgMTQyMS42NTcyLDIyNTEuNTg5OSIgZmlsbD0ibm9uZSIgaWQ9IkNyZWF0ZSBTdHVkZW50IEluZm9ybWF0aW9uIC10by1VcGRhdGUgU3R1ZGVudCBJbmZvcm1hdGlvbiAiIHN0eWxlPSJzdHJva2U6IzE4MTgxODtzdHJva2Utd2lkdGg6MTtzdHJva2UtZGFzaGFycmF5OjcuMCw3LjA7Ii8+PHBvbHlnb24gZmlsbD0iIzE4MTgxOCIgcG9pbnRzPSIxNDI3LjU5LDIyNTAuNjk0NCwxNDE4LjA5MzgsMjI0OC4wODI1LDE0MjIuNjQ2LDIyNTEuNDQwNywxNDE5LjI4NzgsMjI1NS45OTI5LDE0MjcuNTksMjI1MC42OTQ0IiBzdHlsZT0ic3Ryb2tlOiMxODE4MTg7c3Ryb2tlLXdpZHRoOjE7Ii8+PHRleHQgZmlsbD0iIzAwMDAwMCIgZm9udC1mYW1pbHk9InNhbnMtc2VyaWYiIGZvbnQtc2l6ZT0iMTMiIGxlbmd0aEFkanVzdD0ic3BhY2luZyIgdGV4dExlbmd0aD0iNTguNSIgeD0iMTMwNyIgeT0iMjI1OC4yNzM0Ij4mIzE3MTtpbmNsdWRlJiMxODc7PC90ZXh0PjwvZz48IS0tbGluayBEZWxldGUgU3R1ZGVudCBJbmZvcm1hdGlvbiAgdG8gVXBkYXRlIFN0dWRlbnQgSW5mb3JtYXRpb24gLS0+PGcgY2xhc3M9ImxpbmsiIGRhdGEtZW50aXR5LTE9IkRlbGV0ZSBTdHVkZW50IEluZm9ybWF0aW9uICIgZGF0YS1lbnRpdHktMj0iVXBkYXRlIFN0dWRlbnQgSW5mb3JtYXRpb24gIiBkYXRhLXNvdXJjZS1saW5lPSI3MiIgZGF0YS11aWQ9Imxuazg2IiBpZD0ibGlua19EZWxldGUgU3R1ZGVudCBJbmZvcm1hdGlvbiBfVXBkYXRlIFN0dWRlbnQgSW5mb3JtYXRpb24gIj48cGF0aCBkPSJNMTIzMi4yOCwyMjAwLjIyNDQgQzEyOTAuNjYsMjIwNy43MjQ0IDEzNTkuMTU4OSwyMjE2LjUyMDIgMTQxNy40ODg5LDIyMjQuMDEwMiIgZmlsbD0ibm9uZSIgaWQ9IkRlbGV0ZSBTdHVkZW50IEluZm9ybWF0aW9uIC10by1VcGRhdGUgU3R1ZGVudCBJbmZvcm1hdGlvbiAiIHN0eWxlPSJzdHJva2U6IzE4MTgxODtzdHJva2Utd2lkdGg6MTtzdHJva2UtZGFzaGFycmF5OjcuMCw3LjA7Ii8+PHBvbHlnb24gZmlsbD0iIzE4MTgxOCIgcG9pbnRzPSIxNDIzLjQ0LDIyMjQuNzc0NCwxNDE1LjAyMjcsMjIxOS42NjA3LDE0MTguNDgwNywyMjI0LjEzNzYsMTQxNC4wMDM4LDIyMjcuNTk1NSwxNDIzLjQ0LDIyMjQuNzc0NCIgc3R5bGU9InN0cm9rZTojMTgxODE4O3N0cm9rZS13aWR0aDoxOyIvPjx0ZXh0IGZpbGw9IiMwMDAwMDAiIGZvbnQtZmFtaWx5PSJzYW5zLXNlcmlmIiBmb250LXNpemU9IjEzIiBsZW5ndGhBZGp1c3Q9InNwYWNpbmciIHRleHRMZW5ndGg9IjU4LjUiIHg9IjEzMDciIHk9IjIyMTAuMjczNCI+JiMxNzE7aW5jbHVkZSYjMTg3OzwvdGV4dD48L2c+PCEtLWxpbmsgR2VuZXJhdGUgU3R1ZGVudCBBdHRlbmRhbmNlIFJlcG9ydHMgdG8gVXBkYXRlIFN0dWRlbnQgSW5mb3JtYXRpb24gLS0+PGcgY2xhc3M9ImxpbmsiIGRhdGEtZW50aXR5LTE9IkdlbmVyYXRlIFN0dWRlbnQgQXR0ZW5kYW5jZSBSZXBvcnRzIiBkYXRhLWVudGl0eS0yPSJVcGRhdGUgU3R1ZGVudCBJbmZvcm1hdGlvbiAiIGRhdGEtc291cmNlLWxpbmU9IjczIiBkYXRhLXVpZD0ibG5rODciIGlkPSJsaW5rX0dlbmVyYXRlIFN0dWRlbnQgQXR0ZW5kYW5jZSBSZXBvcnRzX1VwZGF0ZSBTdHVkZW50IEluZm9ybWF0aW9uICI+PHBhdGggZD0iTTEyMTAuMTYsMjEyMy4yNTQ0IEMxMjQzLjY1LDIxMzQuODE0NCAxMjc2LDIxNDUuOTg0NCAxMjc2LDIxNDUuOTg0NCBDMTI3NiwyMTQ1Ljk4NDQgMTM4NS4wMDI0LDIxODYuODg2NiAxNDU2LjY0MjQsMjIxMy43NjY2IiBmaWxsPSJub25lIiBpZD0iR2VuZXJhdGUgU3R1ZGVudCBBdHRlbmRhbmNlIFJlcG9ydHMtdG8tVXBkYXRlIFN0dWRlbnQgSW5mb3JtYXRpb24gIiBzdHlsZT0ic3Ryb2tlOiMxODE4MTg7c3Ryb2tlLXdpZHRoOjE7c3Ryb2tlLWRhc2hhcnJheTo3LjAsNy4wOyIvPjxwb2x5Z29uIGZpbGw9IiMxODE4MTgiIHBvaW50cz0iMTQ2Mi4yNiwyMjE1Ljg3NDQsMTQ1NS4yMzg4LDIyMDguOTY3NywxNDU3LjU3ODcsMjIxNC4xMTc5LDE0NTIuNDI4NCwyMjE2LjQ1NzgsMTQ2Mi4yNiwyMjE1Ljg3NDQiIHN0eWxlPSJzdHJva2U6IzE4MTgxODtzdHJva2Utd2lkdGg6MTsiLz48dGV4dCBmaWxsPSIjMDAwMDAwIiBmb250LWZhbWlseT0ic2Fucy1zZXJpZiIgZm9udC1zaXplPSIxMyIgbGVuZ3RoQWRqdXN0PSJzcGFjaW5nIiB0ZXh0TGVuZ3RoPSI1OC41IiB4PSIxMzA3IiB5PSIyMTU2LjI3MzQiPiYjMTcxO2luY2x1ZGUmIzE4Nzs8L3RleHQ+PC9nPjwhLS1saW5rIEdlbmVyYXRlIFN0dWRlbnQgUGVyZm9ybWFuY2UgUmVwb3J0cyB0byBVcGRhdGUgU3R1ZGVudCBJbmZvcm1hdGlvbiAtLT48ZyBjbGFzcz0ibGluayIgZGF0YS1lbnRpdHktMT0iR2VuZXJhdGUgU3R1ZGVudCBQZXJmb3JtYW5jZSBSZXBvcnRzIiBkYXRhLWVudGl0eS0yPSJVcGRhdGUgU3R1ZGVudCBJbmZvcm1hdGlvbiAiIGRhdGEtc291cmNlLWxpbmU9Ijc0IiBkYXRhLXVpZD0ibG5rODgiIGlkPSJsaW5rX0dlbmVyYXRlIFN0dWRlbnQgUGVyZm9ybWFuY2UgUmVwb3J0c19VcGRhdGUgU3R1ZGVudCBJbmZvcm1hdGlvbiAiPjxwYXRoIGQ9Ik0xMjExLjc5LDI0MjAuMTU0NCBDMTI0NC42OSwyNDA4Ljc5NDQgMTI3NiwyMzk3Ljk4NDQgMTI3NiwyMzk3Ljk4NDQgQzEyNzYsMjM5Ny45ODQ0IDE0MTEuMzQxMSwyMzA4LjEyMjYgMTQ3OC41MDExLDIyNjMuNTQyNiIgZmlsbD0ibm9uZSIgaWQ9IkdlbmVyYXRlIFN0dWRlbnQgUGVyZm9ybWFuY2UgUmVwb3J0cy10by1VcGRhdGUgU3R1ZGVudCBJbmZvcm1hdGlvbiAiIHN0eWxlPSJzdHJva2U6IzE4MTgxODtzdHJva2Utd2lkdGg6MTtzdHJva2UtZGFzaGFycmF5OjcuMCw3LjA7Ii8+PHBvbHlnb24gZmlsbD0iIzE4MTgxOCIgcG9pbnRzPSIxNDgzLjUsMjI2MC4yMjQ0LDE0NzMuNzg5NCwyMjYxLjg2OTEsMTQ3OS4zMzQyLDIyNjIuOTg5NiwxNDc4LjIxMzgsMjI2OC41MzQzLDE0ODMuNSwyMjYwLjIyNDQiIHN0eWxlPSJzdHJva2U6IzE4MTgxODtzdHJva2Utd2lkdGg6MTsiLz48dGV4dCBmaWxsPSIjMDAwMDAwIiBmb250LWZhbWlseT0ic2Fucy1zZXJpZiIgZm9udC1zaXplPSIxMyIgbGVuZ3RoQWRqdXN0PSJzcGFjaW5nIiB0ZXh0TGVuZ3RoPSI1OC41IiB4PSIxMzA3IiB5PSIyMzQwLjI3MzQiPiYjMTcxO2luY2x1ZGUmIzE4Nzs8L3RleHQ+PC9nPjwhLS1saW5rIEdlbmVyYXRlIEVucm9sbG1lbnQgUmVwb3J0cyB0byBVcGRhdGUgU3R1ZGVudCBJbmZvcm1hdGlvbiAtLT48ZyBjbGFzcz0ibGluayIgZGF0YS1lbnRpdHktMT0iR2VuZXJhdGUgRW5yb2xsbWVudCBSZXBvcnRzIiBkYXRhLWVudGl0eS0yPSJVcGRhdGUgU3R1ZGVudCBJbmZvcm1hdGlvbiAiIGRhdGEtc291cmNlLWxpbmU9Ijc1IiBkYXRhLXVpZD0ibG5rODkiIGlkPSJsaW5rX0dlbmVyYXRlIEVucm9sbG1lbnQgUmVwb3J0c19VcGRhdGUgU3R1ZGVudCBJbmZvcm1hdGlvbiAiPjxwYXRoIGQ9Ik0xMjAyLjAyLDIzMzYuMzM0NCBDMTIzOC4yLDIzMjUuNDA0NCAxMjc2LDIzMTMuOTg0NCAxMjc2LDIzMTMuOTg0NCBDMTI3NiwyMzEzLjk4NDQgMTM2NiwyMjg1Ljk4NDQgMTM2NiwyMjg1Ljk4NDQgQzEzNjYsMjI4NS45ODQ0IDE0MDguMjA3NiwyMjcyLjQxOTggMTQ1MC4zMTc2LDIyNTguODg5OCIgZmlsbD0ibm9uZSIgaWQ9IkdlbmVyYXRlIEVucm9sbG1lbnQgUmVwb3J0cy10by1VcGRhdGUgU3R1ZGVudCBJbmZvcm1hdGlvbiAiIHN0eWxlPSJzdHJva2U6IzE4MTgxODtzdHJva2Utd2lkdGg6MTtzdHJva2UtZGFzaGFycmF5OjcuMCw3LjA7Ii8+PHBvbHlnb24gZmlsbD0iIzE4MTgxOCIgcG9pbnRzPSIxNDU2LjAzLDIyNTcuMDU0NCwxNDQ2LjIzNzgsMjI1NS45OTkyLDE0NTEuMjY5NywyMjU4LjU4MzksMTQ0OC42ODUsMjI2My42MTU3LDE0NTYuMDMsMjI1Ny4wNTQ0IiBzdHlsZT0ic3Ryb2tlOiMxODE4MTg7c3Ryb2tlLXdpZHRoOjE7Ii8+PHRleHQgZmlsbD0iIzAwMDAwMCIgZm9udC1mYW1pbHk9InNhbnMtc2VyaWYiIGZvbnQtc2l6ZT0iMTMiIGxlbmd0aEFkanVzdD0ic3BhY2luZyIgdGV4dExlbmd0aD0iNTguNSIgeD0iMTMwNyIgeT0iMjI4NC4yNzM0Ij4mIzE3MTtpbmNsdWRlJiMxODc7PC90ZXh0PjwvZz48IS0tbGluayBUIHRvIFZpZXcgRWR1Y2F0aW9uYWwgSW5mb3JtYXRpb24gLS0+PGcgY2xhc3M9ImxpbmsiIGRhdGEtZW50aXR5LTE9IlQiIGRhdGEtZW50aXR5LTI9IlZpZXcgRWR1Y2F0aW9uYWwgSW5mb3JtYXRpb24gIiBkYXRhLXNvdXJjZS1saW5lPSI3NyIgZGF0YS11aWQ9ImxuazkxIiBpZD0ibGlua19UX1ZpZXcgRWR1Y2F0aW9uYWwgSW5mb3JtYXRpb24gIj48cGF0aCBkPSJNMTQ0LjE5LDE4MTkuNjg0NCBDMTgyLjMsMTgwNC43MzQ0IDI1MywxNzc2Ljk4NDQgMjUzLDE3NzYuOTg0NCBDMjUzLDE3NzYuOTg0NCAyNTMsMTc3Ni45ODQ0IDUzNC41LDE3NzYuOTg0NCBDNTM0LjUsMTc3Ni45ODQ0IDYxOS45MSwxNzUzLjI5NDQgNjg1LjEzLDE3MzUuMjA0NCIgZmlsbD0ibm9uZSIgaWQ9IlQtVmlldyBFZHVjYXRpb25hbCBJbmZvcm1hdGlvbiAiIHN0eWxlPSJzdHJva2U6IzE4MTgxODtzdHJva2Utd2lkdGg6MTsiLz48L2c+PCEtLXJldmVyc2UgbGluayBWaWV3IEVkdWNhdGlvbmFsIEluZm9ybWF0aW9uICB0byBDcmVhdGUgQXNzZXNzbWVudHMtLT48ZyBjbGFzcz0ibGluayIgZGF0YS1lbnRpdHktMT0iVmlldyBFZHVjYXRpb25hbCBJbmZvcm1hdGlvbiAiIGRhdGEtZW50aXR5LTI9IkNyZWF0ZSBBc3Nlc3NtZW50cyIgZGF0YS1zb3VyY2UtbGluZT0iNzgiIGRhdGEtdWlkPSJsbms5MyIgaWQ9ImxpbmtfVmlldyBFZHVjYXRpb25hbCBJbmZvcm1hdGlvbiBfQ3JlYXRlIEFzc2Vzc21lbnRzIj48cGF0aCBkPSJNODMzLjY3MjIsMTY5Mi4xOTE4IEM5MDMuMzkyMiwxNjcwLjYzMTggOTk2LDE2NDEuOTg0NCA5OTYsMTY0MS45ODQ0IEM5OTYsMTY0MS45ODQ0IDEwNDIuNDYsMTYyOS45NTQ0IDEwODEuNjYsMTYxOS44MDQ0IiBmaWxsPSJub25lIiBpZD0iVmlldyBFZHVjYXRpb25hbCBJbmZvcm1hdGlvbiAtYmFja3RvLUNyZWF0ZSBBc3Nlc3NtZW50cyIgc3R5bGU9InN0cm9rZTojMTgxODE4O3N0cm9rZS13aWR0aDoxO3N0cm9rZS1kYXNoYXJyYXk6Ny4wLDcuMDsiLz48cG9seWdvbiBmaWxsPSIjMTgxODE4IiBwb2ludHM9IjgyNy45NCwxNjkzLjk2NDQsODM3LjcyLDE2OTUuMTI2OSw4MzIuNzE2OCwxNjkyLjQ4NzIsODM1LjM1NjUsMTY4Ny40ODQsODI3Ljk0LDE2OTMuOTY0NCIgc3R5bGU9InN0cm9rZTojMTgxODE4O3N0cm9rZS13aWR0aDoxOyIvPjx0ZXh0IGZpbGw9IiMwMDAwMDAiIGZvbnQtZmFtaWx5PSJzYW5zLXNlcmlmIiBmb250LXNpemU9IjEzIiBsZW5ndGhBZGp1c3Q9InNwYWNpbmciIHRleHRMZW5ndGg9IjU4LjUiIHg9IjkwNyIgeT0iMTY1MS4yNzM0Ij4mIzE3MTtleHRlbmRzJiMxODc7PC90ZXh0PjwvZz48IS0tcmV2ZXJzZSBsaW5rIFZpZXcgRWR1Y2F0aW9uYWwgSW5mb3JtYXRpb24gIHRvIEVkaXQgQXNzZXNzbWVudHMtLT48ZyBjbGFzcz0ibGluayIgZGF0YS1lbnRpdHktMT0iVmlldyBFZHVjYXRpb25hbCBJbmZvcm1hdGlvbiAiIGRhdGEtZW50aXR5LTI9IkVkaXQgQXNzZXNzbWVudHMiIGRhdGEtc291cmNlLWxpbmU9Ijc5IiBkYXRhLXVpZD0ibG5rOTUiIGlkPSJsaW5rX1ZpZXcgRWR1Y2F0aW9uYWwgSW5mb3JtYXRpb24gX0VkaXQgQXNzZXNzbWVudHMiPjxwYXRoIGQ9Ik04NTIuOTI1LDE3MzMuNDQzNSBDODg0LjE4NSwxNzM5LjY1MzUgOTA2LDE3NDMuOTg0NCA5MDYsMTc0My45ODQ0IEM5MDYsMTc0My45ODQ0IDk5My43OCwxNzQ1LjkwNDQgMTA2MC42NSwxNzQ3LjM2NDQiIGZpbGw9Im5vbmUiIGlkPSJWaWV3IEVkdWNhdGlvbmFsIEluZm9ybWF0aW9uIC1iYWNrdG8tRWRpdCBBc3Nlc3NtZW50cyIgc3R5bGU9InN0cm9rZTojMTgxODE4O3N0cm9rZS13aWR0aDoxO3N0cm9rZS1kYXNoYXJyYXk6Ny4wLDcuMDsiLz48cG9seWdvbiBmaWxsPSIjMTgxODE4IiBwb2ludHM9Ijg0Ny4wNCwxNzMyLjI3NDQsODU1LjA4ODEsMTczNy45NTEzLDg1MS45NDQyLDE3MzMuMjQ4Niw4NTYuNjQ2OSwxNzMwLjEwNDcsODQ3LjA0LDE3MzIuMjc0NCIgc3R5bGU9InN0cm9rZTojMTgxODE4O3N0cm9rZS13aWR0aDoxOyIvPjx0ZXh0IGZpbGw9IiMwMDAwMDAiIGZvbnQtZmFtaWx5PSJzYW5zLXNlcmlmIiBmb250LXNpemU9IjEzIiBsZW5ndGhBZGp1c3Q9InNwYWNpbmciIHRleHRMZW5ndGg9IjU4LjUiIHg9IjkwNyIgeT0iMTc0Mi4yNzM0Ij4mIzE3MTtleHRlbmRzJiMxODc7PC90ZXh0PjwvZz48IS0tcmV2ZXJzZSBsaW5rIFZpZXcgRWR1Y2F0aW9uYWwgSW5mb3JtYXRpb24gIHRvIERlbGV0ZSBBc3Nlc3NtZW50cy0tPjxnIGNsYXNzPSJsaW5rIiBkYXRhLWVudGl0eS0xPSJWaWV3IEVkdWNhdGlvbmFsIEluZm9ybWF0aW9uICIgZGF0YS1lbnRpdHktMj0iRGVsZXRlIEFzc2Vzc21lbnRzIiBkYXRhLXNvdXJjZS1saW5lPSI4MCIgZGF0YS11aWQ9Imxuazk3IiBpZD0ibGlua19WaWV3IEVkdWNhdGlvbmFsIEluZm9ybWF0aW9uIF9EZWxldGUgQXNzZXNzbWVudHMiPjxwYXRoIGQ9Ik04NzIuNDMwOSwxNzAzLjg5NDQgQzkzNC41NzA5LDE2OTcuNzU0NCAxMDA1LjQ2LDE2OTAuNzY0NCAxMDYxLDE2ODUuMjg0NCIgZmlsbD0ibm9uZSIgaWQ9IlZpZXcgRWR1Y2F0aW9uYWwgSW5mb3JtYXRpb24gLWJhY2t0by1EZWxldGUgQXNzZXNzbWVudHMiIHN0eWxlPSJzdHJva2U6IzE4MTgxODtzdHJva2Utd2lkdGg6MTtzdHJva2UtZGFzaGFycmF5OjcuMCw3LjA7Ii8+PHBvbHlnb24gZmlsbD0iIzE4MTgxOCIgcG9pbnRzPSI4NjYuNDYsMTcwNC40ODQ0LDg3NS44MDk3LDE3MDcuNTgsODcxLjQzNTgsMTcwMy45OTI3LDg3NS4wMjMxLDE2OTkuNjE4OCw4NjYuNDYsMTcwNC40ODQ0IiBzdHlsZT0ic3Ryb2tlOiMxODE4MTg7c3Ryb2tlLXdpZHRoOjE7Ii8+PHRleHQgZmlsbD0iIzAwMDAwMCIgZm9udC1mYW1pbHk9InNhbnMtc2VyaWYiIGZvbnQtc2l6ZT0iMTMiIGxlbmd0aEFkanVzdD0ic3BhY2luZyIgdGV4dExlbmd0aD0iNTguNSIgeD0iOTA3IiB5PSIxNjk0LjI3MzQiPiYjMTcxO2V4dGVuZHMmIzE4Nzs8L3RleHQ+PC9nPjwhLS1saW5rIFQgdG8gVmlldyBTdHVkZW50IFN1Ym1pc3Npb25zLS0+PGcgY2xhc3M9ImxpbmsiIGRhdGEtZW50aXR5LTE9IlQiIGRhdGEtZW50aXR5LTI9IlZpZXcgU3R1ZGVudCBTdWJtaXNzaW9ucyIgZGF0YS1zb3VyY2UtbGluZT0iODIiIGRhdGEtdWlkPSJsbms5OSIgaWQ9ImxpbmtfVF9WaWV3IFN0dWRlbnQgU3VibWlzc2lvbnMiPjxwYXRoIGQ9Ik0xNDQuMTksMTc5NS4xOTQ0IEMxODIuMywxNzQwLjgzNDQgMjUzLDE2MzkuOTg0NCAyNTMsMTYzOS45ODQ0IEMyNTMsMTYzOS45ODQ0IDI1MywxNjM5Ljk4NDQgNTM0LjUsMTYzOS45ODQ0IEM1MzQuNSwxNjM5Ljk4NDQgNjMxLjMzLDE2MTEuMzk0NCA2OTcuNTIsMTU5MS44NDQ0IiBmaWxsPSJub25lIiBpZD0iVC1WaWV3IFN0dWRlbnQgU3VibWlzc2lvbnMiIHN0eWxlPSJzdHJva2U6IzE4MTgxODtzdHJva2Utd2lkdGg6MTsiLz48L2c+PCEtLXJldmVyc2UgbGluayBWaWV3IFN0dWRlbnQgU3VibWlzc2lvbnMgdG8gTWFyayBTdHVkZW50IFN1Ym1pc3Npb25zLS0+PGcgY2xhc3M9ImxpbmsiIGRhdGEtZW50aXR5LTE9IlZpZXcgU3R1ZGVudCBTdWJtaXNzaW9ucyIgZGF0YS1lbnRpdHktMj0iTWFyayBTdHVkZW50IFN1Ym1pc3Npb25zIiBkYXRhLXNvdXJjZS1saW5lPSI4MyIgZGF0YS11aWQ9ImxuazEwMSIgaWQ9ImxpbmtfVmlldyBTdHVkZW50IFN1Ym1pc3Npb25zX01hcmsgU3R1ZGVudCBTdWJtaXNzaW9ucyI+PHBhdGggZD0iTTg1NC4zNDkyLDE1NjIuOTE1NSBDOTE0LjExOTIsMTU1NS45MDU1IDk4Ni43NywxNTQ3LjM3NDQgMTA0Ni41NSwxNTQwLjM2NDQiIGZpbGw9Im5vbmUiIGlkPSJWaWV3IFN0dWRlbnQgU3VibWlzc2lvbnMtYmFja3RvLU1hcmsgU3R1ZGVudCBTdWJtaXNzaW9ucyIgc3R5bGU9InN0cm9rZTojMTgxODE4O3N0cm9rZS13aWR0aDoxO3N0cm9rZS1kYXNoYXJyYXk6Ny4wLDcuMDsiLz48cG9seWdvbiBmaWxsPSIjMTgxODE4IiBwb2ludHM9Ijg0OC4zOSwxNTYzLjYxNDQsODU3Ljc5NDcsMTU2Ni41Mzg4LDg1My4zNTYsMTU2My4wMzIsODU2Ljg2MjgsMTU1OC41OTMyLDg0OC4zOSwxNTYzLjYxNDQiIHN0eWxlPSJzdHJva2U6IzE4MTgxODtzdHJva2Utd2lkdGg6MTsiLz48dGV4dCBmaWxsPSIjMDAwMDAwIiBmb250LWZhbWlseT0ic2Fucy1zZXJpZiIgZm9udC1zaXplPSIxMyIgbGVuZ3RoQWRqdXN0PSJzcGFjaW5nIiB0ZXh0TGVuZ3RoPSI1OC41IiB4PSI5MDciIHk9IjE1NDkuMjczNCI+JiMxNzE7ZXh0ZW5kcyYjMTg3OzwvdGV4dD48L2c+PCEtLWxpbmsgQ3JlYXRlIEFzc2Vzc21lbnRzIHRvIFVwZGF0ZSBFZHVjYXRpb25hbCBJbmZvcm1hdGlvbiAtLT48ZyBjbGFzcz0ibGluayIgZGF0YS1lbnRpdHktMT0iQ3JlYXRlIEFzc2Vzc21lbnRzIiBkYXRhLWVudGl0eS0yPSJVcGRhdGUgRWR1Y2F0aW9uYWwgSW5mb3JtYXRpb24gIiBkYXRhLXNvdXJjZS1saW5lPSI4NSIgZGF0YS11aWQ9ImxuazEwMiIgaWQ9ImxpbmtfQ3JlYXRlIEFzc2Vzc21lbnRzX1VwZGF0ZSBFZHVjYXRpb25hbCBJbmZvcm1hdGlvbiAiPjxwYXRoIGQ9Ik0xMTk5LjE0LDE2MTcuNzE0NCBDMTI2MC40OCwxNjI5LjI4NDQgMTM0OS4xMjQxLDE2NDYuMDIxOCAxNDE5LjQ0NDEsMTY1OS4yOTE4IiBmaWxsPSJub25lIiBpZD0iQ3JlYXRlIEFzc2Vzc21lbnRzLXRvLVVwZGF0ZSBFZHVjYXRpb25hbCBJbmZvcm1hdGlvbiAiIHN0eWxlPSJzdHJva2U6IzE4MTgxODtzdHJva2Utd2lkdGg6MTtzdHJva2UtZGFzaGFycmF5OjcuMCw3LjA7Ii8+PHBvbHlnb24gZmlsbD0iIzE4MTgxOCIgcG9pbnRzPSIxNDI1LjM0LDE2NjAuNDA0NCwxNDE3LjIzNzgsMTY1NC44MDQ4LDE0MjAuNDI2NywxNjU5LjQ3NzIsMTQxNS43NTQzLDE2NjIuNjY2MSwxNDI1LjM0LDE2NjAuNDA0NCIgc3R5bGU9InN0cm9rZTojMTgxODE4O3N0cm9rZS13aWR0aDoxOyIvPjx0ZXh0IGZpbGw9IiMwMDAwMDAiIGZvbnQtZmFtaWx5PSJzYW5zLXNlcmlmIiBmb250LXNpemU9IjEzIiBsZW5ndGhBZGp1c3Q9InNwYWNpbmciIHRleHRMZW5ndGg9IjU4LjUiIHg9IjEzMDciIHk9IjE2MzguMjczNCI+JiMxNzE7aW5jbHVkZSYjMTg3OzwvdGV4dD48L2c+PCEtLWxpbmsgRWRpdCBBc3Nlc3NtZW50cyB0byBVcGRhdGUgRWR1Y2F0aW9uYWwgSW5mb3JtYXRpb24gLS0+PGcgY2xhc3M9ImxpbmsiIGRhdGEtZW50aXR5LTE9IkVkaXQgQXNzZXNzbWVudHMiIGRhdGEtZW50aXR5LTI9IlVwZGF0ZSBFZHVjYXRpb25hbCBJbmZvcm1hdGlvbiAiIGRhdGEtc291cmNlLWxpbmU9Ijg2IiBkYXRhLXVpZD0ibG5rMTAzIiBpZD0ibGlua19FZGl0IEFzc2Vzc21lbnRzX1VwZGF0ZSBFZHVjYXRpb25hbCBJbmZvcm1hdGlvbiAiPjxwYXRoIGQ9Ik0xMTk1LjM2LDE3MzguMTI0NCBDMTI1Ni40MSwxNzI2Ljc2NDQgMTM0Ny4yNzEzLDE3MDkuODUyMSAxNDE5LjAxMTMsMTY5Ni41MDIxIiBmaWxsPSJub25lIiBpZD0iRWRpdCBBc3Nlc3NtZW50cy10by1VcGRhdGUgRWR1Y2F0aW9uYWwgSW5mb3JtYXRpb24gIiBzdHlsZT0ic3Ryb2tlOiMxODE4MTg7c3Ryb2tlLXdpZHRoOjE7c3Ryb2tlLWRhc2hhcnJheTo3LjAsNy4wOyIvPjxwb2x5Z29uIGZpbGw9IiMxODE4MTgiIHBvaW50cz0iMTQyNC45MSwxNjk1LjQwNDQsMTQxNS4zMzAxLDE2OTMuMTE4NCwxNDE5Ljk5NDQsMTY5Ni4zMTkxLDE0MTYuNzkzNywxNzAwLjk4MzQsMTQyNC45MSwxNjk1LjQwNDQiIHN0eWxlPSJzdHJva2U6IzE4MTgxODtzdHJva2Utd2lkdGg6MTsiLz48dGV4dCBmaWxsPSIjMDAwMDAwIiBmb250LWZhbWlseT0ic2Fucy1zZXJpZiIgZm9udC1zaXplPSIxMyIgbGVuZ3RoQWRqdXN0PSJzcGFjaW5nIiB0ZXh0TGVuZ3RoPSI1OC41IiB4PSIxMzA3IiB5PSIxNzA2LjI3MzQiPiYjMTcxO2luY2x1ZGUmIzE4Nzs8L3RleHQ+PC9nPjwhLS1saW5rIERlbGV0ZSBBc3Nlc3NtZW50cyB0byBVcGRhdGUgRWR1Y2F0aW9uYWwgSW5mb3JtYXRpb24gLS0+PGcgY2xhc3M9ImxpbmsiIGRhdGEtZW50aXR5LTE9IkRlbGV0ZSBBc3Nlc3NtZW50cyIgZGF0YS1lbnRpdHktMj0iVXBkYXRlIEVkdWNhdGlvbmFsIEluZm9ybWF0aW9uICIgZGF0YS1zb3VyY2UtbGluZT0iODciIGRhdGEtdWlkPSJsbmsxMDQiIGlkPSJsaW5rX0RlbGV0ZSBBc3Nlc3NtZW50c19VcGRhdGUgRWR1Y2F0aW9uYWwgSW5mb3JtYXRpb24gIj48cGF0aCBkPSJNMTIxNy45MSwxNjc3Ljk4NDQgQzEyNjkuNjMsMTY3Ny45ODQ0IDEzMzEuNzEsMTY3Ny45ODQ0IDEzOTAsMTY3Ny45ODQ0IiBmaWxsPSJub25lIiBpZD0iRGVsZXRlIEFzc2Vzc21lbnRzLXRvLVVwZGF0ZSBFZHVjYXRpb25hbCBJbmZvcm1hdGlvbiAiIHN0eWxlPSJzdHJva2U6IzE4MTgxODtzdHJva2Utd2lkdGg6MTtzdHJva2UtZGFzaGFycmF5OjcuMCw3LjA7Ii8+PHBvbHlnb24gZmlsbD0iIzE4MTgxOCIgcG9pbnRzPSIxMzk2LDE2NzcuOTg0NCwxMzg3LDE2NzMuOTg0NCwxMzkxLDE2NzcuOTg0NCwxMzg3LDE2ODEuOTg0NCwxMzk2LDE2NzcuOTg0NCIgc3R5bGU9InN0cm9rZTojMTgxODE4O3N0cm9rZS13aWR0aDoxOyIvPjx0ZXh0IGZpbGw9IiMwMDAwMDAiIGZvbnQtZmFtaWx5PSJzYW5zLXNlcmlmIiBmb250LXNpemU9IjEzIiBsZW5ndGhBZGp1c3Q9InNwYWNpbmciIHRleHRMZW5ndGg9IjU4LjUiIHg9IjEzMDciIHk9IjE2NzYuMjczNCI+JiMxNzE7aW5jbHVkZSYjMTg3OzwvdGV4dD48L2c+PCEtLWxpbmsgTWFyayBTdHVkZW50IFN1Ym1pc3Npb25zIHRvIFVwZGF0ZSBFZHVjYXRpb25hbCBJbmZvcm1hdGlvbiAtLT48ZyBjbGFzcz0ibGluayIgZGF0YS1lbnRpdHktMT0iTWFyayBTdHVkZW50IFN1Ym1pc3Npb25zIiBkYXRhLWVudGl0eS0yPSJVcGRhdGUgRWR1Y2F0aW9uYWwgSW5mb3JtYXRpb24gIiBkYXRhLXNvdXJjZS1saW5lPSI4OCIgZGF0YS11aWQ9ImxuazEwNSIgaWQ9ImxpbmtfTWFyayBTdHVkZW50IFN1Ym1pc3Npb25zX1VwZGF0ZSBFZHVjYXRpb25hbCBJbmZvcm1hdGlvbiAiPjxwYXRoIGQ9Ik0xMTk4LjM3LDE1NDcuNjQ0NCBDMTIzNS42MSwxNTU4LjM2NDQgMTI3NiwxNTY5Ljk4NDQgMTI3NiwxNTY5Ljk4NDQgQzEyNzYsMTU2OS45ODQ0IDEzODcuMDk4OSwxNjE5LjQ2MzYgMTQ1OC41OTg5LDE2NTEuMzAzNiIgZmlsbD0ibm9uZSIgaWQ9Ik1hcmsgU3R1ZGVudCBTdWJtaXNzaW9ucy10by1VcGRhdGUgRWR1Y2F0aW9uYWwgSW5mb3JtYXRpb24gIiBzdHlsZT0ic3Ryb2tlOiMxODE4MTg7c3Ryb2tlLXdpZHRoOjE7c3Ryb2tlLWRhc2hhcnJheTo3LjAsNy4wOyIvPjxwb2x5Z29uIGZpbGw9IiMxODE4MTgiIHBvaW50cz0iMTQ2NC4wOCwxNjUzLjc0NDQsMTQ1Ny40ODU2LDE2NDYuNDI5MSwxNDU5LjUxMjQsMTY1MS43MTA0LDE0NTQuMjMxMSwxNjUzLjczNzIsMTQ2NC4wOCwxNjUzLjc0NDQiIHN0eWxlPSJzdHJva2U6IzE4MTgxODtzdHJva2Utd2lkdGg6MTsiLz48dGV4dCBmaWxsPSIjMDAwMDAwIiBmb250LWZhbWlseT0ic2Fucy1zZXJpZiIgZm9udC1zaXplPSIxMyIgbGVuZ3RoQWRqdXN0PSJzcGFjaW5nIiB0ZXh0TGVuZ3RoPSI1OC41IiB4PSIxMzA3IiB5PSIxNTgyLjI3MzQiPiYjMTcxO2luY2x1ZGUmIzE4Nzs8L3RleHQ+PC9nPjwhLS1saW5rIFQgdG8gVmlldyBFeGFtIEluZm9ybWF0aW9uIC0tPjxnIGNsYXNzPSJsaW5rIiBkYXRhLWVudGl0eS0xPSJUIiBkYXRhLWVudGl0eS0yPSJWaWV3IEV4YW0gSW5mb3JtYXRpb24gIiBkYXRhLXNvdXJjZS1saW5lPSI5MCIgZGF0YS11aWQ9ImxuazEwNyIgaWQ9ImxpbmtfVF9WaWV3IEV4YW0gSW5mb3JtYXRpb24gIj48cGF0aCBkPSJNMTQ0LjE5LDE4MzUuNDI0NCBDMTgyLjMsMTg0NS43NzQ0IDI1MywxODY0Ljk4NDQgMjUzLDE4NjQuOTg0NCBDMjUzLDE4NjQuOTg0NCAyNTMsMTg2NC45ODQ0IDUzNC41LDE4NjQuOTg0NCBDNTM0LjUsMTg2NC45ODQ0IDYwNy4xOSwxODcwLjUxNDQgNjY5LjY3LDE4NzUuMjY0NCIgZmlsbD0ibm9uZSIgaWQ9IlQtVmlldyBFeGFtIEluZm9ybWF0aW9uICIgc3R5bGU9InN0cm9rZTojMTgxODE4O3N0cm9rZS13aWR0aDoxOyIvPjwvZz48IS0tcmV2ZXJzZSBsaW5rIFZpZXcgRXhhbSBJbmZvcm1hdGlvbiAgdG8gQ3JlYXRlIEV4YW1zLS0+PGcgY2xhc3M9ImxpbmsiIGRhdGEtZW50aXR5LTE9IlZpZXcgRXhhbSBJbmZvcm1hdGlvbiAiIGRhdGEtZW50aXR5LTI9IkNyZWF0ZSBFeGFtcyIgZGF0YS1zb3VyY2UtbGluZT0iOTEiIGRhdGEtdWlkPSJsbmsxMDkiIGlkPSJsaW5rX1ZpZXcgRXhhbSBJbmZvcm1hdGlvbiBfQ3JlYXRlIEV4YW1zIj48cGF0aCBkPSJNODU5LjE4LDE4ODEuOTg0NCBDOTI3LjI5LDE4ODEuOTg0NCAxMDExLjg2LDE4ODEuOTg0NCAxMDcxLjcyLDE4ODEuOTg0NCIgZmlsbD0ibm9uZSIgaWQ9IlZpZXcgRXhhbSBJbmZvcm1hdGlvbiAtYmFja3RvLUNyZWF0ZSBFeGFtcyIgc3R5bGU9InN0cm9rZTojMTgxODE4O3N0cm9rZS13aWR0aDoxO3N0cm9rZS1kYXNoYXJyYXk6Ny4wLDcuMDsiLz48cG9seWdvbiBmaWxsPSIjMTgxODE4IiBwb2ludHM9Ijg1My4xOCwxODgxLjk4NDQsODYyLjE4LDE4ODUuOTg0NCw4NTguMTgsMTg4MS45ODQ0LDg2Mi4xOCwxODc3Ljk4NDQsODUzLjE4LDE4ODEuOTg0NCIgc3R5bGU9InN0cm9rZTojMTgxODE4O3N0cm9rZS13aWR0aDoxOyIvPjx0ZXh0IGZpbGw9IiMwMDAwMDAiIGZvbnQtZmFtaWx5PSJzYW5zLXNlcmlmIiBmb250LXNpemU9IjEzIiBsZW5ndGhBZGp1c3Q9InNwYWNpbmciIHRleHRMZW5ndGg9IjU4LjUiIHg9IjkwNyIgeT0iMTg4MC4yNzM0Ij4mIzE3MTtleHRlbmRzJiMxODc7PC90ZXh0PjwvZz48IS0tcmV2ZXJzZSBsaW5rIFZpZXcgRXhhbSBJbmZvcm1hdGlvbiAgdG8gVXBkYXRlIEV4YW1zLS0+PGcgY2xhc3M9ImxpbmsiIGRhdGEtZW50aXR5LTE9IlZpZXcgRXhhbSBJbmZvcm1hdGlvbiAiIGRhdGEtZW50aXR5LTI9IlVwZGF0ZSBFeGFtcyIgZGF0YS1zb3VyY2UtbGluZT0iOTIiIGRhdGEtdWlkPSJsbmsxMTEiIGlkPSJsaW5rX1ZpZXcgRXhhbSBJbmZvcm1hdGlvbiBfVXBkYXRlIEV4YW1zIj48cGF0aCBkPSJNODQwLjAwMTgsMTg2OC4xMTk2IEM5MTMuOTYxOCwxODU1LjI5OTYgMTAxOS43MiwxODM2Ljk2NDQgMTA4NC4xOSwxODI1Ljc5NDQiIGZpbGw9Im5vbmUiIGlkPSJWaWV3IEV4YW0gSW5mb3JtYXRpb24gLWJhY2t0by1VcGRhdGUgRXhhbXMiIHN0eWxlPSJzdHJva2U6IzE4MTgxODtzdHJva2Utd2lkdGg6MTtzdHJva2UtZGFzaGFycmF5OjcuMCw3LjA7Ii8+PHBvbHlnb24gZmlsbD0iIzE4MTgxOCIgcG9pbnRzPSI4MzQuMDksMTg2OS4xNDQ0LDg0My42NDA5LDE4NzEuNTQ4NSw4MzkuMDE2NSwxODY4LjI5MDQsODQyLjI3NDYsMTg2My42NjYsODM0LjA5LDE4NjkuMTQ0NCIgc3R5bGU9InN0cm9rZTojMTgxODE4O3N0cm9rZS13aWR0aDoxOyIvPjx0ZXh0IGZpbGw9IiMwMDAwMDAiIGZvbnQtZmFtaWx5PSJzYW5zLXNlcmlmIiBmb250LXNpemU9IjEzIiBsZW5ndGhBZGp1c3Q9InNwYWNpbmciIHRleHRMZW5ndGg9IjU4LjUiIHg9IjkwNyIgeT0iMTg0Ni4yNzM0Ij4mIzE3MTtleHRlbmRzJiMxODc7PC90ZXh0PjwvZz48IS0tcmV2ZXJzZSBsaW5rIFZpZXcgRXhhbSBJbmZvcm1hdGlvbiAgdG8gRGVsZXRlIEV4YW1zLS0+PGcgY2xhc3M9ImxpbmsiIGRhdGEtZW50aXR5LTE9IlZpZXcgRXhhbSBJbmZvcm1hdGlvbiAiIGRhdGEtZW50aXR5LTI9IkRlbGV0ZSBFeGFtcyIgZGF0YS1zb3VyY2UtbGluZT0iOTMiIGRhdGEtdWlkPSJsbmsxMTMiIGlkPSJsaW5rX1ZpZXcgRXhhbSBJbmZvcm1hdGlvbiBfRGVsZXRlIEV4YW1zIj48cGF0aCBkPSJNODA4LjIzOTIsMTkwMy4wMzQyIEM4NzYuMjQ5MiwxOTMyLjcxNDIgOTk2LDE5ODQuOTg0NCA5OTYsMTk4NC45ODQ0IEM5OTYsMTk4NC45ODQ0IDEwNDkuNjIsMTk5Ny43MTQ0IDEwOTAuMjUsMjAwNy4zNjQ0IiBmaWxsPSJub25lIiBpZD0iVmlldyBFeGFtIEluZm9ybWF0aW9uIC1iYWNrdG8tRGVsZXRlIEV4YW1zIiBzdHlsZT0ic3Ryb2tlOiMxODE4MTg7c3Ryb2tlLXdpZHRoOjE7c3Ryb2tlLWRhc2hhcnJheTo3LjAsNy4wOyIvPjxwb2x5Z29uIGZpbGw9IiMxODE4MTgiIHBvaW50cz0iODAyLjc0LDE5MDAuNjM0NCw4MDkuMzg4OCwxOTA3LjkwMDMsODA3LjMyMjYsMTkwMi42MzQzLDgxMi41ODg2LDE5MDAuNTY4MSw4MDIuNzQsMTkwMC42MzQ0IiBzdHlsZT0ic3Ryb2tlOiMxODE4MTg7c3Ryb2tlLXdpZHRoOjE7Ii8+PHRleHQgZmlsbD0iIzAwMDAwMCIgZm9udC1mYW1pbHk9InNhbnMtc2VyaWYiIGZvbnQtc2l6ZT0iMTMiIGxlbmd0aEFkanVzdD0ic3BhY2luZyIgdGV4dExlbmd0aD0iNTguNSIgeD0iOTA3IiB5PSIxOTQ0LjI3MzQiPiYjMTcxO2V4dGVuZHMmIzE4Nzs8L3RleHQ+PC9nPjwhLS1yZXZlcnNlIGxpbmsgVmlldyBFeGFtIEluZm9ybWF0aW9uICB0byBFZGl0IEV4YW0gUmVzdWx0cy0tPjxnIGNsYXNzPSJsaW5rIiBkYXRhLWVudGl0eS0xPSJWaWV3IEV4YW0gSW5mb3JtYXRpb24gIiBkYXRhLWVudGl0eS0yPSJFZGl0IEV4YW0gUmVzdWx0cyIgZGF0YS1zb3VyY2UtbGluZT0iOTQiIGRhdGEtdWlkPSJsbmsxMTUiIGlkPSJsaW5rX1ZpZXcgRXhhbSBJbmZvcm1hdGlvbiBfRWRpdCBFeGFtIFJlc3VsdHMiPjxwYXRoIGQ9Ik04MzguNjUzNywxODk2LjI0NTIgQzkwOC44MzM3LDE5MDguOTc1MiAxMDA3Ljk2LDE5MjYuOTQ0NCAxMDczLjkyLDE5MzguOTA0NCIgZmlsbD0ibm9uZSIgaWQ9IlZpZXcgRXhhbSBJbmZvcm1hdGlvbiAtYmFja3RvLUVkaXQgRXhhbSBSZXN1bHRzIiBzdHlsZT0ic3Ryb2tlOiMxODE4MTg7c3Ryb2tlLXdpZHRoOjE7c3Ryb2tlLWRhc2hhcnJheTo3LjAsNy4wOyIvPjxwb2x5Z29uIGZpbGw9IiMxODE4MTgiIHBvaW50cz0iODMyLjc1LDE4OTUuMTc0NCw4NDAuODkxNiwxOTAwLjcxNjUsODM3LjY2OTcsMTg5Ni4wNjY4LDg0Mi4zMTk0LDE4OTIuODQ0OSw4MzIuNzUsMTg5NS4xNzQ0IiBzdHlsZT0ic3Ryb2tlOiMxODE4MTg7c3Ryb2tlLXdpZHRoOjE7Ii8+PHRleHQgZmlsbD0iIzAwMDAwMCIgZm9udC1mYW1pbHk9InNhbnMtc2VyaWYiIGZvbnQtc2l6ZT0iMTMiIGxlbmd0aEFkanVzdD0ic3BhY2luZyIgdGV4dExlbmd0aD0iNTguNSIgeD0iOTA3IiB5PSIxOTA4LjI3MzQiPiYjMTcxO2V4dGVuZHMmIzE4Nzs8L3RleHQ+PC9nPjwhLS1saW5rIENyZWF0ZSBFeGFtcyB0byBVcGRhdGUgRXhhbSBJbmZvcm1hdGlvbiAtLT48ZyBjbGFzcz0ibGluayIgZGF0YS1lbnRpdHktMT0iQ3JlYXRlIEV4YW1zIiBkYXRhLWVudGl0eS0yPSJVcGRhdGUgRXhhbSBJbmZvcm1hdGlvbiAiIGRhdGEtc291cmNlLWxpbmU9Ijk2IiBkYXRhLXVpZD0ibG5rMTE2IiBpZD0ibGlua19DcmVhdGUgRXhhbXNfVXBkYXRlIEV4YW0gSW5mb3JtYXRpb24gIj48cGF0aCBkPSJNMTE5Ni4xOSwxODg3LjI2NDQgQzEyNTcuNTEsMTg5Mi43MjQ0IDEzNDguMjIzNywxOTAwLjgxMTkgMTQxOS43MjM3LDE5MDcuMTgxOSIgZmlsbD0ibm9uZSIgaWQ9IkNyZWF0ZSBFeGFtcy10by1VcGRhdGUgRXhhbSBJbmZvcm1hdGlvbiAiIHN0eWxlPSJzdHJva2U6IzE4MTgxODtzdHJva2Utd2lkdGg6MTtzdHJva2UtZGFzaGFycmF5OjcuMCw3LjA7Ii8+PHBvbHlnb24gZmlsbD0iIzE4MTgxOCIgcG9pbnRzPSIxNDI1LjcsMTkwNy43MTQ0LDE0MTcuMDkwNSwxOTAyLjkzMTUsMTQyMC43MTk3LDE5MDcuMjcwNywxNDE2LjM4MDUsMTkxMC44OTk5LDE0MjUuNywxOTA3LjcxNDQiIHN0eWxlPSJzdHJva2U6IzE4MTgxODtzdHJva2Utd2lkdGg6MTsiLz48dGV4dCBmaWxsPSIjMDAwMDAwIiBmb250LWZhbWlseT0ic2Fucy1zZXJpZiIgZm9udC1zaXplPSIxMyIgbGVuZ3RoQWRqdXN0PSJzcGFjaW5nIiB0ZXh0TGVuZ3RoPSI1OC41IiB4PSIxMzA3IiB5PSIxODk2LjI3MzQiPiYjMTcxO2luY2x1ZGUmIzE4Nzs8L3RleHQ+PC9nPjwhLS1saW5rIFVwZGF0ZSBFeGFtcyB0byBVcGRhdGUgRXhhbSBJbmZvcm1hdGlvbiAtLT48ZyBjbGFzcz0ibGluayIgZGF0YS1lbnRpdHktMT0iVXBkYXRlIEV4YW1zIiBkYXRhLWVudGl0eS0yPSJVcGRhdGUgRXhhbSBJbmZvcm1hdGlvbiAiIGRhdGEtc291cmNlLWxpbmU9Ijk3IiBkYXRhLXVpZD0ibG5rMTE3IiBpZD0ibGlua19VcGRhdGUgRXhhbXNfVXBkYXRlIEV4YW0gSW5mb3JtYXRpb24gIj48cGF0aCBkPSJNMTE4Mi41MSwxODI3LjQ2NDQgQzEyMjMuMDUsMTgzNi43OTQ0IDEyNzYsMTg0OC45ODQ0IDEyNzYsMTg0OC45ODQ0IEMxMjc2LDE4NDguOTg0NCAxMzc3Ljc4NjYsMTg3Ny4xMDY2IDE0NDkuNjM2NiwxODk2Ljk1NjYiIGZpbGw9Im5vbmUiIGlkPSJVcGRhdGUgRXhhbXMtdG8tVXBkYXRlIEV4YW0gSW5mb3JtYXRpb24gIiBzdHlsZT0ic3Ryb2tlOiMxODE4MTg7c3Ryb2tlLXdpZHRoOjE7c3Ryb2tlLWRhc2hhcnJheTo3LjAsNy4wOyIvPjxwb2x5Z29uIGZpbGw9IiMxODE4MTgiIHBvaW50cz0iMTQ1NS40MiwxODk4LjU1NDQsMTQ0Ny44MTAyLDE4OTIuMzAyMiwxNDUwLjYwMDUsMTg5Ny4yMjI5LDE0NDUuNjc5OCwxOTAwLjAxMzMsMTQ1NS40MiwxODk4LjU1NDQiIHN0eWxlPSJzdHJva2U6IzE4MTgxODtzdHJva2Utd2lkdGg6MTsiLz48dGV4dCBmaWxsPSIjMDAwMDAwIiBmb250LWZhbWlseT0ic2Fucy1zZXJpZiIgZm9udC1zaXplPSIxMyIgbGVuZ3RoQWRqdXN0PSJzcGFjaW5nIiB0ZXh0TGVuZ3RoPSI1OC41IiB4PSIxMzA3IiB5PSIxODU2LjI3MzQiPiYjMTcxO2luY2x1ZGUmIzE4Nzs8L3RleHQ+PC9nPjwhLS1saW5rIERlbGV0ZSBFeGFtcyB0byBVcGRhdGUgRXhhbSBJbmZvcm1hdGlvbiAtLT48ZyBjbGFzcz0ibGluayIgZGF0YS1lbnRpdHktMT0iRGVsZXRlIEV4YW1zIiBkYXRhLWVudGl0eS0yPSJVcGRhdGUgRXhhbSBJbmZvcm1hdGlvbiAiIGRhdGEtc291cmNlLWxpbmU9Ijk4IiBkYXRhLXVpZD0ibG5rMTE4IiBpZD0ibGlua19EZWxldGUgRXhhbXNfVXBkYXRlIEV4YW0gSW5mb3JtYXRpb24gIj48cGF0aCBkPSJNMTE4MS43NSwyMDA3LjM2NDQgQzEyMjIuMzgsMTk5Ny43MTQ0IDEyNzYsMTk4NC45ODQ0IDEyNzYsMTk4NC45ODQ0IEMxMjc2LDE5ODQuOTg0NCAxMzc5LjA1OSwxOTU1LjY1NjEgMTQ1MC45MDksMTkzNS4yMTYxIiBmaWxsPSJub25lIiBpZD0iRGVsZXRlIEV4YW1zLXRvLVVwZGF0ZSBFeGFtIEluZm9ybWF0aW9uICIgc3R5bGU9InN0cm9rZTojMTgxODE4O3N0cm9rZS13aWR0aDoxO3N0cm9rZS1kYXNoYXJyYXk6Ny4wLDcuMDsiLz48cG9seWdvbiBmaWxsPSIjMTgxODE4IiBwb2ludHM9IjE0NTYuNjgsMTkzMy41NzQ0LDE0NDYuOTI5LDE5MzIuMTg5NywxNDUxLjg3MDgsMTkzNC45NDI1LDE0NDkuMTE4LDE5MzkuODg0MywxNDU2LjY4LDE5MzMuNTc0NCIgc3R5bGU9InN0cm9rZTojMTgxODE4O3N0cm9rZS13aWR0aDoxOyIvPjx0ZXh0IGZpbGw9IiMwMDAwMDAiIGZvbnQtZmFtaWx5PSJzYW5zLXNlcmlmIiBmb250LXNpemU9IjEzIiBsZW5ndGhBZGp1c3Q9InNwYWNpbmciIHRleHRMZW5ndGg9IjU4LjUiIHg9IjEzMDciIHk9IjE5NTkuMjczNCI+JiMxNzE7aW5jbHVkZSYjMTg3OzwvdGV4dD48L2c+PCEtLWxpbmsgRWRpdCBFeGFtIFJlc3VsdHMgdG8gVXBkYXRlIEV4YW0gSW5mb3JtYXRpb24gLS0+PGcgY2xhc3M9ImxpbmsiIGRhdGEtZW50aXR5LTE9IkVkaXQgRXhhbSBSZXN1bHRzIiBkYXRhLWVudGl0eS0yPSJVcGRhdGUgRXhhbSBJbmZvcm1hdGlvbiAiIGRhdGEtc291cmNlLWxpbmU9Ijk5IiBkYXRhLXVpZD0ibG5rMTE5IiBpZD0ibGlua19FZGl0IEV4YW0gUmVzdWx0c19VcGRhdGUgRXhhbSBJbmZvcm1hdGlvbiAiPjxwYXRoIGQ9Ik0xMjA5LjY2LDE5NDMuNTA0NCBDMTI3MS4wNSwxOTM4LjAzNDQgMTM1My4zODM2LDE5MzAuNjk2NiAxNDE5Ljg2MzYsMTkyNC43NzY2IiBmaWxsPSJub25lIiBpZD0iRWRpdCBFeGFtIFJlc3VsdHMtdG8tVXBkYXRlIEV4YW0gSW5mb3JtYXRpb24gIiBzdHlsZT0ic3Ryb2tlOiMxODE4MTg7c3Ryb2tlLXdpZHRoOjE7c3Ryb2tlLWRhc2hhcnJheTo3LjAsNy4wOyIvPjxwb2x5Z29uIGZpbGw9IiMxODE4MTgiIHBvaW50cz0iMTQyNS44NCwxOTI0LjI0NDQsMTQxNi41MjA3LDE5MjEuMDU4NCwxNDIwLjg1OTcsMTkyNC42ODc5LDE0MTcuMjMwMywxOTI5LjAyNjksMTQyNS44NCwxOTI0LjI0NDQiIHN0eWxlPSJzdHJva2U6IzE4MTgxODtzdHJva2Utd2lkdGg6MTsiLz48dGV4dCBmaWxsPSIjMDAwMDAwIiBmb250LWZhbWlseT0ic2Fucy1zZXJpZiIgZm9udC1zaXplPSIxMyIgbGVuZ3RoQWRqdXN0PSJzcGFjaW5nIiB0ZXh0TGVuZ3RoPSI1OC41IiB4PSIxMzA3IiB5PSIxOTI4LjI3MzQiPiYjMTcxO2luY2x1ZGUmIzE4Nzs8L3RleHQ+PC9nPjwhLS1saW5rIFVwZGF0ZSBFZHVjYXRpb25hbCBJbmZvcm1hdGlvbiB0byBUUi0tPjxnIGNsYXNzPSJsaW5rIiBkYXRhLWVudGl0eS0xPSJVcGRhdGUgRWR1Y2F0aW9uYWwgSW5mb3JtYXRpb24iIGRhdGEtZW50aXR5LTI9IlRSIiBkYXRhLXNvdXJjZS1saW5lPSIxMDEiIGRhdGEtdWlkPSJsbmsxMjAiIGlkPSJsaW5rX1VwZGF0ZSBFZHVjYXRpb25hbCBJbmZvcm1hdGlvbl9UUiI+PHBhdGggZD0iTTE1OTEuNiwxMjQuMzQ0NCBDMTYyOC45MywxMzUuNTU0NCAxNjY3LDE0Ni45ODQ0IDE2NjcsMTQ2Ljk4NDQgQzE2NjcsMTQ2Ljk4NDQgMTcxMC40OSwyMzcuOTY0NCAxNzM1Ljk3LDI5MS4yNzQ0IiBmaWxsPSJub25lIiBpZD0iVXBkYXRlIEVkdWNhdGlvbmFsIEluZm9ybWF0aW9uLVRSIiBzdHlsZT0ic3Ryb2tlOiMxODE4MTg7c3Ryb2tlLXdpZHRoOjE7Ii8+PC9nPjwhLS1saW5rIEFwcGx5IGZvciBSZWNvcnJlY3Rpb25zIHRvIFRSLS0+PGcgY2xhc3M9ImxpbmsiIGRhdGEtZW50aXR5LTE9IkFwcGx5IGZvciBSZWNvcnJlY3Rpb25zIiBkYXRhLWVudGl0eS0yPSJUUiIgZGF0YS1zb3VyY2UtbGluZT0iMTAyIiBkYXRhLXVpZD0ibG5rMTIxIiBpZD0ibGlua19BcHBseSBmb3IgUmVjb3JyZWN0aW9uc19UUiI+PHBhdGggZD0iTTE2MTcuMTYsMzI4Ljk4NDQgQzE2NTguNTYsMzI4Ljk4NDQgMTcwMy40NCwzMjguOTg0NCAxNzMwLjExLDMyOC45ODQ0IiBmaWxsPSJub25lIiBpZD0iQXBwbHkgZm9yIFJlY29ycmVjdGlvbnMtVFIiIHN0eWxlPSJzdHJva2U6IzE4MTgxODtzdHJva2Utd2lkdGg6MTsiLz48L2c+PCEtLWxpbmsgTm90aWZ5IFRlYWNoZXJzIHRvIFRSLS0+PGcgY2xhc3M9ImxpbmsiIGRhdGEtZW50aXR5LTE9Ik5vdGlmeSBUZWFjaGVycyIgZGF0YS1lbnRpdHktMj0iVFIiIGRhdGEtc291cmNlLWxpbmU9IjEwMyIgZGF0YS11aWQ9ImxuazEyMyIgaWQ9ImxpbmtfTm90aWZ5IFRlYWNoZXJzX1RSIj48cGF0aCBkPSJNMTU0MC44MSw0OTkuNzE0NCBDMTU4My45Nyw0NjUuMTU0NCAxNjg0LjYxLDM4NC41NTQ0IDE3MzAuNDcsMzQ3LjgyNDQiIGZpbGw9Im5vbmUiIGlkPSJOb3RpZnkgVGVhY2hlcnMtVFIiIHN0eWxlPSJzdHJva2U6IzE4MTgxODtzdHJva2Utd2lkdGg6MTsiLz48L2c+PCEtLWxpbmsgU0ggdG8gVmlldyBTdGFmZiBJbmZvcm1hdGlvbiAtLT48ZyBjbGFzcz0ibGluayIgZGF0YS1lbnRpdHktMT0iU0giIGRhdGEtZW50aXR5LTI9IlZpZXcgU3RhZmYgSW5mb3JtYXRpb24gIiBkYXRhLXNvdXJjZS1saW5lPSIxMDUiIGRhdGEtdWlkPSJsbmsxMjUiIGlkPSJsaW5rX1NIX1ZpZXcgU3RhZmYgSW5mb3JtYXRpb24gIj48cGF0aCBkPSJNMzAzLjIzLDc0Ni43OTQ0IEMzODkuNTQsNzMzLjkyNDQgNTcxLjI0LDcwNi44MzQ0IDY3Ni45OCw2OTEuMDY0NCIgZmlsbD0ibm9uZSIgaWQ9IlNILVZpZXcgU3RhZmYgSW5mb3JtYXRpb24gIiBzdHlsZT0ic3Ryb2tlOiMxODE4MTg7c3Ryb2tlLXdpZHRoOjE7Ii8+PC9nPjwhLS1yZXZlcnNlIGxpbmsgVmlldyBTdGFmZiBJbmZvcm1hdGlvbiAgdG8gQWRkIFN0YWZmIE1lbWJlcnMtLT48ZyBjbGFzcz0ibGluayIgZGF0YS1lbnRpdHktMT0iVmlldyBTdGFmZiBJbmZvcm1hdGlvbiAiIGRhdGEtZW50aXR5LTI9IkFkZCBTdGFmZiBNZW1iZXJzIiBkYXRhLXNvdXJjZS1saW5lPSIxMDYiIGRhdGEtdWlkPSJsbmsxMjciIGlkPSJsaW5rX1ZpZXcgU3RhZmYgSW5mb3JtYXRpb24gX0FkZCBTdGFmZiBNZW1iZXJzIj48cGF0aCBkPSJNODYxLjEwNDUsNjc0LjY2ODYgQzkyNC4xNDQ1LDY3MS45Nzg2IDk5OS43Niw2NjguNzU0NCAxMDU4LjU3LDY2Ni4yNDQ0IiBmaWxsPSJub25lIiBpZD0iVmlldyBTdGFmZiBJbmZvcm1hdGlvbiAtYmFja3RvLUFkZCBTdGFmZiBNZW1iZXJzIiBzdHlsZT0ic3Ryb2tlOiMxODE4MTg7c3Ryb2tlLXdpZHRoOjE7c3Ryb2tlLWRhc2hhcnJheTo3LjAsNy4wOyIvPjxwb2x5Z29uIGZpbGw9IiMxODE4MTgiIHBvaW50cz0iODU1LjExLDY3NC45MjQ0LDg2NC4yNzIzLDY3OC41MzcsODYwLjEwNTUsNjc0LjcxMTIsODYzLjkzMTMsNjcwLjU0NDMsODU1LjExLDY3NC45MjQ0IiBzdHlsZT0ic3Ryb2tlOiMxODE4MTg7c3Ryb2tlLXdpZHRoOjE7Ii8+PHRleHQgZmlsbD0iIzAwMDAwMCIgZm9udC1mYW1pbHk9InNhbnMtc2VyaWYiIGZvbnQtc2l6ZT0iMTMiIGxlbmd0aEFkanVzdD0ic3BhY2luZyIgdGV4dExlbmd0aD0iNTguNSIgeD0iOTA3IiB5PSI2NjkuMjczNCI+JiMxNzE7ZXh0ZW5kcyYjMTg3OzwvdGV4dD48L2c+PCEtLXJldmVyc2UgbGluayBWaWV3IFN0YWZmIEluZm9ybWF0aW9uICB0byBVcGRhdGUgU3RhZmYgTWVtYmVycy0tPjxnIGNsYXNzPSJsaW5rIiBkYXRhLWVudGl0eS0xPSJWaWV3IFN0YWZmIEluZm9ybWF0aW9uICIgZGF0YS1lbnRpdHktMj0iVXBkYXRlIFN0YWZmIE1lbWJlcnMiIGRhdGEtc291cmNlLWxpbmU9IjEwNyIgZGF0YS11aWQ9ImxuazEyOSIgaWQ9ImxpbmtfVmlldyBTdGFmZiBJbmZvcm1hdGlvbiBfVXBkYXRlIFN0YWZmIE1lbWJlcnMiPjxwYXRoIGQ9Ik04MzIuODc3OSw2NjEuNjg5IEM5MDMuMjQ3OSw2NDQuOTg5IDEwMDcuMDIsNjIwLjM1NDQgMTA3NC43Myw2MDQuMjg0NCIgZmlsbD0ibm9uZSIgaWQ9IlZpZXcgU3RhZmYgSW5mb3JtYXRpb24gLWJhY2t0by1VcGRhdGUgU3RhZmYgTWVtYmVycyIgc3R5bGU9InN0cm9rZTojMTgxODE4O3N0cm9rZS13aWR0aDoxO3N0cm9rZS1kYXNoYXJyYXk6Ny4wLDcuMDsiLz48cG9seWdvbiBmaWxsPSIjMTgxODE4IiBwb2ludHM9IjgyNy4wNCw2NjMuMDc0NCw4MzYuNzIwNCw2NjQuODg4MSw4MzEuOTA0OSw2NjEuOTE5OSw4MzQuODczMiw2NTcuMTA0Myw4MjcuMDQsNjYzLjA3NDQiIHN0eWxlPSJzdHJva2U6IzE4MTgxODtzdHJva2Utd2lkdGg6MTsiLz48dGV4dCBmaWxsPSIjMDAwMDAwIiBmb250LWZhbWlseT0ic2Fucy1zZXJpZiIgZm9udC1zaXplPSIxMyIgbGVuZ3RoQWRqdXN0PSJzcGFjaW5nIiB0ZXh0TGVuZ3RoPSI1OC41IiB4PSI5MDciIHk9IjYzMC4yNzM0Ij4mIzE3MTtleHRlbmRzJiMxODc7PC90ZXh0PjwvZz48IS0tcmV2ZXJzZSBsaW5rIFZpZXcgU3RhZmYgSW5mb3JtYXRpb24gIHRvIFJlbW92ZSBTdGFmZiBNZW1iZXJzLS0+PGcgY2xhc3M9ImxpbmsiIGRhdGEtZW50aXR5LTE9IlZpZXcgU3RhZmYgSW5mb3JtYXRpb24gIiBkYXRhLWVudGl0eS0yPSJSZW1vdmUgU3RhZmYgTWVtYmVycyIgZGF0YS1zb3VyY2UtbGluZT0iMTA4IiBkYXRhLXVpZD0ibG5rMTMxIiBpZD0ibGlua19WaWV3IFN0YWZmIEluZm9ybWF0aW9uIF9SZW1vdmUgU3RhZmYgTWVtYmVycyI+PHBhdGggZD0iTTg0Ni4zODE5LDY5Mi4xMTU1IEM5MTIuMzQxOSw3MDIuMTM1NSA5OTguOTUsNzE1LjMwNDQgMTA2Mi42Miw3MjQuOTg0NCIgZmlsbD0ibm9uZSIgaWQ9IlZpZXcgU3RhZmYgSW5mb3JtYXRpb24gLWJhY2t0by1SZW1vdmUgU3RhZmYgTWVtYmVycyIgc3R5bGU9InN0cm9rZTojMTgxODE4O3N0cm9rZS13aWR0aDoxO3N0cm9rZS1kYXNoYXJyYXk6Ny4wLDcuMDsiLz48cG9seWdvbiBmaWxsPSIjMTgxODE4IiBwb2ludHM9Ijg0MC40NSw2OTEuMjE0NCw4NDguNzQ3Miw2OTYuNTIwNyw4NDUuMzkzMyw2OTEuOTY1Myw4NDkuOTQ4Nyw2ODguNjExNCw4NDAuNDUsNjkxLjIxNDQiIHN0eWxlPSJzdHJva2U6IzE4MTgxODtzdHJva2Utd2lkdGg6MTsiLz48dGV4dCBmaWxsPSIjMDAwMDAwIiBmb250LWZhbWlseT0ic2Fucy1zZXJpZiIgZm9udC1zaXplPSIxMyIgbGVuZ3RoQWRqdXN0PSJzcGFjaW5nIiB0ZXh0TGVuZ3RoPSI1OC41IiB4PSI5MDciIHk9IjcwMS4yNzM0Ij4mIzE3MTtleHRlbmRzJiMxODc7PC90ZXh0PjwvZz48IS0tbGluayBTSCB0byBWaWV3IFNlY3Rpb25hbCBJbmZvcm1hdGlvbiAtLT48ZyBjbGFzcz0ibGluayIgZGF0YS1lbnRpdHktMT0iU0giIGRhdGEtZW50aXR5LTI9IlZpZXcgU2VjdGlvbmFsIEluZm9ybWF0aW9uICIgZGF0YS1zb3VyY2UtbGluZT0iMTEwIiBkYXRhLXVpZD0ibG5rMTMzIiBpZD0ibGlua19TSF9WaWV3IFNlY3Rpb25hbCBJbmZvcm1hdGlvbiAiPjxwYXRoIGQ9Ik0zMDMuMjMsNzI3LjkwNDQgQzQwMS40Niw2NzQuNzg0NCA2MjMuMjgsNTU0LjgzNDQgNzE2LjAxLDUwNC42OTQ0IiBmaWxsPSJub25lIiBpZD0iU0gtVmlldyBTZWN0aW9uYWwgSW5mb3JtYXRpb24gIiBzdHlsZT0ic3Ryb2tlOiMxODE4MTg7c3Ryb2tlLXdpZHRoOjE7Ii8+PC9nPjwhLS1yZXZlcnNlIGxpbmsgVmlldyBTZWN0aW9uYWwgSW5mb3JtYXRpb24gIHRvIENyZWF0ZSBUaW1lIFRhYmxlcy0tPjxnIGNsYXNzPSJsaW5rIiBkYXRhLWVudGl0eS0xPSJWaWV3IFNlY3Rpb25hbCBJbmZvcm1hdGlvbiAiIGRhdGEtZW50aXR5LTI9IkNyZWF0ZSBUaW1lIFRhYmxlcyIgZGF0YS1zb3VyY2UtbGluZT0iMTExIiBkYXRhLXVpZD0ibG5rMTM1IiBpZD0ibGlua19WaWV3IFNlY3Rpb25hbCBJbmZvcm1hdGlvbiBfQ3JlYXRlIFRpbWUgVGFibGVzIj48cGF0aCBkPSJNODI5LjI3NTEsNDYwLjI1OSBDODk5LjE3NTEsNDM4LjMzOSA5OTYsNDA3Ljk4NDQgOTk2LDQwNy45ODQ0IEM5OTYsNDA3Ljk4NDQgMTA0Mi40NiwzOTUuOTU0NCAxMDgxLjY2LDM4NS44MDQ0IiBmaWxsPSJub25lIiBpZD0iVmlldyBTZWN0aW9uYWwgSW5mb3JtYXRpb24gLWJhY2t0by1DcmVhdGUgVGltZSBUYWJsZXMiIHN0eWxlPSJzdHJva2U6IzE4MTgxODtzdHJva2Utd2lkdGg6MTtzdHJva2UtZGFzaGFycmF5OjcuMCw3LjA7Ii8+PHBvbHlnb24gZmlsbD0iIzE4MTgxOCIgcG9pbnRzPSI4MjMuNTUsNDYyLjA1NDQsODMzLjMzNDUsNDYzLjE3ODEsODI4LjMyMDksNDYwLjU1ODMsODMwLjk0MDgsNDU1LjU0NDYsODIzLjU1LDQ2Mi4wNTQ0IiBzdHlsZT0ic3Ryb2tlOiMxODE4MTg7c3Ryb2tlLXdpZHRoOjE7Ii8+PHRleHQgZmlsbD0iIzAwMDAwMCIgZm9udC1mYW1pbHk9InNhbnMtc2VyaWYiIGZvbnQtc2l6ZT0iMTMiIGxlbmd0aEFkanVzdD0ic3BhY2luZyIgdGV4dExlbmd0aD0iNTguNSIgeD0iOTA3IiB5PSI0MTcuMjczNCI+JiMxNzE7ZXh0ZW5kcyYjMTg3OzwvdGV4dD48L2c+PCEtLXJldmVyc2UgbGluayBWaWV3IFNlY3Rpb25hbCBJbmZvcm1hdGlvbiAgdG8gVXBkYXRlIFRpbWUgVGFibGVzLS0+PGcgY2xhc3M9ImxpbmsiIGRhdGEtZW50aXR5LTE9IlZpZXcgU2VjdGlvbmFsIEluZm9ybWF0aW9uICIgZGF0YS1lbnRpdHktMj0iVXBkYXRlIFRpbWUgVGFibGVzIiBkYXRhLXNvdXJjZS1saW5lPSIxMTIiIGRhdGEtdWlkPSJsbmsxMzciIGlkPSJsaW5rX1ZpZXcgU2VjdGlvbmFsIEluZm9ybWF0aW9uIF9VcGRhdGUgVGltZSBUYWJsZXMiPjxwYXRoIGQ9Ik04NDkuMTMyNSw0OTkuMDc1MSBDODgxLjkxMjUsNTA1LjM2NTEgOTA2LDUwOS45ODQ0IDkwNiw1MDkuOTg0NCBDOTA2LDUwOS45ODQ0IDk4OC44Nyw1MTIuMTU0NCAxMDU0LjkxLDUxMy44ODQ0IiBmaWxsPSJub25lIiBpZD0iVmlldyBTZWN0aW9uYWwgSW5mb3JtYXRpb24gLWJhY2t0by1VcGRhdGUgVGltZSBUYWJsZXMiIHN0eWxlPSJzdHJva2U6IzE4MTgxODtzdHJva2Utd2lkdGg6MTtzdHJva2UtZGFzaGFycmF5OjcuMCw3LjA7Ii8+PHBvbHlnb24gZmlsbD0iIzE4MTgxOCIgcG9pbnRzPSI4NDMuMjQsNDk3Ljk0NDQsODUxLjMyNSw1MDMuNTY4Nyw4NDguMTUwNCw0OTguODg2Niw4NTIuODMyNSw0OTUuNzEyMSw4NDMuMjQsNDk3Ljk0NDQiIHN0eWxlPSJzdHJva2U6IzE4MTgxODtzdHJva2Utd2lkdGg6MTsiLz48dGV4dCBmaWxsPSIjMDAwMDAwIiBmb250LWZhbWlseT0ic2Fucy1zZXJpZiIgZm9udC1zaXplPSIxMyIgbGVuZ3RoQWRqdXN0PSJzcGFjaW5nIiB0ZXh0TGVuZ3RoPSI1OC41IiB4PSI5MDciIHk9IjUwOC4yNzM0Ij4mIzE3MTtleHRlbmRzJiMxODc7PC90ZXh0PjwvZz48IS0tcmV2ZXJzZSBsaW5rIFZpZXcgU2VjdGlvbmFsIEluZm9ybWF0aW9uICB0byBEZWxldGUgVGltZSBUYWJsZXMtLT48ZyBjbGFzcz0ibGluayIgZGF0YS1lbnRpdHktMT0iVmlldyBTZWN0aW9uYWwgSW5mb3JtYXRpb24gIiBkYXRhLWVudGl0eS0yPSJEZWxldGUgVGltZSBUYWJsZXMiIGRhdGEtc291cmNlLWxpbmU9IjExMyIgZGF0YS11aWQ9ImxuazEzOSIgaWQ9ImxpbmtfVmlldyBTZWN0aW9uYWwgSW5mb3JtYXRpb24gX0RlbGV0ZSBUaW1lIFRhYmxlcyI+PHBhdGggZD0iTTg2NS45Njk0LDQ3MS4yNDk1IEM5MjkuMzI5NCw0NjQuODI5NSAxMDAzLjg5LDQ1Ny4yNzQ0IDEwNjEuNCw0NTEuNDQ0NCIgZmlsbD0ibm9uZSIgaWQ9IlZpZXcgU2VjdGlvbmFsIEluZm9ybWF0aW9uIC1iYWNrdG8tRGVsZXRlIFRpbWUgVGFibGVzIiBzdHlsZT0ic3Ryb2tlOiMxODE4MTg7c3Ryb2tlLXdpZHRoOjE7c3Ryb2tlLWRhc2hhcnJheTo3LjAsNy4wOyIvPjxwb2x5Z29uIGZpbGw9IiMxODE4MTgiIHBvaW50cz0iODYwLDQ3MS44NTQ0LDg2OS4zNTc0LDQ3NC45MjY3LDg2NC45NzQ1LDQ3MS4zNTAzLDg2OC41NTA5LDQ2Ni45Njc1LDg2MCw0NzEuODU0NCIgc3R5bGU9InN0cm9rZTojMTgxODE4O3N0cm9rZS13aWR0aDoxOyIvPjx0ZXh0IGZpbGw9IiMwMDAwMDAiIGZvbnQtZmFtaWx5PSJzYW5zLXNlcmlmIiBmb250LXNpemU9IjEzIiBsZW5ndGhBZGp1c3Q9InNwYWNpbmciIHRleHRMZW5ndGg9IjU4LjUiIHg9IjkwNyIgeT0iNDYwLjI3MzQiPiYjMTcxO2V4dGVuZHMmIzE4Nzs8L3RleHQ+PC9nPjwhLS1saW5rIE5vdGlmeSBTZWN0aW9uYWwgSGVhZHMgdG8gU0hSLS0+PGcgY2xhc3M9ImxpbmsiIGRhdGEtZW50aXR5LTE9Ik5vdGlmeSBTZWN0aW9uYWwgSGVhZHMiIGRhdGEtZW50aXR5LTI9IlNIUiIgZGF0YS1zb3VyY2UtbGluZT0iMTE1IiBkYXRhLXVpZD0ibG5rMTQxIiBpZD0ibGlua19Ob3RpZnkgU2VjdGlvbmFsIEhlYWRzX1NIUiI+PHBhdGggZD0iTTE2MTIuMTIsODczLjkwNDQgQzE2NDQuMTgsODc1LjI4NDQgMTY3OC45MSw4NzYuNzY0NCAxNzA1Ljk4LDg3Ny45MjQ0IiBmaWxsPSJub25lIiBpZD0iTm90aWZ5IFNlY3Rpb25hbCBIZWFkcy1TSFIiIHN0eWxlPSJzdHJva2U6IzE4MTgxODtzdHJva2Utd2lkdGg6MTsiLz48L2c+PCEtLWxpbmsgQWRkIFN0YWZmIE1lbWJlcnMgdG8gTm90aWZ5IFRlYWNoZXJzLS0+PGcgY2xhc3M9ImxpbmsiIGRhdGEtZW50aXR5LTE9IkFkZCBTdGFmZiBNZW1iZXJzIiBkYXRhLWVudGl0eS0yPSJOb3RpZnkgVGVhY2hlcnMiIGRhdGEtc291cmNlLWxpbmU9IjExNyIgZGF0YS11aWQ9ImxuazE0MiIgaWQ9ImxpbmtfQWRkIFN0YWZmIE1lbWJlcnNfTm90aWZ5IFRlYWNoZXJzIj48cGF0aCBkPSJNMTE4OC43Niw2NDkuNTc0NCBDMTIyOC4yOCw2MzkuMzQ0NCAxMjc2LDYyNi45ODQ0IDEyNzYsNjI2Ljk4NDQgQzEyNzYsNjI2Ljk4NDQgMTQxMy43ODQxLDU2My45MTExIDE0ODAuMDg0MSw1MzMuNTcxMSIgZmlsbD0ibm9uZSIgaWQ9IkFkZCBTdGFmZiBNZW1iZXJzLXRvLU5vdGlmeSBUZWFjaGVycyIgc3R5bGU9InN0cm9rZTojMTgxODE4O3N0cm9rZS13aWR0aDoxO3N0cm9rZS1kYXNoYXJyYXk6Ny4wLDcuMDsiLz48cG9seWdvbiBmaWxsPSIjMTgxODE4IiBwb2ludHM9IjE0ODUuNTQsNTMxLjA3NDQsMTQ3NS42OTE3LDUzMS4xODIyLDE0ODAuOTkzNCw1MzMuMTU1LDE0NzkuMDIwNyw1MzguNDU2NywxNDg1LjU0LDUzMS4wNzQ0IiBzdHlsZT0ic3Ryb2tlOiMxODE4MTg7c3Ryb2tlLXdpZHRoOjE7Ii8+PHRleHQgZmlsbD0iIzAwMDAwMCIgZm9udC1mYW1pbHk9InNhbnMtc2VyaWYiIGZvbnQtc2l6ZT0iMTMiIGxlbmd0aEFkanVzdD0ic3BhY2luZyIgdGV4dExlbmd0aD0iNTguNSIgeD0iMTMwNyIgeT0iNTg2LjI3MzQiPiYjMTcxO2luY2x1ZGUmIzE4Nzs8L3RleHQ+PC9nPjwhLS1saW5rIFVwZGF0ZSBTdGFmZiBNZW1iZXJzIHRvIE5vdGlmeSBUZWFjaGVycy0tPjxnIGNsYXNzPSJsaW5rIiBkYXRhLWVudGl0eS0xPSJVcGRhdGUgU3RhZmYgTWVtYmVycyIgZGF0YS1lbnRpdHktMj0iTm90aWZ5IFRlYWNoZXJzIiBkYXRhLXNvdXJjZS1saW5lPSIxMTgiIGRhdGEtdWlkPSJsbmsxNDMiIGlkPSJsaW5rX1VwZGF0ZSBTdGFmZiBNZW1iZXJzX05vdGlmeSBUZWFjaGVycyI+PHBhdGggZD0iTTEyMDMuNDUsNTc3LjA5NDQgQzEyNzcsNTYyLjgyNDQgMTM4OC4zMDk4LDU0MS4yMzcgMTQ1Ny4xMjk4LDUyNy44ODciIGZpbGw9Im5vbmUiIGlkPSJVcGRhdGUgU3RhZmYgTWVtYmVycy10by1Ob3RpZnkgVGVhY2hlcnMiIHN0eWxlPSJzdHJva2U6IzE4MTgxODtzdHJva2Utd2lkdGg6MTtzdHJva2UtZGFzaGFycmF5OjcuMCw3LjA7Ii8+PHBvbHlnb24gZmlsbD0iIzE4MTgxOCIgcG9pbnRzPSIxNDYzLjAyLDUyNi43NDQ0LDE0NTMuNDIzLDUyNC41MzE1LDE0NTguMTExNSw1MjcuNjk2NSwxNDU0Ljk0NjQsNTMyLjM4NTEsMTQ2My4wMiw1MjYuNzQ0NCIgc3R5bGU9InN0cm9rZTojMTgxODE4O3N0cm9rZS13aWR0aDoxOyIvPjx0ZXh0IGZpbGw9IiMwMDAwMDAiIGZvbnQtZmFtaWx5PSJzYW5zLXNlcmlmIiBmb250LXNpemU9IjEzIiBsZW5ndGhBZGp1c3Q9InNwYWNpbmciIHRleHRMZW5ndGg9IjU4LjUiIHg9IjEzMDciIHk9IjU0NS4yNzM0Ij4mIzE3MTtpbmNsdWRlJiMxODc7PC90ZXh0PjwvZz48IS0tbGluayBSZW1vdmUgU3RhZmYgTWVtYmVycyB0byBOb3RpZnkgVGVhY2hlcnMtLT48ZyBjbGFzcz0ibGluayIgZGF0YS1lbnRpdHktMT0iUmVtb3ZlIFN0YWZmIE1lbWJlcnMiIGRhdGEtZW50aXR5LTI9Ik5vdGlmeSBUZWFjaGVycyIgZGF0YS1zb3VyY2UtbGluZT0iMTE5IiBkYXRhLXVpZD0ibG5rMTQ0IiBpZD0ibGlua19SZW1vdmUgU3RhZmYgTWVtYmVyc19Ob3RpZnkgVGVhY2hlcnMiPjxwYXRoIGQ9Ik0xMTkyLjc0LDcyMC43NDQ0IEMxMjMxLjQxLDcxMC4xNzQ0IDEyNzYsNjk3Ljk4NDQgMTI3Niw2OTcuOTg0NCBDMTI3Niw2OTcuOTg0NCAxMzY2LDYzNi45ODQ0IDEzNjYsNjM2Ljk4NDQgQzEzNjYsNjM2Ljk4NDQgMTQ1MS42MTAyLDU2OS4wNjQyIDE0OTMuMjMwMiw1MzYuMDM0MiIgZmlsbD0ibm9uZSIgaWQ9IlJlbW92ZSBTdGFmZiBNZW1iZXJzLXRvLU5vdGlmeSBUZWFjaGVycyIgc3R5bGU9InN0cm9rZTojMTgxODE4O3N0cm9rZS13aWR0aDoxO3N0cm9rZS1kYXNoYXJyYXk6Ny4wLDcuMDsiLz48cG9seWdvbiBmaWxsPSIjMTgxODE4IiBwb2ludHM9IjE0OTcuOTMsNTMyLjMwNDQsMTQ4OC4zOTM3LDUzNC43NjU5LDE0OTQuMDEzNSw1MzUuNDEyNiwxNDkzLjM2NjgsNTQxLjAzMjMsMTQ5Ny45Myw1MzIuMzA0NCIgc3R5bGU9InN0cm9rZTojMTgxODE4O3N0cm9rZS13aWR0aDoxOyIvPjx0ZXh0IGZpbGw9IiMwMDAwMDAiIGZvbnQtZmFtaWx5PSJzYW5zLXNlcmlmIiBmb250LXNpemU9IjEzIiBsZW5ndGhBZGp1c3Q9InNwYWNpbmciIHRleHRMZW5ndGg9IjU4LjUiIHg9IjEzMDciIHk9IjYzNS4yNzM0Ij4mIzE3MTtpbmNsdWRlJiMxODc7PC90ZXh0PjwvZz48IS0tbGluayBDcmVhdGUgVGltZSBUYWJsZXMgdG8gTm90aWZ5IFRlYWNoZXJzLS0+PGcgY2xhc3M9ImxpbmsiIGRhdGEtZW50aXR5LTE9IkNyZWF0ZSBUaW1lIFRhYmxlcyIgZGF0YS1lbnRpdHktMj0iTm90aWZ5IFRlYWNoZXJzIiBkYXRhLXNvdXJjZS1saW5lPSIxMjAiIGRhdGEtdWlkPSJsbmsxNDUiIGlkPSJsaW5rX0NyZWF0ZSBUaW1lIFRhYmxlc19Ob3RpZnkgVGVhY2hlcnMiPjxwYXRoIGQ9Ik0xMTkwLjM0LDM4NS44MDQ0IEMxMjI5LjU0LDM5NS45NTQ0IDEyNzYsNDA3Ljk4NDQgMTI3Niw0MDcuOTg0NCBDMTI3Niw0MDcuOTg0NCAxNDEyLjY2ODksNDY4Ljg1MzcgMTQ3OS4yOTg5LDQ5OC41MjM3IiBmaWxsPSJub25lIiBpZD0iQ3JlYXRlIFRpbWUgVGFibGVzLXRvLU5vdGlmeSBUZWFjaGVycyIgc3R5bGU9InN0cm9rZTojMTgxODE4O3N0cm9rZS13aWR0aDoxO3N0cm9rZS1kYXNoYXJyYXk6Ny4wLDcuMDsiLz48cG9seWdvbiBmaWxsPSIjMTgxODE4IiBwb2ludHM9IjE0ODQuNzgsNTAwLjk2NDQsMTQ3OC4xODU0LDQ5My42NDkyLDE0ODAuMjEyNCw0OTguOTMwNCwxNDc0LjkzMTEsNTAwLjk1NzQsMTQ4NC43OCw1MDAuOTY0NCIgc3R5bGU9InN0cm9rZTojMTgxODE4O3N0cm9rZS13aWR0aDoxOyIvPjx0ZXh0IGZpbGw9IiMwMDAwMDAiIGZvbnQtZmFtaWx5PSJzYW5zLXNlcmlmIiBmb250LXNpemU9IjEzIiBsZW5ndGhBZGp1c3Q9InNwYWNpbmciIHRleHRMZW5ndGg9IjU4LjUiIHg9IjEzMDciIHk9IjQyMC4yNzM0Ij4mIzE3MTtpbmNsdWRlJiMxODc7PC90ZXh0PjwvZz48IS0tbGluayBVcGRhdGUgVGltZSBUYWJsZXMgdG8gTm90aWZ5IFRlYWNoZXJzLS0+PGcgY2xhc3M9ImxpbmsiIGRhdGEtZW50aXR5LTE9IlVwZGF0ZSBUaW1lIFRhYmxlcyIgZGF0YS1lbnRpdHktMj0iTm90aWZ5IFRlYWNoZXJzIiBkYXRhLXNvdXJjZS1saW5lPSIxMjEiIGRhdGEtdWlkPSJsbmsxNDYiIGlkPSJsaW5rX1VwZGF0ZSBUaW1lIFRhYmxlc19Ob3RpZnkgVGVhY2hlcnMiPjxwYXRoIGQ9Ik0xMjE3LjkxLDUxNS45ODQ0IEMxMjg1LjcxLDUxNS45ODQ0IDEzNzUuNiw1MTUuOTg0NCAxNDQwLjcxLDUxNS45ODQ0IiBmaWxsPSJub25lIiBpZD0iVXBkYXRlIFRpbWUgVGFibGVzLXRvLU5vdGlmeSBUZWFjaGVycyIgc3R5bGU9InN0cm9rZTojMTgxODE4O3N0cm9rZS13aWR0aDoxO3N0cm9rZS1kYXNoYXJyYXk6Ny4wLDcuMDsiLz48cG9seWdvbiBmaWxsPSIjMTgxODE4IiBwb2ludHM9IjE0NDYuNzEsNTE1Ljk4NDQsMTQzNy43MSw1MTEuOTg0NCwxNDQxLjcxLDUxNS45ODQ0LDE0MzcuNzEsNTE5Ljk4NDQsMTQ0Ni43MSw1MTUuOTg0NCIgc3R5bGU9InN0cm9rZTojMTgxODE4O3N0cm9rZS13aWR0aDoxOyIvPjx0ZXh0IGZpbGw9IiMwMDAwMDAiIGZvbnQtZmFtaWx5PSJzYW5zLXNlcmlmIiBmb250LXNpemU9IjEzIiBsZW5ndGhBZGp1c3Q9InNwYWNpbmciIHRleHRMZW5ndGg9IjU4LjUiIHg9IjEzMDciIHk9IjUxNC4yNzM0Ij4mIzE3MTtpbmNsdWRlJiMxODc7PC90ZXh0PjwvZz48IS0tbGluayBEZWxldGUgVGltZSBUYWJsZXMgdG8gTm90aWZ5IFRlYWNoZXJzLS0+PGcgY2xhc3M9ImxpbmsiIGRhdGEtZW50aXR5LTE9IkRlbGV0ZSBUaW1lIFRhYmxlcyIgZGF0YS1lbnRpdHktMj0iTm90aWZ5IFRlYWNoZXJzIiBkYXRhLXNvdXJjZS1saW5lPSIxMjIiIGRhdGEtdWlkPSJsbmsxNDciIGlkPSJsaW5rX0RlbGV0ZSBUaW1lIFRhYmxlc19Ob3RpZnkgVGVhY2hlcnMiPjxwYXRoIGQ9Ik0xMTk5LjE0LDQ1NS43MTQ0IEMxMjcyLjIsNDY5LjUwNDQgMTM4Ni40NjQxLDQ5MS4wNjEzIDE0NTYuNzA0MSw1MDQuMzIxMyIgZmlsbD0ibm9uZSIgaWQ9IkRlbGV0ZSBUaW1lIFRhYmxlcy10by1Ob3RpZnkgVGVhY2hlcnMiIHN0eWxlPSJzdHJva2U6IzE4MTgxODtzdHJva2Utd2lkdGg6MTtzdHJva2UtZGFzaGFycmF5OjcuMCw3LjA7Ii8+PHBvbHlnb24gZmlsbD0iIzE4MTgxOCIgcG9pbnRzPSIxNDYyLjYsNTA1LjQzNDQsMTQ1NC40OTgyLDQ5OS44MzQzLDE0NTcuNjg2OCw1MDQuNTA2OSwxNDUzLjAxNDIsNTA3LjY5NTQsMTQ2Mi42LDUwNS40MzQ0IiBzdHlsZT0ic3Ryb2tlOiMxODE4MTg7c3Ryb2tlLXdpZHRoOjE7Ii8+PHRleHQgZmlsbD0iIzAwMDAwMCIgZm9udC1mYW1pbHk9InNhbnMtc2VyaWYiIGZvbnQtc2l6ZT0iMTMiIGxlbmd0aEFkanVzdD0ic3BhY2luZyIgdGV4dExlbmd0aD0iNTguNSIgeD0iMTMwNyIgeT0iNDc2LjI3MzQiPiYjMTcxO2luY2x1ZGUmIzE4Nzs8L3RleHQ+PC9nPjwhLS1saW5rIFAgdG8gQnJvYWRjYXN0IEFubm91bmNlbWVudHMtLT48ZyBjbGFzcz0ibGluayIgZGF0YS1lbnRpdHktMT0iUCIgZGF0YS1lbnRpdHktMj0iQnJvYWRjYXN0IEFubm91bmNlbWVudHMiIGRhdGEtc291cmNlLWxpbmU9IjEyNCIgZGF0YS11aWQ9ImxuazE0OSIgaWQ9ImxpbmtfUF9Ccm9hZGNhc3QgQW5ub3VuY2VtZW50cyI+PHBhdGggZD0iTTQyNy4wMSw4MDUuOTg0NCBDNDc4LjE2LDgwNS45ODQ0IDU4My4yOSw4MDUuOTg0NCA2NjEuNDEsODA1Ljk4NDQiIGZpbGw9Im5vbmUiIGlkPSJQLUJyb2FkY2FzdCBBbm5vdW5jZW1lbnRzIiBzdHlsZT0ic3Ryb2tlOiMxODE4MTg7c3Ryb2tlLXdpZHRoOjE7Ii8+PC9nPjwhLS1saW5rIEJyb2FkY2FzdCBBbm5vdW5jZW1lbnRzIHRvIFNlbGVjdCBVc2Vycy0tPjxnIGNsYXNzPSJsaW5rIiBkYXRhLWVudGl0eS0xPSJCcm9hZGNhc3QgQW5ub3VuY2VtZW50cyIgZGF0YS1lbnRpdHktMj0iU2VsZWN0IFVzZXJzIiBkYXRhLXNvdXJjZS1saW5lPSIxMjUiIGRhdGEtdWlkPSJsbmsxNTEiIGlkPSJsaW5rX0Jyb2FkY2FzdCBBbm5vdW5jZW1lbnRzX1NlbGVjdCBVc2VycyI+PHBhdGggZD0iTTg1Ni41Nyw4MDUuOTg0NCBDOTI0LjI4LDgwNS45ODQ0IDEwMDYuODYsODA1Ljk4NDQgMTA2NS43Myw4MDUuOTg0NCIgZmlsbD0ibm9uZSIgaWQ9IkJyb2FkY2FzdCBBbm5vdW5jZW1lbnRzLXRvLVNlbGVjdCBVc2VycyIgc3R5bGU9InN0cm9rZTojMTgxODE4O3N0cm9rZS13aWR0aDoxO3N0cm9rZS1kYXNoYXJyYXk6Ny4wLDcuMDsiLz48cG9seWdvbiBmaWxsPSIjMTgxODE4IiBwb2ludHM9IjEwNzEuNzMsODA1Ljk4NDQsMTA2Mi43Myw4MDEuOTg0NCwxMDY2LjczLDgwNS45ODQ0LDEwNjIuNzMsODA5Ljk4NDQsMTA3MS43Myw4MDUuOTg0NCIgc3R5bGU9InN0cm9rZTojMTgxODE4O3N0cm9rZS13aWR0aDoxOyIvPjx0ZXh0IGZpbGw9IiMwMDAwMDAiIGZvbnQtZmFtaWx5PSJzYW5zLXNlcmlmIiBmb250LXNpemU9IjEzIiBsZW5ndGhBZGp1c3Q9InNwYWNpbmciIHRleHRMZW5ndGg9IjU4LjUiIHg9IjkwNyIgeT0iODA0LjI3MzQiPiYjMTcxO2luY2x1ZGUmIzE4Nzs8L3RleHQ+PC9nPjwhLS1yZXZlcnNlIGxpbmsgU2VsZWN0IFVzZXJzIHRvIE5vdGlmeSBVc2Vycy0tPjxnIGNsYXNzPSJsaW5rIiBkYXRhLWVudGl0eS0xPSJTZWxlY3QgVXNlcnMiIGRhdGEtZW50aXR5LTI9Ik5vdGlmeSBVc2VycyIgZGF0YS1zb3VyY2UtbGluZT0iMTI3IiBkYXRhLXVpZD0ibG5rMTUyIiBpZD0ibGlua19TZWxlY3QgVXNlcnNfTm90aWZ5IFVzZXJzIj48cGF0aCBkPSJNMTIwMy44NTYxLDgwMS40MjY1IEMxMjc1LjE3NjEsNzk2LjU2NjUgMTM4Ni42Miw3ODguOTc0NCAxNDU3Ljg1LDc4NC4xMTQ0IiBmaWxsPSJub25lIiBpZD0iU2VsZWN0IFVzZXJzLWJhY2t0by1Ob3RpZnkgVXNlcnMiIHN0eWxlPSJzdHJva2U6IzE4MTgxODtzdHJva2Utd2lkdGg6MTtzdHJva2UtZGFzaGFycmF5OjcuMCw3LjA7Ii8+PHBvbHlnb24gZmlsbD0iIzE4MTgxOCIgcG9pbnRzPSIxMTk3Ljg3LDgwMS44MzQ0LDEyMDcuMTIxMSw4MDUuMjEzMiwxMjAyLjg1ODQsODAxLjQ5NDQsMTIwNi41NzcyLDc5Ny4yMzE4LDExOTcuODcsODAxLjgzNDQiIHN0eWxlPSJzdHJva2U6IzE4MTgxODtzdHJva2Utd2lkdGg6MTsiLz48dGV4dCBmaWxsPSIjMDAwMDAwIiBmb250LWZhbWlseT0ic2Fucy1zZXJpZiIgZm9udC1zaXplPSIxMyIgbGVuZ3RoQWRqdXN0PSJzcGFjaW5nIiB0ZXh0TGVuZ3RoPSI1OC41IiB4PSIxMzA3IiB5PSI3ODkuMjczNCI+JiMxNzE7ZXh0ZW5kcyYjMTg3OzwvdGV4dD48L2c+PCEtLXJldmVyc2UgbGluayBTZWxlY3QgVXNlcnMgdG8gTm90aWZ5IFNlY3Rpb25hbCBIZWFkcy0tPjxnIGNsYXNzPSJsaW5rIiBkYXRhLWVudGl0eS0xPSJTZWxlY3QgVXNlcnMiIGRhdGEtZW50aXR5LTI9Ik5vdGlmeSBTZWN0aW9uYWwgSGVhZHMiIGRhdGEtc291cmNlLWxpbmU9IjEyOCIgZGF0YS11aWQ9ImxuazE1MyIgaWQ9ImxpbmtfU2VsZWN0IFVzZXJzX05vdGlmeSBTZWN0aW9uYWwgSGVhZHMiPjxwYXRoIGQ9Ik0xMTk0LjM2NzMsODE1LjYwNyBDMTI2MC4wNTczLDgyNi42MjcgMTM2OC4zMSw4NDQuNzg0NCAxNDQzLjY0LDg1Ny40MjQ0IiBmaWxsPSJub25lIiBpZD0iU2VsZWN0IFVzZXJzLWJhY2t0by1Ob3RpZnkgU2VjdGlvbmFsIEhlYWRzIiBzdHlsZT0ic3Ryb2tlOiMxODE4MTg7c3Ryb2tlLXdpZHRoOjE7c3Ryb2tlLWRhc2hhcnJheTo3LjAsNy4wOyIvPjxwb2x5Z29uIGZpbGw9IiMxODE4MTgiIHBvaW50cz0iMTE4OC40NSw4MTQuNjE0NCwxMTk2LjY2NDIsODIwLjA0ODMsMTE5My4zODExLDgxNS40NDE2LDExOTcuOTg3OCw4MTIuMTU4NSwxMTg4LjQ1LDgxNC42MTQ0IiBzdHlsZT0ic3Ryb2tlOiMxODE4MTg7c3Ryb2tlLXdpZHRoOjE7Ii8+PHRleHQgZmlsbD0iIzAwMDAwMCIgZm9udC1mYW1pbHk9InNhbnMtc2VyaWYiIGZvbnQtc2l6ZT0iMTMiIGxlbmd0aEFkanVzdD0ic3BhY2luZyIgdGV4dExlbmd0aD0iNTguNSIgeD0iMTMwNyIgeT0iODM1LjI3MzQiPiYjMTcxO2V4dGVuZHMmIzE4Nzs8L3RleHQ+PC9nPjwhLS1saW5rIE5vdGlmeSBQcmluY2lwYWxzIHRvIFBSLS0+PGcgY2xhc3M9ImxpbmsiIGRhdGEtZW50aXR5LTE9Ik5vdGlmeSBQcmluY2lwYWxzIiBkYXRhLWVudGl0eS0yPSJQUiIgZGF0YS1zb3VyY2UtbGluZT0iMTMwIiBkYXRhLXVpZD0ibG5rMTU1IiBpZD0ibGlua19Ob3RpZnkgUHJpbmNpcGFsc19QUiI+PHBhdGggZD0iTTE1OTguMjUsMTA3MS45ODQ0IEMxNjQwLjk3LDEwNzEuOTg0NCAxNjkxLjU2LDEwNzEuOTg0NCAxNzIzLjIyLDEwNzEuOTg0NCIgZmlsbD0ibm9uZSIgaWQ9Ik5vdGlmeSBQcmluY2lwYWxzLVBSIiBzdHlsZT0ic3Ryb2tlOiMxODE4MTg7c3Ryb2tlLXdpZHRoOjE7Ii8+PC9nPjwhLS1saW5rIEEgdG8gVmlldyBVc2VyIEluZm9ybWF0aW9uIC0tPjxnIGNsYXNzPSJsaW5rIiBkYXRhLWVudGl0eS0xPSJBIiBkYXRhLWVudGl0eS0yPSJWaWV3IFVzZXIgSW5mb3JtYXRpb24gIiBkYXRhLXNvdXJjZS1saW5lPSIxMzIiIGRhdGEtdWlkPSJsbmsxNTciIGlkPSJsaW5rX0FfVmlldyBVc2VyIEluZm9ybWF0aW9uICI+PHBhdGggZD0iTTU2My40OSwxMTA5LjcyNDQgQzYxMS4yMSwxMTcxLjg1NDQgNzA0LjczLDEyOTMuNjI0NCA3NDIuMDYsMTM0Mi4yMjQ0IiBmaWxsPSJub25lIiBpZD0iQS1WaWV3IFVzZXIgSW5mb3JtYXRpb24gIiBzdHlsZT0ic3Ryb2tlOiMxODE4MTg7c3Ryb2tlLXdpZHRoOjE7Ii8+PC9nPjwhLS1yZXZlcnNlIGxpbmsgVmlldyBVc2VyIEluZm9ybWF0aW9uICB0byBBZGQgVXNlci0tPjxnIGNsYXNzPSJsaW5rIiBkYXRhLWVudGl0eS0xPSJWaWV3IFVzZXIgSW5mb3JtYXRpb24gIiBkYXRhLWVudGl0eS0yPSJBZGQgVXNlciIgZGF0YS1zb3VyY2UtbGluZT0iMTMzIiBkYXRhLXVpZD0ibG5rMTU5IiBpZD0ibGlua19WaWV3IFVzZXIgSW5mb3JtYXRpb24gX0FkZCBVc2VyIj48cGF0aCBkPSJNODUyLjk1ODMsMTM1NS4wNTQxIEM5MjcuNzA4MywxMzQ4LjY3NDEgMTAyNi43NSwxMzQwLjIyNDQgMTA4Ny4xNSwxMzM1LjA2NDQiIGZpbGw9Im5vbmUiIGlkPSJWaWV3IFVzZXIgSW5mb3JtYXRpb24gLWJhY2t0by1BZGQgVXNlciIgc3R5bGU9InN0cm9rZTojMTgxODE4O3N0cm9rZS13aWR0aDoxO3N0cm9rZS1kYXNoYXJyYXk6Ny4wLDcuMDsiLz48cG9seWdvbiBmaWxsPSIjMTgxODE4IiBwb2ludHM9Ijg0Ni45OCwxMzU1LjU2NDQsODU2LjI4NzYsMTM1OC43ODQ1LDg1MS45NjE5LDEzNTUuMTM5Miw4NTUuNjA3MiwxMzUwLjgxMzUsODQ2Ljk4LDEzNTUuNTY0NCIgc3R5bGU9InN0cm9rZTojMTgxODE4O3N0cm9rZS13aWR0aDoxOyIvPjx0ZXh0IGZpbGw9IiMwMDAwMDAiIGZvbnQtZmFtaWx5PSJzYW5zLXNlcmlmIiBmb250LXNpemU9IjEzIiBsZW5ndGhBZGp1c3Q9InNwYWNpbmciIHRleHRMZW5ndGg9IjU4LjUiIHg9IjkwNyIgeT0iMTM0NS4yNzM0Ij4mIzE3MTtleHRlbmRzJiMxODc7PC90ZXh0PjwvZz48IS0tcmV2ZXJzZSBsaW5rIFZpZXcgVXNlciBJbmZvcm1hdGlvbiAgdG8gVXBkYXRlIFVzZXItLT48ZyBjbGFzcz0ibGluayIgZGF0YS1lbnRpdHktMT0iVmlldyBVc2VyIEluZm9ybWF0aW9uICIgZGF0YS1lbnRpdHktMj0iVXBkYXRlIFVzZXIiIGRhdGEtc291cmNlLWxpbmU9IjEzNCIgZGF0YS11aWQ9ImxuazE2MSIgaWQ9ImxpbmtfVmlldyBVc2VyIEluZm9ybWF0aW9uIF9VcGRhdGUgVXNlciI+PHBhdGggZD0iTTgxNC4yNDczLDEzODMuMDQ2IEM4NTYuNzE3MywxMzk4Ljc1NiA5MDYsMTQxNi45ODQ0IDkwNiwxNDE2Ljk4NDQgQzkwNiwxNDE2Ljk4NDQgMTAxOS41MywxNDM3LjMxNDQgMTA4Ni43MSwxNDQ5LjM0NDQiIGZpbGw9Im5vbmUiIGlkPSJWaWV3IFVzZXIgSW5mb3JtYXRpb24gLWJhY2t0by1VcGRhdGUgVXNlciIgc3R5bGU9InN0cm9rZTojMTgxODE4O3N0cm9rZS13aWR0aDoxO3N0cm9rZS1kYXNoYXJyYXk6Ny4wLDcuMDsiLz48cG9seWdvbiBmaWxsPSIjMTgxODE4IiBwb2ludHM9IjgwOC42MiwxMzgwLjk2NDQsODE1LjY3MzMsMTM4Ny44MzgzLDgxMy4zMDk0LDEzODIuNjk5LDgxOC40NDg3LDEzODAuMzM1Miw4MDguNjIsMTM4MC45NjQ0IiBzdHlsZT0ic3Ryb2tlOiMxODE4MTg7c3Ryb2tlLXdpZHRoOjE7Ii8+PHRleHQgZmlsbD0iIzAwMDAwMCIgZm9udC1mYW1pbHk9InNhbnMtc2VyaWYiIGZvbnQtc2l6ZT0iMTMiIGxlbmd0aEFkanVzdD0ic3BhY2luZyIgdGV4dExlbmd0aD0iNTguNSIgeD0iOTA3IiB5PSIxNDE1LjI3MzQiPiYjMTcxO2V4dGVuZHMmIzE4Nzs8L3RleHQ+PC9nPjwhLS1yZXZlcnNlIGxpbmsgVmlldyBVc2VyIEluZm9ybWF0aW9uICB0byBEZWxldGUgVXNlci0tPjxnIGNsYXNzPSJsaW5rIiBkYXRhLWVudGl0eS0xPSJWaWV3IFVzZXIgSW5mb3JtYXRpb24gIiBkYXRhLWVudGl0eS0yPSJEZWxldGUgVXNlciIgZGF0YS1zb3VyY2UtbGluZT0iMTM1IiBkYXRhLXVpZD0ibG5rMTYzIiBpZD0ibGlua19WaWV3IFVzZXIgSW5mb3JtYXRpb24gX0RlbGV0ZSBVc2VyIj48cGF0aCBkPSJNODM0LjU5NzMsMTM3OC4zMTE4IEM4NzIuNDY3MywxMzg2LjA5MTggOTA2LDEzOTIuOTg0NCA5MDYsMTM5Mi45ODQ0IEM5MDYsMTM5Mi45ODQ0IDEwMDYuOTgsMTM5My40MjQ0IDEwNzQuODMsMTM5My43MjQ0IiBmaWxsPSJub25lIiBpZD0iVmlldyBVc2VyIEluZm9ybWF0aW9uIC1iYWNrdG8tRGVsZXRlIFVzZXIiIHN0eWxlPSJzdHJva2U6IzE4MTgxODtzdHJva2Utd2lkdGg6MTtzdHJva2UtZGFzaGFycmF5OjcuMCw3LjA7Ii8+PHBvbHlnb24gZmlsbD0iIzE4MTgxOCIgcG9pbnRzPSI4MjguNzIsMTM3Ny4xMDQ0LDgzNi43MzA5LDEzODIuODMzNyw4MzMuNjE3NywxMzc4LjExMDYsODM4LjM0MDgsMTM3NC45OTczLDgyOC43MiwxMzc3LjEwNDQiIHN0eWxlPSJzdHJva2U6IzE4MTgxODtzdHJva2Utd2lkdGg6MTsiLz48dGV4dCBmaWxsPSIjMDAwMDAwIiBmb250LWZhbWlseT0ic2Fucy1zZXJpZiIgZm9udC1zaXplPSIxMyIgbGVuZ3RoQWRqdXN0PSJzcGFjaW5nIiB0ZXh0TGVuZ3RoPSI1OC41IiB4PSI5MDciIHk9IjEzOTEuMjczNCI+JiMxNzE7ZXh0ZW5kcyYjMTg3OzwvdGV4dD48L2c+PCEtLWxpbmsgQWRkIFVzZXIgdG8gVXBkYXRlIFVzZXIgTG9ncy0tPjxnIGNsYXNzPSJsaW5rIiBkYXRhLWVudGl0eS0xPSJBZGQgVXNlciIgZGF0YS1lbnRpdHktMj0iVXBkYXRlIFVzZXIgTG9ncyIgZGF0YS1zb3VyY2UtbGluZT0iMTM3IiBkYXRhLXVpZD0ibG5rMTY1IiBpZD0ibGlua19BZGQgVXNlcl9VcGRhdGUgVXNlciBMb2dzIj48cGF0aCBkPSJNMTE3OS42NSwxMzM4LjAyNDQgQzEyNDcuNDEsMTM0OS4yMTQ0IDEzNzQuMDAwMSwxMzcwLjEyNzEgMTQ1MS43MjAxLDEzODIuOTU3MSIgZmlsbD0ibm9uZSIgaWQ9IkFkZCBVc2VyLXRvLVVwZGF0ZSBVc2VyIExvZ3MiIHN0eWxlPSJzdHJva2U6IzE4MTgxODtzdHJva2Utd2lkdGg6MTtzdHJva2UtZGFzaGFycmF5OjcuMCw3LjA7Ii8+PHBvbHlnb24gZmlsbD0iIzE4MTgxOCIgcG9pbnRzPSIxNDU3LjY0LDEzODMuOTM0NCwxNDQ5LjQxMTcsMTM3OC41MjE5LDE0NTIuNzA2OCwxMzgzLjEyLDE0NDguMTA4NywxMzg2LjQxNTEsMTQ1Ny42NCwxMzgzLjkzNDQiIHN0eWxlPSJzdHJva2U6IzE4MTgxODtzdHJva2Utd2lkdGg6MTsiLz48dGV4dCBmaWxsPSIjMDAwMDAwIiBmb250LWZhbWlseT0ic2Fucy1zZXJpZiIgZm9udC1zaXplPSIxMyIgbGVuZ3RoQWRqdXN0PSJzcGFjaW5nIiB0ZXh0TGVuZ3RoPSI1OC41IiB4PSIxMzA3IiB5PSIxMzU5LjI3MzQiPiYjMTcxO2luY2x1ZGUmIzE4Nzs8L3RleHQ+PC9nPjwhLS1saW5rIFVwZGF0ZSBVc2VyIHRvIFVwZGF0ZSBVc2VyIExvZ3MtLT48ZyBjbGFzcz0ibGluayIgZGF0YS1lbnRpdHktMT0iVXBkYXRlIFVzZXIiIGRhdGEtZW50aXR5LTI9IlVwZGF0ZSBVc2VyIExvZ3MiIGRhdGEtc291cmNlLWxpbmU9IjEzOCIgZGF0YS11aWQ9ImxuazE2NiIgaWQ9ImxpbmtfVXBkYXRlIFVzZXJfVXBkYXRlIFVzZXIgTG9ncyI+PHBhdGggZD0iTTExODYuNDgsMTQ0OS42ODQ0IEMxMjU2LjA0LDE0MzguMDE0NCAxMzc2LjY5MjcsMTQxNy43NzcyIDE0NTEuODUyNywxNDA1LjE2NzIiIGZpbGw9Im5vbmUiIGlkPSJVcGRhdGUgVXNlci10by1VcGRhdGUgVXNlciBMb2dzIiBzdHlsZT0ic3Ryb2tlOiMxODE4MTg7c3Ryb2tlLXdpZHRoOjE7c3Ryb2tlLWRhc2hhcnJheTo3LjAsNy4wOyIvPjxwb2x5Z29uIGZpbGw9IiMxODE4MTgiIHBvaW50cz0iMTQ1Ny43NywxNDA0LjE3NDQsMTQ0OC4yMzIyLDE0MDEuNzE4NywxNDUyLjgzODksMTQwNS4wMDE3LDE0NDkuNTU1OSwxNDA5LjYwODQsMTQ1Ny43NywxNDA0LjE3NDQiIHN0eWxlPSJzdHJva2U6IzE4MTgxODtzdHJva2Utd2lkdGg6MTsiLz48dGV4dCBmaWxsPSIjMDAwMDAwIiBmb250LWZhbWlseT0ic2Fucy1zZXJpZiIgZm9udC1zaXplPSIxMyIgbGVuZ3RoQWRqdXN0PSJzcGFjaW5nIiB0ZXh0TGVuZ3RoPSI1OC41IiB4PSIxMzA3IiB5PSIxNDE5LjI3MzQiPiYjMTcxO2luY2x1ZGUmIzE4Nzs8L3RleHQ+PC9nPjwhLS1saW5rIERlbGV0ZSBVc2VyIHRvIFVwZGF0ZSBVc2VyIExvZ3MtLT48ZyBjbGFzcz0ibGluayIgZGF0YS1lbnRpdHktMT0iRGVsZXRlIFVzZXIiIGRhdGEtZW50aXR5LTI9IlVwZGF0ZSBVc2VyIExvZ3MiIGRhdGEtc291cmNlLWxpbmU9IjEzOSIgZGF0YS11aWQ9ImxuazE2NyIgaWQ9ImxpbmtfRGVsZXRlIFVzZXJfVXBkYXRlIFVzZXIgTG9ncyI+PHBhdGggZD0iTTExOTcuMDMsMTM5My45ODQ0IEMxMjYzLjc2LDEzOTMuOTg0NCAxMzY1LjYxLDEzOTMuOTg0NCAxNDM3Ljc2LDEzOTMuOTg0NCIgZmlsbD0ibm9uZSIgaWQ9IkRlbGV0ZSBVc2VyLXRvLVVwZGF0ZSBVc2VyIExvZ3MiIHN0eWxlPSJzdHJva2U6IzE4MTgxODtzdHJva2Utd2lkdGg6MTtzdHJva2UtZGFzaGFycmF5OjcuMCw3LjA7Ii8+PHBvbHlnb24gZmlsbD0iIzE4MTgxOCIgcG9pbnRzPSIxNDQzLjc2LDEzOTMuOTg0NCwxNDM0Ljc2LDEzODkuOTg0NCwxNDM4Ljc2LDEzOTMuOTg0NCwxNDM0Ljc2LDEzOTcuOTg0NCwxNDQzLjc2LDEzOTMuOTg0NCIgc3R5bGU9InN0cm9rZTojMTgxODE4O3N0cm9rZS13aWR0aDoxOyIvPjx0ZXh0IGZpbGw9IiMwMDAwMDAiIGZvbnQtZmFtaWx5PSJzYW5zLXNlcmlmIiBmb250LXNpemU9IjEzIiBsZW5ndGhBZGp1c3Q9InNwYWNpbmciIHRleHRMZW5ndGg9IjU4LjUiIHg9IjEzMDciIHk9IjEzOTIuMjczNCI+JiMxNzE7aW5jbHVkZSYjMTg3OzwvdGV4dD48L2c+PCEtLWxpbmsgQSB0byBWaWV3IFN5c3RlbSBNb25pdG9yLS0+PGcgY2xhc3M9ImxpbmsiIGRhdGEtZW50aXR5LTE9IkEiIGRhdGEtZW50aXR5LTI9IlZpZXcgU3lzdGVtIE1vbml0b3IiIGRhdGEtc291cmNlLWxpbmU9IjE0MSIgZGF0YS11aWQ9ImxuazE2OSIgaWQ9ImxpbmtfQV9WaWV3IFN5c3RlbSBNb25pdG9yIj48cGF0aCBkPSJNNTc5LjE5LDEwNzEuOTg0NCBDNjA2LjQ1LDEwNzEuOTg0NCA2NDIuMTYsMTA3MS45ODQ0IDY3NC41LDEwNzEuOTg0NCIgZmlsbD0ibm9uZSIgaWQ9IkEtVmlldyBTeXN0ZW0gTW9uaXRvciIgc3R5bGU9InN0cm9rZTojMTgxODE4O3N0cm9rZS13aWR0aDoxOyIvPjwvZz48IS0tcmV2ZXJzZSBsaW5rIFZpZXcgU3lzdGVtIE1vbml0b3IgdG8gR2VuZXJhdGUgVXNlciBFbmdhZ2VtZW50IFJlcG9ydHMtLT48ZyBjbGFzcz0ibGluayIgZGF0YS1lbnRpdHktMT0iVmlldyBTeXN0ZW0gTW9uaXRvciIgZGF0YS1lbnRpdHktMj0iR2VuZXJhdGUgVXNlciBFbmdhZ2VtZW50IFJlcG9ydHMiIGRhdGEtc291cmNlLWxpbmU9IjE0MiIgZGF0YS11aWQ9ImxuazE3MSIgaWQ9ImxpbmtfVmlldyBTeXN0ZW0gTW9uaXRvcl9HZW5lcmF0ZSBVc2VyIEVuZ2FnZW1lbnQgUmVwb3J0cyI+PHBhdGggZD0iTTc5NS41MDE2LDEwNTAuNDc1MiBDODU5LjI0MTYsMTAxMS44NTUyIDk5Niw5MjguOTg0NCA5OTYsOTI4Ljk4NDQgQzk5Niw5MjguOTg0NCAxMDI5LjQxLDkxOC4xNzQ0IDEwNjMuNDYsOTA3LjE0NDQiIGZpbGw9Im5vbmUiIGlkPSJWaWV3IFN5c3RlbSBNb25pdG9yLWJhY2t0by1HZW5lcmF0ZSBVc2VyIEVuZ2FnZW1lbnQgUmVwb3J0cyIgc3R5bGU9InN0cm9rZTojMTgxODE4O3N0cm9rZS13aWR0aDoxO3N0cm9rZS1kYXNoYXJyYXk6Ny4wLDcuMDsiLz48cG9seWdvbiBmaWxsPSIjMTgxODE4IiBwb2ludHM9Ijc5MC4zNywxMDUzLjU4NDQsODAwLjE0MDEsMTA1Mi4zNDE2LDc5NC42NDYzLDEwNTAuOTkzNCw3OTUuOTk0NSwxMDQ1LjQ5OTUsNzkwLjM3LDEwNTMuNTg0NCIgc3R5bGU9InN0cm9rZTojMTgxODE4O3N0cm9rZS13aWR0aDoxOyIvPjx0ZXh0IGZpbGw9IiMwMDAwMDAiIGZvbnQtZmFtaWx5PSJzYW5zLXNlcmlmIiBmb250LXNpemU9IjEzIiBsZW5ndGhBZGp1c3Q9InNwYWNpbmciIHRleHRMZW5ndGg9IjU4LjUiIHg9IjkwNyIgeT0iOTQ4LjI3MzQiPiYjMTcxO2V4dGVuZHMmIzE4Nzs8L3RleHQ+PC9nPjwhLS1yZXZlcnNlIGxpbmsgVmlldyBTeXN0ZW0gTW9uaXRvciB0byBHZW5lcmF0ZSBQZXJmb3JtYW5jZSBSZXBvcnRzLS0+PGcgY2xhc3M9ImxpbmsiIGRhdGEtZW50aXR5LTE9IlZpZXcgU3lzdGVtIE1vbml0b3IiIGRhdGEtZW50aXR5LTI9IkdlbmVyYXRlIFBlcmZvcm1hbmNlIFJlcG9ydHMiIGRhdGEtc291cmNlLWxpbmU9IjE0MyIgZGF0YS11aWQ9ImxuazE3MyIgaWQ9ImxpbmtfVmlldyBTeXN0ZW0gTW9uaXRvcl9HZW5lcmF0ZSBQZXJmb3JtYW5jZSBSZXBvcnRzIj48cGF0aCBkPSJNNzk1LjUxMDgsMTA5My4zNDgyIEM4NTkuMjUwOCwxMTMxLjcwODIgOTk2LDEyMTMuOTg0NCA5OTYsMTIxMy45ODQ0IEM5OTYsMTIxMy45ODQ0IDEwMzMuMjQsMTIyNS41MDQ0IDEwNjkuMTYsMTIzNi42MTQ0IiBmaWxsPSJub25lIiBpZD0iVmlldyBTeXN0ZW0gTW9uaXRvci1iYWNrdG8tR2VuZXJhdGUgUGVyZm9ybWFuY2UgUmVwb3J0cyIgc3R5bGU9InN0cm9rZTojMTgxODE4O3N0cm9rZS13aWR0aDoxO3N0cm9rZS1kYXNoYXJyYXk6Ny4wLDcuMDsiLz48cG9seWdvbiBmaWxsPSIjMTgxODE4IiBwb2ludHM9Ijc5MC4zNywxMDkwLjI1NDQsNzk2LjAxODcsMTA5OC4zMjI0LDc5NC42NTQsMTA5Mi44MzI2LDgwMC4xNDM4LDEwOTEuNDY3OSw3OTAuMzcsMTA5MC4yNTQ0IiBzdHlsZT0ic3Ryb2tlOiMxODE4MTg7c3Ryb2tlLXdpZHRoOjE7Ii8+PHRleHQgZmlsbD0iIzAwMDAwMCIgZm9udC1mYW1pbHk9InNhbnMtc2VyaWYiIGZvbnQtc2l6ZT0iMTMiIGxlbmd0aEFkanVzdD0ic3BhY2luZyIgdGV4dExlbmd0aD0iNTguNSIgeD0iOTA3IiB5PSIxMTU4LjI3MzQiPiYjMTcxO2V4dGVuZHMmIzE4Nzs8L3RleHQ+PC9nPjwhLS1yZXZlcnNlIGxpbmsgVmlldyBTeXN0ZW0gTW9uaXRvciB0byBHZW5lcmF0ZSBTeXN0ZW0gVXRpbGl6YXRpb24gUmVwb3J0cy0tPjxnIGNsYXNzPSJsaW5rIiBkYXRhLWVudGl0eS0xPSJWaWV3IFN5c3RlbSBNb25pdG9yIiBkYXRhLWVudGl0eS0yPSJHZW5lcmF0ZSBTeXN0ZW0gVXRpbGl6YXRpb24gUmVwb3J0cyIgZGF0YS1zb3VyY2UtbGluZT0iMTQ0IiBkYXRhLXVpZD0ibG5rMTc1IiBpZD0ibGlua19WaWV3IFN5c3RlbSBNb25pdG9yX0dlbmVyYXRlIFN5c3RlbSBVdGlsaXphdGlvbiBSZXBvcnRzIj48cGF0aCBkPSJNODIyLjM2NjQsMTA4Ny43ODcyIEM4ODMuMDI2NCwxMTAzLjE0NzIgOTc0LjQxLDExMjYuMzA0NCAxMDQ1LjQ5LDExNDQuMzA0NCIgZmlsbD0ibm9uZSIgaWQ9IlZpZXcgU3lzdGVtIE1vbml0b3ItYmFja3RvLUdlbmVyYXRlIFN5c3RlbSBVdGlsaXphdGlvbiBSZXBvcnRzIiBzdHlsZT0ic3Ryb2tlOiMxODE4MTg7c3Ryb2tlLXdpZHRoOjE7c3Ryb2tlLWRhc2hhcnJheTo3LjAsNy4wOyIvPjxwb2x5Z29uIGZpbGw9IiMxODE4MTgiIHBvaW50cz0iODE2LjU1LDEwODYuMzE0NCw4MjQuMjkyOCwxMDkyLjQwMTIsODIxLjM5NywxMDg3LjU0MTcsODI2LjI1NjUsMTA4NC42NDYsODE2LjU1LDEwODYuMzE0NCIgc3R5bGU9InN0cm9rZTojMTgxODE4O3N0cm9rZS13aWR0aDoxOyIvPjx0ZXh0IGZpbGw9IiMwMDAwMDAiIGZvbnQtZmFtaWx5PSJzYW5zLXNlcmlmIiBmb250LXNpemU9IjEzIiBsZW5ndGhBZGp1c3Q9InNwYWNpbmciIHRleHRMZW5ndGg9IjU4LjUiIHg9IjkwNyIgeT0iMTEwOS4yNzM0Ij4mIzE3MTtleHRlbmRzJiMxODc7PC90ZXh0PjwvZz48IS0tcmV2ZXJzZSBsaW5rIFZpZXcgU3lzdGVtIE1vbml0b3IgdG8gR2VuZXJhdGUgQ29udGVudCBQb3B1bGFyaXR5IFJlcG9ydHMtLT48ZyBjbGFzcz0ibGluayIgZGF0YS1lbnRpdHktMT0iVmlldyBTeXN0ZW0gTW9uaXRvciIgZGF0YS1lbnRpdHktMj0iR2VuZXJhdGUgQ29udGVudCBQb3B1bGFyaXR5IFJlcG9ydHMiIGRhdGEtc291cmNlLWxpbmU9IjE0NSIgZGF0YS11aWQ9ImxuazE3NyIgaWQ9ImxpbmtfVmlldyBTeXN0ZW0gTW9uaXRvcl9HZW5lcmF0ZSBDb250ZW50IFBvcHVsYXJpdHkgUmVwb3J0cyI+PHBhdGggZD0iTTg0OS42OSwxMDcxLjk4NDQgQzg5NS4zNSwxMDcxLjk4NDQgOTQ2Ljk5LDEwNzEuOTg0NCA5OTguOTMsMTA3MS45ODQ0IiBmaWxsPSJub25lIiBpZD0iVmlldyBTeXN0ZW0gTW9uaXRvci1iYWNrdG8tR2VuZXJhdGUgQ29udGVudCBQb3B1bGFyaXR5IFJlcG9ydHMiIHN0eWxlPSJzdHJva2U6IzE4MTgxODtzdHJva2Utd2lkdGg6MTtzdHJva2UtZGFzaGFycmF5OjcuMCw3LjA7Ii8+PHBvbHlnb24gZmlsbD0iIzE4MTgxOCIgcG9pbnRzPSI4NDMuNjksMTA3MS45ODQ0LDg1Mi42OSwxMDc1Ljk4NDQsODQ4LjY5LDEwNzEuOTg0NCw4NTIuNjksMTA2Ny45ODQ0LDg0My42OSwxMDcxLjk4NDQiIHN0eWxlPSJzdHJva2U6IzE4MTgxODtzdHJva2Utd2lkdGg6MTsiLz48dGV4dCBmaWxsPSIjMDAwMDAwIiBmb250LWZhbWlseT0ic2Fucy1zZXJpZiIgZm9udC1zaXplPSIxMyIgbGVuZ3RoQWRqdXN0PSJzcGFjaW5nIiB0ZXh0TGVuZ3RoPSI1OC41IiB4PSI5MDciIHk9IjEwNzAuMjczNCI+JiMxNzE7ZXh0ZW5kcyYjMTg3OzwvdGV4dD48L2c+PCEtLXJldmVyc2UgbGluayBWaWV3IFN5c3RlbSBNb25pdG9yIHRvIEdlbmVyYXRlIE1vbnRobHkgQXR0ZW5kYW5jZSBSZXBvcnRzLS0+PGcgY2xhc3M9ImxpbmsiIGRhdGEtZW50aXR5LTE9IlZpZXcgU3lzdGVtIE1vbml0b3IiIGRhdGEtZW50aXR5LTI9IkdlbmVyYXRlIE1vbnRobHkgQXR0ZW5kYW5jZSBSZXBvcnRzIiBkYXRhLXNvdXJjZS1saW5lPSIxNDYiIGRhdGEtdWlkPSJsbmsxNzkiIGlkPSJsaW5rX1ZpZXcgU3lzdGVtIE1vbml0b3JfR2VuZXJhdGUgTW9udGhseSBBdHRlbmRhbmNlIFJlcG9ydHMiPjxwYXRoIGQ9Ik04MjIuMzY2NCwxMDU2LjE4MTYgQzg4My4wMjY0LDEwNDAuODIxNiA5NzQuNDEsMTAxNy42NjQ0IDEwNDUuNDksOTk5LjY2NDQiIGZpbGw9Im5vbmUiIGlkPSJWaWV3IFN5c3RlbSBNb25pdG9yLWJhY2t0by1HZW5lcmF0ZSBNb250aGx5IEF0dGVuZGFuY2UgUmVwb3J0cyIgc3R5bGU9InN0cm9rZTojMTgxODE4O3N0cm9rZS13aWR0aDoxO3N0cm9rZS1kYXNoYXJyYXk6Ny4wLDcuMDsiLz48cG9seWdvbiBmaWxsPSIjMTgxODE4IiBwb2ludHM9IjgxNi41NSwxMDU3LjY1NDQsODI2LjI1NjUsMTA1OS4zMjI4LDgyMS4zOTcsMTA1Ni40MjcsODI0LjI5MjgsMTA1MS41Njc1LDgxNi41NSwxMDU3LjY1NDQiIHN0eWxlPSJzdHJva2U6IzE4MTgxODtzdHJva2Utd2lkdGg6MTsiLz48dGV4dCBmaWxsPSIjMDAwMDAwIiBmb250LWZhbWlseT0ic2Fucy1zZXJpZiIgZm9udC1zaXplPSIxMyIgbGVuZ3RoQWRqdXN0PSJzcGFjaW5nIiB0ZXh0TGVuZ3RoPSI1OC41IiB4PSI5MDciIHk9IjEwMjAuMjczNCI+JiMxNzE7ZXh0ZW5kcyYjMTg3OzwvdGV4dD48L2c+PCEtLWxpbmsgR2VuZXJhdGUgVXNlciBFbmdhZ2VtZW50IFJlcG9ydHMgdG8gTm90aWZ5IFByaW5jaXBhbHMtLT48ZyBjbGFzcz0ibGluayIgZGF0YS1lbnRpdHktMT0iR2VuZXJhdGUgVXNlciBFbmdhZ2VtZW50IFJlcG9ydHMiIGRhdGEtZW50aXR5LTI9Ik5vdGlmeSBQcmluY2lwYWxzIiBkYXRhLXNvdXJjZS1saW5lPSIxNDgiIGRhdGEtdWlkPSJsbmsxODAiIGlkPSJsaW5rX0dlbmVyYXRlIFVzZXIgRW5nYWdlbWVudCBSZXBvcnRzX05vdGlmeSBQcmluY2lwYWxzIj48cGF0aCBkPSJNMTIwOC41NCw5MDcuMTQ0NCBDMTI0Mi41OSw5MTguMTc0NCAxMjc2LDkyOC45ODQ0IDEyNzYsOTI4Ljk4NDQgQzEyNzYsOTI4Ljk4NDQgMTQyMC4zMjEzLDEwMTQuMDk3NCAxNDg0LjU2MTMsMTA1MS45Njc0IiBmaWxsPSJub25lIiBpZD0iR2VuZXJhdGUgVXNlciBFbmdhZ2VtZW50IFJlcG9ydHMtdG8tTm90aWZ5IFByaW5jaXBhbHMiIHN0eWxlPSJzdHJva2U6IzE4MTgxODtzdHJva2Utd2lkdGg6MTtzdHJva2UtZGFzaGFycmF5OjcuMCw3LjA7Ii8+PHBvbHlnb24gZmlsbD0iIzE4MTgxOCIgcG9pbnRzPSIxNDg5LjczLDEwNTUuMDE0NCwxNDg0LjAwODIsMTA0Ni45OTgsMTQ4NS40MjI3LDEwNTIuNDc1MiwxNDc5Ljk0NTYsMTA1My44ODk3LDE0ODkuNzMsMTA1NS4wMTQ0IiBzdHlsZT0ic3Ryb2tlOiMxODE4MTg7c3Ryb2tlLXdpZHRoOjE7Ii8+PHRleHQgZmlsbD0iIzAwMDAwMCIgZm9udC1mYW1pbHk9InNhbnMtc2VyaWYiIGZvbnQtc2l6ZT0iMTMiIGxlbmd0aEFkanVzdD0ic3BhY2luZyIgdGV4dExlbmd0aD0iNTguNSIgeD0iMTMwNyIgeT0iOTQ1LjI3MzQiPiYjMTcxO2luY2x1ZGUmIzE4Nzs8L3RleHQ+PC9nPjwhLS1saW5rIEdlbmVyYXRlIFBlcmZvcm1hbmNlIFJlcG9ydHMgdG8gTm90aWZ5IFByaW5jaXBhbHMtLT48ZyBjbGFzcz0ibGluayIgZGF0YS1lbnRpdHktMT0iR2VuZXJhdGUgUGVyZm9ybWFuY2UgUmVwb3J0cyIgZGF0YS1lbnRpdHktMj0iTm90aWZ5IFByaW5jaXBhbHMiIGRhdGEtc291cmNlLWxpbmU9IjE0OSIgZGF0YS11aWQ9ImxuazE4MSIgaWQ9ImxpbmtfR2VuZXJhdGUgUGVyZm9ybWFuY2UgUmVwb3J0c19Ob3RpZnkgUHJpbmNpcGFscyI+PHBhdGggZD0iTTEyMDIuODQsMTIzNi42MTQ0IEMxMjM4Ljc2LDEyMjUuNTA0NCAxMjc2LDEyMTMuOTg0NCAxMjc2LDEyMTMuOTg0NCBDMTI3NiwxMjEzLjk4NDQgMTQyMC4zMTIxLDExMjkuNDc1OCAxNDg0LjU1MjEsMTA5MS44NjU4IiBmaWxsPSJub25lIiBpZD0iR2VuZXJhdGUgUGVyZm9ybWFuY2UgUmVwb3J0cy10by1Ob3RpZnkgUHJpbmNpcGFscyIgc3R5bGU9InN0cm9rZTojMTgxODE4O3N0cm9rZS13aWR0aDoxO3N0cm9rZS1kYXNoYXJyYXk6Ny4wLDcuMDsiLz48cG9seWdvbiBmaWxsPSIjMTgxODE4IiBwb2ludHM9IjE0ODkuNzMsMTA4OC44MzQ0LDE0NzkuOTQyMiwxMDg5LjkyOTYsMTQ4NS40MTUxLDEwOTEuMzYwNiwxNDgzLjk4NDIsMTA5Ni44MzM1LDE0ODkuNzMsMTA4OC44MzQ0IiBzdHlsZT0ic3Ryb2tlOiMxODE4MTg7c3Ryb2tlLXdpZHRoOjE7Ii8+PHRleHQgZmlsbD0iIzAwMDAwMCIgZm9udC1mYW1pbHk9InNhbnMtc2VyaWYiIGZvbnQtc2l6ZT0iMTMiIGxlbmd0aEFkanVzdD0ic3BhY2luZyIgdGV4dExlbmd0aD0iNTguNSIgeD0iMTMwNyIgeT0iMTE2My4yNzM0Ij4mIzE3MTtpbmNsdWRlJiMxODc7PC90ZXh0PjwvZz48IS0tbGluayBHZW5lcmF0ZSBTeXN0ZW0gVXRpbGl6YXRpb24gUmVwb3J0cyB0byBOb3RpZnkgUHJpbmNpcGFscy0tPjxnIGNsYXNzPSJsaW5rIiBkYXRhLWVudGl0eS0xPSJHZW5lcmF0ZSBTeXN0ZW0gVXRpbGl6YXRpb24gUmVwb3J0cyIgZGF0YS1lbnRpdHktMj0iTm90aWZ5IFByaW5jaXBhbHMiIGRhdGEtc291cmNlLWxpbmU9IjE1MCIgZGF0YS11aWQ9ImxuazE4MiIgaWQ9ImxpbmtfR2VuZXJhdGUgU3lzdGVtIFV0aWxpemF0aW9uIFJlcG9ydHNfTm90aWZ5IFByaW5jaXBhbHMiPjxwYXRoIGQ9Ik0xMjI3LjQxLDExNDQuNDc0NCBDMTMwMS42NywxMTI1Ljk4NDQgMTM5OC40NTc2LDExMDEuODczNiAxNDU5LjkyNzYsMTA4Ni41NzM2IiBmaWxsPSJub25lIiBpZD0iR2VuZXJhdGUgU3lzdGVtIFV0aWxpemF0aW9uIFJlcG9ydHMtdG8tTm90aWZ5IFByaW5jaXBhbHMiIHN0eWxlPSJzdHJva2U6IzE4MTgxODtzdHJva2Utd2lkdGg6MTtzdHJva2UtZGFzaGFycmF5OjcuMCw3LjA7Ii8+PHBvbHlnb24gZmlsbD0iIzE4MTgxOCIgcG9pbnRzPSIxNDY1Ljc1LDEwODUuMTI0NCwxNDU2LjA1MDMsMTA4My40MTY2LDE0NjAuODk4LDEwODYuMzMyLDE0NTcuOTgyNiwxMDkxLjE3OTcsMTQ2NS43NSwxMDg1LjEyNDQiIHN0eWxlPSJzdHJva2U6IzE4MTgxODtzdHJva2Utd2lkdGg6MTsiLz48dGV4dCBmaWxsPSIjMDAwMDAwIiBmb250LWZhbWlseT0ic2Fucy1zZXJpZiIgZm9udC1zaXplPSIxMyIgbGVuZ3RoQWRqdXN0PSJzcGFjaW5nIiB0ZXh0TGVuZ3RoPSI1OC41IiB4PSIxMzA3IiB5PSIxMTA5LjI3MzQiPiYjMTcxO2luY2x1ZGUmIzE4Nzs8L3RleHQ+PC9nPjwhLS1saW5rIEdlbmVyYXRlIENvbnRlbnQgUG9wdWxhcml0eSBSZXBvcnRzIHRvIE5vdGlmeSBQcmluY2lwYWxzLS0+PGcgY2xhc3M9ImxpbmsiIGRhdGEtZW50aXR5LTE9IkdlbmVyYXRlIENvbnRlbnQgUG9wdWxhcml0eSBSZXBvcnRzIiBkYXRhLWVudGl0eS0yPSJOb3RpZnkgUHJpbmNpcGFscyIgZGF0YS1zb3VyY2UtbGluZT0iMTUxIiBkYXRhLXVpZD0ibG5rMTgzIiBpZD0ibGlua19HZW5lcmF0ZSBDb250ZW50IFBvcHVsYXJpdHkgUmVwb3J0c19Ob3RpZnkgUHJpbmNpcGFscyI+PHBhdGggZD0iTTEyNzMuMTEsMTA3MS45ODQ0IEMxMzI5LjM5LDEwNzEuOTg0NCAxMzg2LjYsMTA3MS45ODQ0IDE0MzQuNzcsMTA3MS45ODQ0IiBmaWxsPSJub25lIiBpZD0iR2VuZXJhdGUgQ29udGVudCBQb3B1bGFyaXR5IFJlcG9ydHMtdG8tTm90aWZ5IFByaW5jaXBhbHMiIHN0eWxlPSJzdHJva2U6IzE4MTgxODtzdHJva2Utd2lkdGg6MTtzdHJva2UtZGFzaGFycmF5OjcuMCw3LjA7Ii8+PHBvbHlnb24gZmlsbD0iIzE4MTgxOCIgcG9pbnRzPSIxNDQwLjc3LDEwNzEuOTg0NCwxNDMxLjc3LDEwNjcuOTg0NCwxNDM1Ljc3LDEwNzEuOTg0NCwxNDMxLjc3LDEwNzUuOTg0NCwxNDQwLjc3LDEwNzEuOTg0NCIgc3R5bGU9InN0cm9rZTojMTgxODE4O3N0cm9rZS13aWR0aDoxOyIvPjx0ZXh0IGZpbGw9IiMwMDAwMDAiIGZvbnQtZmFtaWx5PSJzYW5zLXNlcmlmIiBmb250LXNpemU9IjEzIiBsZW5ndGhBZGp1c3Q9InNwYWNpbmciIHRleHRMZW5ndGg9IjU4LjUiIHg9IjEzMDciIHk9IjEwNzAuMjczNCI+JiMxNzE7aW5jbHVkZSYjMTg3OzwvdGV4dD48L2c+PCEtLWxpbmsgR2VuZXJhdGUgTW9udGhseSBBdHRlbmRhbmNlIFJlcG9ydHMgdG8gTm90aWZ5IFByaW5jaXBhbHMtLT48ZyBjbGFzcz0ibGluayIgZGF0YS1lbnRpdHktMT0iR2VuZXJhdGUgTW9udGhseSBBdHRlbmRhbmNlIFJlcG9ydHMiIGRhdGEtZW50aXR5LTI9Ik5vdGlmeSBQcmluY2lwYWxzIiBkYXRhLXNvdXJjZS1saW5lPSIxNTIiIGRhdGEtdWlkPSJsbmsxODQiIGlkPSJsaW5rX0dlbmVyYXRlIE1vbnRobHkgQXR0ZW5kYW5jZSBSZXBvcnRzX05vdGlmeSBQcmluY2lwYWxzIj48cGF0aCBkPSJNMTIyNy40MSw5OTkuNDk0NCBDMTMwMS42NywxMDE3Ljk4NDQgMTM5OC40NTc2LDEwNDIuMDk1MiAxNDU5LjkyNzYsMTA1Ny4zOTUyIiBmaWxsPSJub25lIiBpZD0iR2VuZXJhdGUgTW9udGhseSBBdHRlbmRhbmNlIFJlcG9ydHMtdG8tTm90aWZ5IFByaW5jaXBhbHMiIHN0eWxlPSJzdHJva2U6IzE4MTgxODtzdHJva2Utd2lkdGg6MTtzdHJva2UtZGFzaGFycmF5OjcuMCw3LjA7Ii8+PHBvbHlnb24gZmlsbD0iIzE4MTgxOCIgcG9pbnRzPSIxNDY1Ljc1LDEwNTguODQ0NCwxNDU3Ljk4MjYsMTA1Mi43ODksMTQ2MC44OTgsMTA1Ny42MzY3LDE0NTYuMDUwMywxMDYwLjU1MjIsMTQ2NS43NSwxMDU4Ljg0NDQiIHN0eWxlPSJzdHJva2U6IzE4MTgxODtzdHJva2Utd2lkdGg6MTsiLz48dGV4dCBmaWxsPSIjMDAwMDAwIiBmb250LWZhbWlseT0ic2Fucy1zZXJpZiIgZm9udC1zaXplPSIxMyIgbGVuZ3RoQWRqdXN0PSJzcGFjaW5nIiB0ZXh0TGVuZ3RoPSI1OC41IiB4PSIxMzA3IiB5PSIxMDIwLjI3MzQiPiYjMTcxO2luY2x1ZGUmIzE4Nzs8L3RleHQ+PC9nPjwhLS1TUkM9W2hMWlRaamllNUJ4dEtucERyVkhZdlc1TWV2N0lENnJNd2JKSDlFYXpPdkM0NU9DNVVCVGZrLSAtIC02M0Nzalc0eEpkOEg5TjN1RTlwbF9DMUhINTRDc19KNEVPS05uRDBIdnZXZnM5d2JtWmF5bTRSbVdha1NtTHZZTTJCenpPY1dlcTF2YWIxeUtBMHUyNzh5QVNZOG1BYVlkMk5vMXM0NXFZOTAyU0ZnTjYwZUUzck5Wdjg0Zk9lQmtERGV1V3dHWEZybXZGTHpRQWxBSjJqWkhoVlVtS1BxWHI1d2lXMHh4czJCTWdrOUFBbW5vY2dTVE5Jb01SZUhYQU1hR0RIQ1IwQjNaVldZb21hWktXY2Ffdmd2SFBCaXVVZEZtdUMtWl9zbkl0UHNQOXJpcl9ORkpSQWZWc1p2b2dnODdKTEJUbzZReGsxdDBsUXAxeHRpVmlLSzVnMUU2MVBBT1BPWGJjaFk0QTdkM3VyYUowV1U3dl9YX1ppTXY3M01wMURzWENfdzJ1ajI3ckx6V0JfV3dLY1ZjTWVnZGZ6Um5GMDJXeFNsQ2dIbXZLYTJsbDlaN3dQdDFZcjFjQURrX1R6Z1hZWGZpQ0JnVEFMY3dGMlR1N3poTUhxNzFxQW5leXptM2Z1VTd4aXhEM0ZMQmxYZFBNTmZRa1lMZFE3ZGFrVHZvS1lBQWtUclRFb0VyX2ZqakhCbVdnTktKWUkzY2xNYXZsNzdJektiaTFnZWlQUVM3T1o4V3ptcnluVmpWRi1EZ3plM2lUMVFRcExxRGNiY2pvc2Rnd29pWlE4Wl9NenN1MkJsY291Z1BZclBsa0w0bUs5QVJRU2c3aUZjZDgxY0gyOU8zWlVVVkxxcDFWUzluU2JXdnBoOGdjNnBidkh3a1N1eHVlU0NjanVyeGEtS293WFAxbUFFMlNwYVkyNzdyaUNoYllMTDRzMVFJT0VtQTBmdzFlc2huckNrUjRjeDc2VTlRNWhJWWVtbGNxTU9JS2tPaE1ka1lTMXVob3ZtVlRhMGtNN3ZJWmNWTzJFdlF2ZHBBajh4aExfUC1qRzJYdXlKaXMwNHluRWMtRFFPTnAzM21qTktBTzJsa0UxWXA3Q2ttVHZXT09IazJodllXYkRneFcwMUoyVUxuYlhueXFST25md2E0VUxiRGtlYVBjdzd4a05jVWRXVkV3RWVXUm93Nm9yUUNCNWd6UUJxc2hCcjNoVkFSYjAzVXo0LWZHbndxYlBSaDZHZVF4YVl6UFBMTVZERlptSktmVk10SnQ1eDRTemNMRkNXY2ktNHItMjV4SkM5NUlSdXpRMTQtR2ZpczlDZHRYWHkyNHdIZDhiV3BOcTVXZzRfVGNpUFU5eFRoNkZfOE5ZMHAtd0h2czVxM3BxRm10RmlZdTJjdGVwQ1ZNVmROOG8yVHhvVWQ3ckJzMnYyQ3pfVVVEVGsxYUE3bXlZclFJMVhodm5QUFlUVlNGdmNEZWhWM1c4dUpNc3Y3a2VMdl9vVllMMS1TcEhqYkFYOV81QVRzRHdITjctWER1aDczWEMzaXhRdjNQWHJfV1pPbThVd1JRTlFiUWctYWtFS0dveW1xSjFtbWRYS05tRlhQX3FZMjF6Zk5lM3VBU1JOWm9JY1ltNFFYOHJudWUtMmVvbjVLZlRibmRZZmh1VHI4TXF0MmFkS2tzc3I2Z2J3UnFFNHliUE5vbFhNanR5SHhDczRyV3R5UkNHbGN5dmJ4UDhSbm9DTmxHUE9COTI3MGNyZ1FwanFlTTBCaE5RUUZsQzBoM0Z1MEJnMTUtdUZaV1JTZEFLVGxJT2p6UjVZTV9HbGQxNzVuSTJ0VGNUeHBxVXBxT2VUdF9sOHF6d2JLU1pCZHhiSEUza3hMdUlJTnBNaERxMVRTZ1JDa3V5TjlLTTJnRkNqS0ZNbUVrYWhuTldObVZETTM1QlhmWXF0SmlTVWQtNHR4R29tNjBycENNQ2FwQ01DS0owRHl4X18wRzAwXS0tPjwvZz48L3N2Zz4=;" vertex="1" parent="1">
            <mxGeometry x="-1654" y="-1169" width="1654" height="2599.27" as="geometry" />
          </mxCell>
        </UserObject>
      </root>
    </mxGraphModel>
  </diagram>
</mxfile>
